<?xml version='1.0' encoding='utf-8'?>
<svg width="180.090001mm" height="127.489342mm" viewBox="-36.013273 -25.494522 72.026546 50.989044" version="1.1" xmlns="http://www.w3.org/2000/svg">
  <g transform="scale(1,-1)" stroke-linecap="round">
    <g fill="rgb(30,30,46)" stroke="none" stroke-width="0.03599527519446685">
      <path d="M -35.995275,25.476524 L -35.995275,-25.476524 L 35.995275,-25.476524 L 35.995275,25.476524 L -35.995275,25.476524" />
    </g>
    <g fill="none" stroke="rgb(200,200,200)" stroke-width="0.03599527519446685" id="Visible">
      <line x1="-5.642048" y1="-18.491708" x2="-5.642048" y2="-14.986604" />
      <line x1="33.281894" y1="-19.86659" x2="33.281894" y2="-0.531109" />
      <path d="M 33.281894,-0.531109 A 10.0,3.716927780122337 -96.07711648544527 0,1 30.495893,7.052854" />
      <path d="M 30.495893,7.052854 A 10.0,3.716927780122337 -96.07711648544527 0,1 29.437223,6.776792" />
      <line x1="8.281091" y1="-18.589456" x2="6.358755" y2="-19.769376" />
      <line x1="6.358755" y1="-19.769376" x2="-5.642048" y2="-18.491708" />
      <line x1="29.437223" y1="6.776792" x2="14.812667" y2="-2.199691" />
      <path d="M 14.812667,-2.199691 A 23.0,5.879541972160707 -8.224658436023786e-16 0,1 11.358544,-0.10358" />
      <line x1="6.358755" y1="-19.769376" x2="6.358755" y2="-13.422782" />
      <path d="M 17.43642,-13.21457 A 6.0,5.354799581443137 121.54140374276396 0,1 15.464571,-8.566974" />
      <line x1="17.43642" y1="-13.21457" x2="17.43642" y2="-20.948763" />
      <line x1="29.437223" y1="-22.226431" x2="17.43642" y2="-20.948763" />
      <line x1="29.437223" y1="-22.226431" x2="29.437223" y2="-4.824497" />
      <path d="M 9.829404,-1.391298 A 19.0,4.857012933524063 0.0 0,1 11.289769,0.476064" />
      <path d="M 14.812667,-2.199691 C 14.377973,-2.465922 13.944168,-2.58801 13.518607,-2.620775 C 13.042205,-2.656634 12.575377,-2.58012 12.117219,-2.442761 C 11.628945,-2.295882 11.150179,-2.079143 10.675473,-1.838758" />
      <path d="M 10.675473,-1.838758 Q 10.2514,-1.62152 9.829404,-1.391298" />
      <path d="M 27.514888,-1.170547 A 5.0,1.8584638900611685 83.92288351455474 0,0 28.044223,-1.032516" />
      <path d="M 28.044223,-1.032516 A 5.0,1.8584638900611685 83.92288351455474 0,0 29.437223,-4.824497" />
      <path d="M -26.710231,-10.158451 A 19.0,4.857012933524063 0.0 0,1 9.829404,-12.025813" />
      <line x1="9.829404" y1="-12.025813" x2="27.514888" y2="-1.170547" />
      <path d="M 5.289769,12.719175 A 19.0,4.857012933524063 180.0 0,0 11.289769,9.177031" />
      <path d="M 11.289769,9.177031 A 19.0,4.857012933524063 180.0 0,0 -26.710231,9.177031" />
      <path d="M -26.710231,9.177031 A 19.0,4.857012933524063 180.0 0,0 -20.710231,12.719175" />
      <line x1="9.829404" y1="-12.025813" x2="9.829404" y2="-1.391298" />
      <line x1="29.437223" y1="-22.226431" x2="33.281894" y2="-19.86659" />
      <line x1="8.281091" y1="-18.589456" x2="8.281091" y2="-12.781363" />
      <path d="M -10.785968,15.023351 A 8.0,2.0450580772732896 180.0 0,0 -15.710231,16.911223" />
      <path d="M -15.710231,16.911223 A 8.0,2.0450580772732896 180.0 1,0 0.289769,16.911223" />
      <path d="M 0.289769,16.911223 A 8.0,2.0450580772732896 180.0 0,0 -10.785968,15.023351" />
      <path d="M -20.710231,9.177031 A 13.0,3.3232193755690957 0.0 0,1 5.289769,9.177031" />
      <path d="M -2.71216,19.979016 A 13.0,3.3232193755690957 0.0 0,1 -20.710231,16.911223" />
      <path d="M -20.710231,16.911223 A 13.0,3.3232193755690957 0.0 0,1 5.289769,16.911223" />
      <path d="M 5.289769,16.911223 A 13.0,3.3232193755690957 0.0 0,1 -2.71216,19.979016" />
      <line x1="29.437223" y1="6.776792" x2="11.289769" y2="8.708865" />
      <line x1="29.437223" y1="-4.824497" x2="22.725942" y2="-4.109979" />
      <line x1="30.495893" y1="7.052854" x2="11.289769" y2="9.097639" />
      <path d="M 11.289769,0.476064 C 11.287982,0.139207 11.364439,-0.192903 11.464674,-0.431418 C 11.599689,-0.75718 11.749037,-0.900406 11.74539,-0.896798" />
      <line x1="11.289769" y1="0.476064" x2="11.289769" y2="9.177031" />
      <line x1="-26.710231" y1="-10.158451" x2="-26.710231" y2="9.177031" />
      <line x1="5.289769" y1="9.177031" x2="5.289769" y2="16.911223" />
      <line x1="-20.710231" y1="9.177031" x2="-20.710231" y2="16.911223" />
    </g>
    <g fill="none" stroke="rgb(99,99,99)" stroke-width="0.03599527519446685" id="Hidden" stroke-dasharray="0.000914 0.108443">
      <line x1="-1.797377" y1="3.203614" x2="-1.797377" y2="-16.131868" />
      <path d="M -1.797377,3.203614 A 10.0,3.716927780122337 -96.07711648544527 0,1 -4.583379,10.787577" />
      <path d="M -4.583379,10.787577 A 10.0,3.716927780122337 -96.07711648544527 0,1 -5.642048,10.511515" />
      <line x1="-5.642048" y1="-18.491708" x2="-1.797377" y2="-16.131868" />
      <line x1="-20.266605" y1="1.535032" x2="-5.642048" y2="10.511515" />
      <line x1="-5.642048" y1="-14.986604" x2="-5.642048" y2="-1.089774" />
      <path d="M -20.266605,1.535032 C -20.579914,1.342893 -20.893105,1.226264 -21.202709,1.163403" />
      <path d="M -21.202709,1.163403 C -21.803308,1.042744 -22.389783,1.120786 -22.962053,1.291962 C -23.450326,1.438841 -23.929092,1.65558 -24.403798,1.895964" />
      <path d="M -7.564383,2.564176 A 5.0,1.8584638900611685 83.92288351455474 0,0 -7.035048,2.702207" />
      <path d="M -7.035048,2.702207 A 5.0,1.8584638900611685 83.92288351455474 0,0 -5.642048,-1.089774" />
      <path d="M -24.403798,1.895964 Q -24.827871,2.113203 -25.249867,2.343425" />
      <line x1="-7.564383" y1="2.564176" x2="-25.249867" y2="-8.29109" />
      <line x1="-25.249867" y1="2.343425" x2="-25.249867" y2="-8.29109" />
      <line x1="7.43401" y1="-17.114689" x2="-1.797377" y2="-16.131868" />
      <line x1="7.43401" y1="-17.114689" x2="7.43401" y2="-9.380497" />
      <path d="M 24.050507,-11.149576 A 9.0,8.032199372164705 121.54140374276396 0,1 11.034227,-2.594675" />
      <path d="M 11.034227,-2.594675 A 9.0,8.032199372164705 121.54140374276396 0,1 7.43401,-9.380497" />
      <line x1="24.050507" y1="-11.149576" x2="24.050507" y2="-18.883769" />
      <line x1="33.281894" y1="-19.86659" x2="24.050507" y2="-18.883769" />
      <line x1="7.43401" y1="-17.114689" x2="5.511675" y2="-18.29461" />
      <line x1="8.281091" y1="-18.589456" x2="5.511675" y2="-18.29461" />
      <path d="M 11.358544,-0.10358 A 23.0,5.879541972160707 -8.224658436023786e-16 0,1 -20.266605,1.535032" />
      <line x1="6.358755" y1="-13.422782" x2="6.358755" y2="-12.035184" />
      <path d="M 15.464571,-8.566974 A 6.0,5.354799581443137 121.54140374276396 0,1 8.7589,-7.511302" />
      <path d="M 8.7589,-7.511302 A 6.0,5.354799581443137 121.54140374276396 0,1 6.358755,-12.035184" />
      <path d="M 11.289769,0.476064 A 19.0,4.857012933524063 0.0 0,1 -0.405358,4.959761" />
      <path d="M -0.405358,4.959761 A 19.0,4.857012933524063 0.0 0,1 -25.249867,2.343425" />
      <path d="M -25.249867,-8.29109 A 19.0,4.857012933524063 0.0 0,1 -26.710231,-10.158451" />
      <path d="M -10.785968,-12.046323 A 8.0,2.0450580772732896 180.0 0,0 -15.710231,-10.158451" />
      <path d="M -15.710231,-10.158451 A 8.0,2.0450580772732896 180.0 1,0 0.289769,-10.158451" />
      <path d="M 0.289769,-10.158451 A 8.0,2.0450580772732896 180.0 0,0 -10.785968,-12.046323" />
      <line x1="-0.405358" y1="4.959761" x2="-0.405358" y2="13.660727" />
      <path d="M -0.405358,13.660727 A 19.0,4.857012933524063 180.0 0,0 5.289769,12.719175" />
      <path d="M -20.710231,12.719175 A 19.0,4.857012933524063 180.0 0,0 -0.405358,13.660727" />
      <line x1="5.511675" y1="-18.29461" x2="5.511675" y2="-10.560417" />
      <path d="M 22.128171,-12.329496 A 9.0,8.032199372164705 121.54140374276396 0,1 9.111892,-3.774595" />
      <path d="M 9.111892,-3.774595 A 9.0,8.032199372164705 121.54140374276396 0,1 5.511675,-10.560417" />
      <line x1="22.128171" y1="-20.063689" x2="24.050507" y2="-18.883769" />
      <line x1="22.128171" y1="-12.329496" x2="22.128171" y2="-20.063689" />
      <line x1="17.43642" y1="-20.948763" x2="19.358755" y2="-19.768842" />
      <line x1="22.128171" y1="-20.063689" x2="19.358755" y2="-19.768842" />
      <line x1="8.281091" y1="-12.781363" x2="8.281091" y2="-10.855263" />
      <path d="M 8.281091,-10.855263 A 6.0,5.354799581443137 -58.458596257236046 0,0 10.681236,-6.331382" />
      <path d="M 10.681236,-6.331382 A 6.0,5.354799581443137 -58.458596257236046 0,0 19.358755,-12.03465" />
      <line x1="19.358755" y1="-12.03465" x2="19.358755" y2="-19.768842" />
      <line x1="-10.785968" y1="15.023351" x2="-10.785968" y2="-12.046323" />
      <path d="M -2.71216,12.244823 A 13.0,3.3232193755690957 0.0 0,1 -20.710231,9.177031" />
      <path d="M 5.289769,9.177031 A 13.0,3.3232193755690957 0.0 0,1 -2.71216,12.244823" />
      <line x1="11.289769" y1="9.097639" x2="-4.583379" y2="10.787577" />
      <path d="M 11.74539,-0.896798 C 11.748293,-0.89482 11.548416,-0.723706 11.161995,-0.519533 C 10.820537,-0.335522 10.33987,-0.120738 9.751446,0.093598 C 9.162722,0.308661 8.46624,0.523276 7.685038,0.726568 C 5.578446,1.276333 2.862123,1.729553 -0.11854,2.009181 C -4.34455,2.411369 -9.11015,2.465353 -13.470484,2.159021 C -16.305717,1.962739 -18.970679,1.616645 -21.202709,1.163403" />
      <line x1="28.044223" y1="-1.032516" x2="-7.035048" y2="2.702207" />
      <line x1="9.111892" y1="-3.774595" x2="11.034227" y2="-2.594675" />
      <line x1="8.7589" y1="-7.511302" x2="10.681236" y2="-6.331382" />
      <line x1="-15.710231" y1="16.911223" x2="-15.710231" y2="-10.158451" />
      <line x1="0.289769" y1="16.911223" x2="0.289769" y2="-10.158451" />
      <line x1="33.281894" y1="-0.531109" x2="-1.797377" y2="3.203614" />
      <line x1="11.289769" y1="8.708865" x2="-5.642048" y2="10.511515" />
      <line x1="22.725942" y1="-4.109979" x2="-5.642048" y2="-1.089774" />
      <line x1="27.514888" y1="-1.170547" x2="-7.564383" y2="2.564176" />
      <line x1="7.43401" y1="-9.380497" x2="5.511675" y2="-10.560417" />
      <line x1="24.050507" y1="-11.149576" x2="22.128171" y2="-12.329496" />
      <line x1="8.281091" y1="-10.855263" x2="6.358755" y2="-12.035184" />
      <line x1="19.358755" y1="-12.03465" x2="17.43642" y2="-13.21457" />
    </g>
  </g>
</svg>