<?xml version='1.0' encoding='utf-8'?>
<svg width="133.376386mm" height="180.09mm" viewBox="-32.362037 -43.696485 64.724074 87.39297" version="1.1" xmlns="http://www.w3.org/2000/svg">
  <g transform="scale(1,-1)" stroke-linecap="round">
    <g fill="rgb(30,30,46)" stroke="none" stroke-width="0.04367464761114838">
      <path d="M -32.3402,43.674648 L -32.3402,-43.674648 L 32.3402,-43.674648 L 32.3402,43.674648 L -32.3402,43.674648" />
    </g>
    <g fill="none" stroke="rgb(200,200,200)" stroke-width="0.04367464761114838" id="Visible">
      <path d="M 12.746859,-2.743049 A 15.0,7.023290623749474 -93.45365782004791 0,1 4.77471,-19.210255" />
      <line x1="4.77471" y1="-19.210255" x2="-19.9215" y2="-17.719819" />
      <path d="M -19.9215,-17.719819 A 15.0,7.023290623749474 -93.45365782004791 0,1 -13.756587,-31.198128" />
      <path d="M 25.967832,-16.647197 A 15.0,7.023290623749474 86.5463421799521 0,0 17.995682,-33.114403" />
      <path d="M 17.995682,-33.114403 A 15.0,7.023290623749474 86.5463421799521 0,0 19.802919,-3.168888" />
      <path d="M 19.802919,-3.168888 A 15.0,7.023290623749474 86.5463421799521 0,0 25.967832,-16.647197" />
      <path d="M 13.619727,-1.299105 Q 13.620764,-2.049781 13.697546,-2.800424" />
      <path d="M 13.619727,-1.299105 A 21.0,9.832606873249263 -93.45365782004791 0,1 -0.517335,-4.288002" />
      <path d="M -0.517335,-4.288002 C -0.516854,-5.73965 -0.288977,-7.197247 0.074573,-8.610571 C 0.479515,-10.182416 1.051607,-11.703535 1.704302,-13.177652 C 2.622672,-15.249502 3.700456,-17.231228 4.77471,-19.210255" />
      <line x1="-19.9215" y1="0.052999" x2="-19.9215" y2="-17.719819" />
      <line x1="-19.9215" y1="0.052999" x2="-14.629455" y2="-0.26638" />
      <line x1="-14.629455" y1="-6.116001" x2="-14.629455" y2="-0.26638" />
      <line x1="-5.80938" y1="-6.6483" x2="-14.629455" y2="-6.116001" />
      <line x1="-5.80938" y1="-6.6483" x2="-5.80938" y2="-0.798679" />
      <line x1="-5.80938" y1="-0.798679" x2="-0.517335" y2="-1.118058" />
      <line x1="-0.517335" y1="-4.288002" x2="-0.517335" y2="-1.118058" />
      <path d="M -21.57776,8.133802 A 12.0,5.618632498999579 86.5463421799521 0,0 -19.9215,0.052999" />
      <path d="M -2.48579,39.620874 A 10.0,4.6821937491663155 86.5463421799521 0,0 -1.883378,39.666715" />
      <line x1="-21.57776" y1="8.133802" x2="-26.552285" y2="17.570859" />
      <line x1="-23.220148" y1="35.237158" x2="-2.48579" y2="39.620874" />
      <path d="M -23.220148,35.237158 A 10.0,4.6821937491663155 -93.45365782004791 0,1 -26.552285,17.570859" />
      <path d="M -20.381757,28.328963 A 6.5,3.0434259369581054 86.5463421799521 0,0 -20.766493,21.953979" />
      <line x1="13.619727" y1="1.87084" x2="13.619727" y2="-1.299105" />
      <path d="M 17.95683,-12.720257 A 6.0,2.809316249499789 -93.45365782004791 0,1 18.537853,-24.130749" />
      <path d="M 18.537853,-24.130749 A 6.0,2.809316249499789 -93.45365782004791 0,1 19.841771,-12.321737" />
      <line x1="19.841771" y1="-12.321737" x2="19.841771" y2="-8.999988" />
      <line x1="17.95683" y1="-9.398508" x2="19.841771" y2="-8.999988" />
      <line x1="17.95683" y1="-12.720257" x2="17.95683" y2="-9.398508" />
      <path d="M 15.275987,10.651984 A 12.0,5.618632498999579 -93.45365782004791 0,1 13.619727,1.87084" />
      <line x1="15.275987" y1="10.651984" x2="20.250512" y2="22.192498" />
      <path d="M 16.918375,38.449817 A 10.0,4.6821937491663155 86.5463421799521 0,0 17.520787,38.495658" />
      <path d="M 17.520787,38.495658 A 10.0,4.6821937491663155 86.5463421799521 0,0 20.250512,22.192498" />
      <line x1="-3.815983" y1="34.066101" x2="16.918375" y2="38.449817" />
      <path d="M -3.815983,34.066101 A 10.0,4.6821937491663155 -93.45365782004791 0,1 -7.14812,16.399802" />
      <line x1="-2.173595" y1="6.962745" x2="-7.14812" y2="16.399802" />
      <path d="M -2.173595,6.962745 A 12.0,5.618632498999579 86.5463421799521 0,0 -0.517335,-1.118058" />
      <path d="M -6.879013,23.482509 A 6.5,3.0434259369581054 86.5463421799521 0,0 -3.424415,30.618298" />
      <path d="M -3.424415,30.618298 A 6.5,3.0434259369581054 86.5463421799521 1,0 -4.207551,17.641908" />
      <path d="M -4.207551,17.641908 A 6.5,3.0434259369581054 86.5463421799521 0,0 -6.879013,23.482509" />
      <path d="M 19.981405,29.161414 A 6.5,3.0434259369581054 -93.45365782004791 0,1 17.309942,35.002014" />
      <path d="M 17.309942,35.002014 A 6.5,3.0434259369581054 -93.45365782004791 0,1 16.526807,22.025624" />
      <path d="M 16.526807,22.025624 A 6.5,3.0434259369581054 -93.45365782004791 0,1 19.981405,29.161414" />
      <path d="M -16.285715,7.814422 A 12.0,5.618632498999579 86.5463421799521 0,0 -14.629455,-0.26638" />
      <path d="M -17.928103,34.917779 A 10.0,4.6821937491663155 -93.45365782004791 0,1 -21.26024,17.25148" />
      <line x1="-16.285715" y1="7.814422" x2="-21.26024" y2="17.25148" />
      <line x1="-14.629455" y1="-6.116001" x2="-5.80938" y2="-4.251236" />
      <path d="M 5.8758,37.553403 A 10.0,4.6821937491663155 -93.45365782004791 0,1 3.408667,39.347336" />
      <path d="M 3.408667,39.347336 A 10.0,4.6821937491663155 -93.45365782004791 0,1 2.806255,39.301495" />
      <line x1="-17.928103" y1="34.917779" x2="2.806255" y2="39.301495" />
      <path d="M -20.991133,24.334187 A 6.5,3.0434259369581054 86.5463421799521 0,0 -17.536535,31.469976" />
      <path d="M -17.536535,31.469976 A 6.5,3.0434259369581054 86.5463421799521 1,0 -18.319671,18.493586" />
      <path d="M -18.319671,18.493586 A 6.5,3.0434259369581054 86.5463421799521 0,0 -20.991133,24.334187" />
      <line x1="-9.108028" y1="34.38548" x2="11.62633" y2="38.769196" />
      <path d="M -12.440165,16.719182 A 10.0,4.6821937491663155 86.5463421799521 0,0 -9.108028,34.38548" />
      <line x1="-7.46564" y1="7.282124" x2="-12.440165" y2="16.719182" />
      <path d="M -7.46564,7.282124 A 12.0,5.618632498999579 86.5463421799521 0,0 -5.80938,-0.798679" />
      <path d="M 11.62633,38.769196 A 10.0,4.6821937491663155 86.5463421799521 0,0 12.228742,38.815037" />
      <path d="M -6.269638,27.477285 A 6.5,3.0434259369581054 86.5463421799521 0,0 -6.654373,21.102301" />
      <path d="M 14.68936,29.480793 A 6.5,3.0434259369581054 86.5463421799521 0,0 14.079984,25.486017" />
      <path d="M 14.46472,31.861001 A 6.5,3.0434259369581054 86.5463421799521 0,0 14.68936,29.480793" />
      <line x1="19.841771" y1="-12.321737" x2="17.95683" y2="-12.207979" />
      <line x1="-21.57776" y1="8.133802" x2="-16.285715" y2="7.814422" />
      <line x1="-7.46564" y1="7.282124" x2="-2.173595" y2="6.962745" />
      <line x1="-2.48579" y1="39.620874" x2="2.806255" y2="39.301495" />
      <line x1="-26.552285" y1="17.570859" x2="-21.26024" y2="17.25148" />
      <line x1="-23.220148" y1="35.237158" x2="-17.928103" y2="34.917779" />
      <line x1="11.62633" y1="38.769196" x2="16.918375" y2="38.449817" />
      <line x1="-9.108028" y1="34.38548" x2="-3.815983" y2="34.066101" />
      <line x1="-12.440165" y1="16.719182" x2="-7.14812" y2="16.399802" />
      <line x1="-13.756587" y1="-31.198128" x2="17.995682" y2="-33.114403" />
      <line x1="12.746859" y1="-2.743049" x2="19.802919" y2="-3.168888" />
      <path d="M 12.310302,-2.635847 C 12.309768,-2.635691 12.357386,-2.662796 12.438268,-2.687795 C 12.518538,-2.713308 12.632071,-2.736714 12.746859,-2.743049" />
      <line x1="3.408667" y1="39.347336" x2="-1.883378" y2="39.666715" />
      <line x1="17.520787" y1="38.495658" x2="12.228742" y2="38.815037" />
    </g>
    <g fill="none" stroke="rgb(99,99,99)" stroke-width="0.04367464761114838" id="Hidden" stroke-dasharray="0.001109 0.131579">
      <path d="M 18.911772,-16.221358 A 15.0,7.023290623749474 -93.45365782004791 0,1 12.746859,-2.743049" />
      <path d="M -13.756587,-31.198128 A 15.0,7.023290623749474 -93.45365782004791 0,1 -5.784438,-14.730922" />
      <line x1="-5.784438" y1="-14.730922" x2="18.911772" y2="-16.221358" />
      <line x1="18.911772" y1="-16.221358" x2="25.967832" y2="-16.647197" />
      <path d="M 13.697546,-2.800424 C 13.83395,-4.147533 14.136599,-5.478855 14.539227,-6.771628" />
      <path d="M 14.539227,-6.771628 C 14.903035,-7.938918 15.348843,-9.076665 15.841364,-10.188755 C 16.759734,-12.260604 17.837518,-14.242331 18.911772,-16.221358" />
      <line x1="-5.784438" y1="-14.730922" x2="-5.784438" y2="3.041897" />
      <path d="M -4.128178,11.823041 A 12.0,5.618632498999579 -93.45365782004791 0,1 -5.784438,3.041897" />
      <line x1="-4.128178" y1="11.823041" x2="0.846347" y2="23.363555" />
      <path d="M -1.883378,39.666715 A 10.0,4.6821937491663155 86.5463421799521 0,0 0.846347,23.363555" />
      <path d="M -13.79544,-10.803981 A 6.0,2.809316249499789 -93.45365782004791 0,1 -13.214416,-22.214474" />
      <path d="M -13.214416,-22.214474 A 6.0,2.809316249499789 -93.45365782004791 0,1 -11.910498,-10.405462" />
      <line x1="-11.910498" y1="-10.405462" x2="-11.910498" y2="-7.083713" />
      <line x1="-13.79544" y1="-7.482233" x2="-11.910498" y2="-7.083713" />
      <line x1="-13.79544" y1="-10.803981" x2="-13.79544" y2="-7.482233" />
      <path d="M -26.283178,24.653566 A 6.5,3.0434259369581054 86.5463421799521 0,0 -22.82858,31.789355" />
      <path d="M -22.82858,31.789355 A 6.5,3.0434259369581054 86.5463421799521 0,0 -20.381757,28.328963" />
      <path d="M -20.766493,21.953979 A 6.5,3.0434259369581054 86.5463421799521 0,0 -23.611715,18.812965" />
      <path d="M -23.611715,18.812965 A 6.5,3.0434259369581054 86.5463421799521 0,0 -26.283178,24.653566" />
      <path d="M 0.57724,30.332471 A 6.5,3.0434259369581054 -93.45365782004791 0,1 -2.094222,36.173072" />
      <path d="M -2.094222,36.173072 A 6.500000488064928,3.043426165479561 -93.45365782004791 0,1 -2.877358,23.196681" />
      <path d="M -2.877358,23.196681 A 6.5,3.0434259369581054 -93.45365782004791 0,1 0.57724,30.332471" />
      <line x1="8.327682" y1="2.190219" x2="13.619727" y2="1.87084" />
      <line x1="8.327682" y1="2.190219" x2="8.327682" y2="-3.659403" />
      <line x1="-0.492393" y1="-3.127104" x2="8.327682" y2="-3.659403" />
      <line x1="-0.492393" y1="2.722517" x2="-0.492393" y2="-3.127104" />
      <line x1="-5.784438" y1="3.041897" x2="-0.492393" y2="2.722517" />
      <line x1="-5.80938" y1="-4.251236" x2="-0.492393" y2="-3.127104" />
      <path d="M -0.492393,2.722517 A 12.0,5.618632498999579 86.5463421799521 0,0 1.163867,11.503662" />
      <line x1="1.163867" y1="11.503662" x2="6.138392" y2="23.044176" />
      <path d="M 6.138392,23.044176 A 10.0,4.6821937491663155 -93.45365782004791 0,1 5.8758,37.553403" />
      <path d="M 5.869285,30.013092 A 6.5,3.0434259369581054 86.5463421799521 0,0 2.414687,22.877302" />
      <path d="M 2.414687,22.877302 A 6.5,3.0434259369581054 86.5463421799521 1,0 3.197823,35.853692" />
      <path d="M 3.197823,35.853692 A 6.5,3.0434259369581054 86.5463421799521 0,0 5.869285,30.013092" />
      <line x1="-5.80938" y1="-6.6483" x2="8.327682" y2="-3.659403" />
      <path d="M 8.327682,2.190219 A 12.0,5.618632498999579 86.5463421799521 0,0 9.983942,10.971363" />
      <line x1="9.983942" y1="10.971363" x2="14.958467" y2="22.511877" />
      <path d="M 12.228742,38.815037 A 10.0,4.6821937491663155 86.5463421799521 0,0 14.958467,22.511877" />
      <path d="M -12.171058,23.801888 A 6.5,3.0434259369581054 86.5463421799521 0,0 -8.71646,30.937678" />
      <path d="M -8.71646,30.937678 A 6.5,3.0434259369581054 86.5463421799521 0,0 -6.269638,27.477285" />
      <path d="M -6.654373,21.102301 A 6.5,3.0434259369581054 86.5463421799521 0,0 -9.499596,17.961288" />
      <path d="M -9.499596,17.961288 A 6.5,3.0434259369581054 86.5463421799521 0,0 -12.171058,23.801888" />
      <path d="M 14.079984,25.486017 A 6.5,3.0434259369581054 86.5463421799521 0,0 11.234762,22.345004" />
      <path d="M 11.234762,22.345004 A 6.5,3.0434259369581054 86.5463421799521 1,0 12.017898,35.321394" />
      <path d="M 12.017898,35.321394 A 6.5,3.0434259369581054 86.5463421799521 0,0 14.46472,31.861001" />
      <line x1="17.95683" y1="-12.720257" x2="-13.79544" y2="-10.803981" />
      <line x1="17.95683" y1="-12.207979" x2="-11.910498" y2="-10.405462" />
      <line x1="19.841771" y1="-8.999988" x2="-11.910498" y2="-7.083713" />
      <line x1="17.95683" y1="-9.398508" x2="-13.79544" y2="-7.482233" />
      <path d="M 14.539227,-6.771628 C 14.251402,-5.84729 13.923903,-5.041243 13.596763,-4.402895 C 13.271088,-3.76357 12.945771,-3.291944 12.70184,-3.010071 C 12.459078,-2.726196 12.308042,-2.633487 12.310302,-2.635847" />
      <line x1="-13.214416" y1="-22.214474" x2="18.537853" y2="-24.130749" />
      <line x1="-17.536535" y1="31.469976" x2="-22.82858" y2="31.789355" />
      <line x1="-18.319671" y1="18.493586" x2="-23.611715" y2="18.812965" />
      <line x1="3.197823" y1="35.853692" x2="-2.094222" y2="36.173072" />
      <line x1="2.414687" y1="22.877302" x2="-2.877358" y2="23.196681" />
      <line x1="-3.424415" y1="30.618298" x2="-8.71646" y2="30.937678" />
      <line x1="-4.207551" y1="17.641908" x2="-9.499596" y2="17.961288" />
      <line x1="17.309942" y1="35.002014" x2="12.017898" y2="35.321394" />
      <line x1="16.526807" y1="22.025624" x2="11.234762" y2="22.345004" />
      <line x1="-4.128178" y1="11.823041" x2="1.163867" y2="11.503662" />
      <line x1="0.846347" y1="23.363555" x2="6.138392" y2="23.044176" />
      <line x1="9.983942" y1="10.971363" x2="15.275987" y2="10.651984" />
      <line x1="14.958467" y1="22.511877" x2="20.250512" y2="22.192498" />
    </g>
  </g>
</svg>