<?xml version='1.0' encoding='utf-8'?>
<svg width="180.09mm" height="139.298646mm" viewBox="-57.932574 -46.504155 115.865147 89.621068" version="1.1" xmlns="http://www.w3.org/2000/svg">
  <g transform="scale(1,-1)" stroke-linecap="round">
    <g fill="rgb(30,30,46)" stroke="none" stroke-width="0.05790362168946939">
      <path d="M -57.903622,43.087962 L -57.903622,-43.087962 L 57.903622,-43.087962 L 57.903622,43.087962 L -57.903622,43.087962" />
    </g>
    <g fill="none" stroke="rgb(200,200,200)" stroke-width="0.05790362168946939" id="Visible">
      <line x1="-5.524395" y1="-25.266769" x2="-14.177721" y2="-24.824508" />
      <line x1="-14.177721" y1="-24.824508" x2="-10.180921" y2="-17.059986" />
      <line x1="-10.180921" y1="-17.059986" x2="-33.750509" y2="-15.855373" />
      <line x1="-33.750509" y1="-15.855373" x2="-29.753708" y2="-24.028438" />
      <line x1="-29.753708" y1="-24.028438" x2="-38.407035" y2="-23.586177" />
      <line x1="-33.215039" y1="17.984632" x2="-38.407035" y2="18.249988" />
      <line x1="-33.215039" y1="-8.910046" x2="-33.215039" y2="17.984632" />
      <line x1="-10.716391" y1="-10.059924" x2="-33.215039" y2="-8.910046" />
      <line x1="-10.716391" y1="-10.059924" x2="-10.716391" y2="16.834753" />
      <line x1="-10.716391" y1="16.834753" x2="-5.524395" y2="16.569397" />
      <path d="M 54.298185,-17.209147 A 6.0,0.5294445049724129 0.0 0,1 55.10619,-16.94379" />
      <line x1="2.674789" y1="-25.073979" x2="54.298185" y2="-17.209147" />
      <path d="M -5.524395,-25.266769 A 6.0,0.5294445049724129 0.0 0,1 2.674789,-25.073979" />
      <line x1="-29.753708" y1="-24.028438" x2="-12.40762" y2="-21.385759" />
      <path d="M -41.399846,-23.128031 A 6.0,0.5294445049724129 0.0 0,1 -38.407035,-23.586177" />
      <path d="M -40.591842,35.521933 C -41.194514,33.977322 -41.396965,32.371731 -41.399846,30.771602" />
      <path d="M -41.399846,30.771602 C -41.398209,29.158645 -41.187965,27.554652 -40.85545,25.956751 C -40.310306,23.36011 -39.443305,20.791287 -38.407035,18.249988" />
      <path d="M -8.275058,32.298994 A 26.0,12.980316444573745 -92.92577139833676 0,1 -18.856794,45.936038" />
      <path d="M -18.856794,45.936038 A 26.0,12.980316444573745 -92.92577139833676 0,1 -33.215039,17.984632" />
      <path d="M -40.591842,35.521933 A 26.0,12.980316444573745 87.07422860166324 0,0 -29.240786,46.466751" />
      <line x1="-33.215039" y1="-8.910046" x2="-10.716391" y2="-5.482373" />
      <path d="M -26.198267,19.053638 A 12.0,5.990915282110959 87.07422860166324 0,0 -19.571384,31.954287" />
      <path d="M -19.571384,31.954287 A 12.000000011341672,5.990915287773208 87.07422860166324 0,0 -20.796396,7.985571" />
      <path d="M -20.796396,7.985571 A 12.0,5.990915282110959 87.07422860166324 0,0 -26.198267,19.053638" />
      <line x1="29.326698" y1="-5.886111" x2="30.24068" y2="-5.932824" />
      <line x1="30.24068" y1="-5.932824" x2="54.298185" y2="-2.267659" />
      <path d="M 52.113378,-1.544157 A 6.0,0.5294445049724129 180.0 0,0 55.10619,-2.002302" />
      <path d="M 55.10619,-2.002302 A 6.0,0.5294445049724129 180.0 0,0 54.298185,-2.267659" />
      <line x1="52.113378" y1="-1.544157" x2="25.92064" y2="-0.205478" />
      <line x1="-16.632552" y1="-7.616119" x2="-10.716391" y2="-6.714791" />
      <path d="M 26.160669,-1.412774 A 6.0,0.5294445049724129 180.0 0,0 33.65289,-1.925583" />
      <path d="M 33.65289,-1.925583 A 6.0,0.5294445049724129 180.0 0,0 32.844885,-2.190939" />
      <line x1="32.844885" y1="-2.190939" x2="26.726197" y2="-3.123123" />
      <path d="M -10.716391,-8.40705 A 6.0,0.5294445049724129 180.0 0,0 -17.440556,-7.881476" />
      <path d="M -17.440556,-7.881476 A 6.0,0.5294445049724129 180.0 0,0 -16.632552,-7.616119" />
      <path d="M -10.716391,16.834753 A 26.0,12.980316444573745 87.07422860166324 0,0 3.641854,44.78616" />
      <path d="M 6.275691,28.418429 A 12.0,5.990915282110959 87.07422860166324 0,0 5.276486,8.867864" />
      <path d="M 2.674789,33.310628 A 26.0,12.980316444573745 87.07422860166324 0,0 14.025845,44.255447" />
      <path d="M 14.025845,44.255447 A 26.0,12.980316444573745 87.07422860166324 0,0 25.729898,20.274636" />
      <path d="M -5.524395,16.569397 C -4.473792,19.033926 -3.237769,21.525841 -1.921735,24.059712 C -1.377057,25.104873 -0.826236,26.156574 -0.269275,27.214817 C 0.285161,28.273562 0.841675,29.342455 1.367182,30.410169 C 1.84355,31.379991 2.298044,32.353677 2.674789,33.310628" />
      <path d="M 25.729898,2.34485 A 9.0,4.493186461583219 -92.92577139833676 0,1 29.781301,-5.9562" />
      <path d="M 29.781301,-5.9562 A 9.0,4.493186461583219 -92.92577139833676 0,1 30.24068,-5.932824" />
      <line x1="25.729898" y1="20.274636" x2="25.729898" y2="2.34485" />
      <path d="M 21.219116,19.587417 A 17.0,8.487129982990526 -92.92577139833676 0,1 13.566466,35.267178" />
      <path d="M 13.566466,35.267178 A 17.0,8.487129982990526 -92.92577139833676 0,1 11.831033,1.311497" />
      <path d="M 11.831033,1.311497 A 17.0,8.487129982990526 -92.92577139833676 0,1 21.219116,19.587417" />
      <path d="M -22.047515,21.798722 A 17.0,8.487129982990526 87.07422860166324 0,0 -24.128748,10.392142" />
      <path d="M -23.131726,29.899994 A 17.0,8.487129982990526 87.07422860166324 0,0 -22.047515,21.798722" />
      <path d="M -23.145618,29.922116 A 12.0,5.990915282110959 87.07422860166324 0,0 -24.144823,10.371551" />
      <path d="M 6.259616,28.397839 A 12.0,5.990915282110959 87.07422860166324 0,0 9.849925,30.4506" />
      <path d="M 9.849925,30.4506 A 12.000000011341672,5.990915287773208 87.07422860166324 0,0 8.624913,6.481884" />
      <path d="M 8.624913,6.481884 A 12.0,5.990915282110959 87.07422860166324 0,0 5.262593,8.889986" />
      <path d="M 17.757785,19.764322 A 17.0,8.487129982990526 -92.92577139833676 0,1 11.81752,34.997955" />
      <path d="M 10.118648,1.757625 A 17.0,8.487129982990526 -92.92577139833676 0,1 17.757785,19.764322" />
      <line x1="-38.407035" y1="-23.586177" x2="-38.407035" y2="18.249988" />
      <line x1="-5.524395" y1="-25.266769" x2="-5.524395" y2="16.569397" />
      <line x1="2.674789" y1="-25.073979" x2="2.674789" y2="33.310628" />
      <line x1="54.298185" y1="-17.209147" x2="54.298185" y2="-2.267659" />
      <line x1="-16.632552" y1="-8.146832" x2="-16.632552" y2="-7.616119" />
      <line x1="-41.399846" y1="30.771602" x2="-41.399846" y2="-23.128031" />
      <line x1="-29.240786" y1="46.466751" x2="-18.856794" y2="45.936038" />
      <line x1="14.025845" y1="44.255447" x2="3.641854" y2="44.78616" />
      <line x1="55.10619" y1="-2.002302" x2="55.10619" y2="-16.94379" />
    </g>
    <g fill="none" stroke="rgb(99,99,99)" stroke-width="0.05790362168946939" id="Hidden" stroke-dasharray="0.001471 0.174446">
      <line x1="-14.177721" y1="-24.824508" x2="43.460052" y2="-16.043384" />
      <line x1="52.113378" y1="-16.485645" x2="43.460052" y2="-16.043384" />
      <path d="M 55.10619,-16.94379 A 6.0,0.5294445049724129 0.0 0,1 52.113378,-16.485645" />
      <line x1="-10.180921" y1="-17.059986" x2="47.456852" y2="-8.278862" />
      <line x1="43.460052" y1="-16.043384" x2="47.456852" y2="-8.278862" />
      <line x1="47.456852" y1="-8.278862" x2="23.887264" y2="-7.074249" />
      <line x1="-33.750509" y1="-15.855373" x2="23.887264" y2="-7.074249" />
      <path d="M -6.248561,-15.119526 A 6.0,0.5294445049724129 180.0 0,0 -17.440556,-14.85417" />
      <path d="M -17.440556,-14.85417 A 6.0,0.5294445049724129 180.0 0,0 -16.632552,-14.588813" />
      <line x1="32.844885" y1="-9.163634" x2="-6.248561" y2="-15.119526" />
      <path d="M 22.460894,-8.63292 A 6.0,0.5294445049724129 180.0 0,0 33.65289,-8.898277" />
      <path d="M 33.65289,-8.898277 A 6.0,0.5294445049724129 180.0 0,0 32.844885,-9.163634" />
      <line x1="-16.632552" y1="-14.588813" x2="22.460894" y2="-8.63292" />
      <line x1="-12.40762" y1="-21.385759" x2="27.884064" y2="-15.247314" />
      <line x1="23.887264" y1="-7.074249" x2="27.884064" y2="-15.247314" />
      <path d="M -40.591842,-22.862675 A 6.0,0.5294445049724129 0.0 0,1 -41.399846,-23.128031" />
      <line x1="-40.591842" y1="-22.862675" x2="11.031554" y2="-14.997842" />
      <path d="M 19.230738,-14.805053 A 6.0,0.5294445049724129 0.0 0,1 11.031554,-14.997842" />
      <line x1="27.884064" y1="-15.247314" x2="19.230738" y2="-14.805053" />
      <path d="M -7.152742,21.955227 A 26.0,12.980316444573745 -92.92577139833676 0,1 -8.275058,32.298994" />
      <path d="M -29.240786,46.466751 A 26.0,12.980316444573745 87.07422860166324 0,0 -17.536733,22.48594" />
      <line x1="-7.152742" y1="21.955227" x2="-7.152742" y2="4.025442" />
      <path d="M -7.152742,4.025442 A 9.0,4.493186461583219 -92.92577139833676 0,1 -3.101339,-4.275608" />
      <path d="M -3.101339,-4.275608 A 9.0,4.493186461583219 -92.92577139833676 0,1 -2.641959,-4.252232" />
      <line x1="-10.716391" y1="-5.482373" x2="-2.641959" y2="-4.252232" />
      <line x1="-10.716391" y1="-10.059924" x2="19.856689" y2="-5.402111" />
      <line x1="19.856689" y1="-5.402111" x2="29.326698" y2="-5.886111" />
      <line x1="25.92064" y1="-0.205478" x2="19.230738" y2="0.136435" />
      <path d="M 11.031554,-0.056355 A 6.0,0.5294445049724129 180.0 0,0 19.230738,0.136435" />
      <line x1="-13.025951" y1="-3.721519" x2="11.031554" y2="-0.056355" />
      <line x1="-2.641959" y1="-4.252232" x2="-13.025951" y2="-3.721519" />
      <line x1="-10.716391" y1="-6.714791" x2="22.460894" y2="-1.660226" />
      <path d="M 22.460894,-1.660226 A 6.0,0.5294445049724129 180.0 0,0 26.160669,-1.412774" />
      <line x1="26.726197" y1="-3.123123" x2="-6.248561" y2="-8.146832" />
      <path d="M -6.248561,-8.146832 A 6.0,0.5294445049724129 180.0 0,0 -10.716391,-8.40705" />
      <path d="M 3.641854,44.78616 A 26.0,12.980316444573745 87.07422860166324 0,0 15.345907,20.805349" />
      <line x1="15.345907" y1="2.875563" x2="15.345907" y2="20.805349" />
      <path d="M 19.856689,-5.402111 A 9.0,4.493186461583219 87.07422860166324 0,0 19.397309,-5.425487" />
      <path d="M 19.397309,-5.425487 A 9.0,4.493186461583219 87.07422860166324 0,0 15.345907,2.875563" />
      <path d="M -3.699618,17.90376 A 12.0,5.990915282110959 87.07422860166324 0,0 2.927264,30.804409" />
      <path d="M 2.927264,30.804409 A 12.0,5.990915282110959 87.07422860166324 0,0 6.275691,28.418429" />
      <path d="M 5.276486,8.867864 A 12.0,5.990915282110959 87.07422860166324 0,0 1.702252,6.835693" />
      <path d="M 1.702252,6.835693 A 12.0,5.990915282110959 87.07422860166324 0,0 -3.699618,17.90376" />
      <path d="M -17.536733,4.556155 A 9.0,4.493186461583219 -92.92577139833676 0,1 -13.48533,-3.744895" />
      <path d="M -13.48533,-3.744895 A 9.0,4.493186461583219 -92.92577139833676 0,1 -13.025951,-3.721519" />
      <line x1="-17.536733" y1="22.48594" x2="-17.536733" y2="4.556155" />
      <path d="M -24.128748,10.392142 A 17.0,8.487129982990526 87.07422860166324 0,0 -31.435598,3.522802" />
      <path d="M -31.435598,3.522802 A 17.0,8.487129982990526 87.07422860166324 0,0 -29.700165,37.478483" />
      <path d="M -29.700165,37.478483 A 17.0,8.487129982990526 87.07422860166324 0,0 -23.131726,29.899994" />
      <path d="M -33.120927,19.407447 A 12.0,5.990915282110959 87.07422860166324 0,0 -26.494045,32.308096" />
      <path d="M -26.494045,32.308096 A 12.0,5.990915282110959 87.07422860166324 0,0 -23.145618,29.922116" />
      <path d="M -24.144823,10.371551 A 12.0,5.990915282110959 87.07422860166324 0,0 -27.719057,8.33938" />
      <path d="M -27.719057,8.33938 A 12.0,5.990915282110959 87.07422860166324 0,0 -33.120927,19.407447" />
      <path d="M 3.223042,17.549951 A 12.0,5.990915282110959 87.07422860166324 0,0 6.259616,28.397839" />
      <path d="M 5.262593,8.889986 A 12.0,5.990915282110959 87.07422860166324 0,0 3.223042,17.549951" />
      <path d="M 11.81752,34.997955 A 17.0,8.487129982990526 -92.92577139833676 0,1 10.105135,35.444083" />
      <path d="M 10.105135,35.444083 A 17.0,8.487129982990526 -92.92577139833676 0,1 8.369702,1.488402" />
      <path d="M 8.369702,1.488402 A 17.0,8.487129982990526 -92.92577139833676 0,1 10.118648,1.757625" />
      <path d="M -18.586185,21.621817 A 17.0,8.487129982990526 -92.92577139833676 0,1 -26.238835,37.301579" />
      <path d="M -26.238835,37.301579 A 17.0,8.487129982990526 -92.92577139833676 0,1 -27.974268,3.345898" />
      <path d="M -27.974268,3.345898 A 17.0,8.487129982990526 -92.92577139833676 0,1 -18.586185,21.621817" />
      <line x1="-17.440556" y1="-7.881476" x2="-17.440556" y2="-14.85417" />
      <line x1="33.65289" y1="-1.925583" x2="33.65289" y2="-8.898277" />
      <line x1="-13.48533" y1="-3.744895" x2="-3.101339" y2="-4.275608" />
      <line x1="-27.719057" y1="8.33938" x2="-20.796396" y2="7.985571" />
      <line x1="-26.494045" y1="32.308096" x2="-19.571384" y2="31.954287" />
      <line x1="29.781301" y1="-5.9562" x2="19.397309" y2="-5.425487" />
      <line x1="9.849925" y1="30.4506" x2="2.927264" y2="30.804409" />
      <line x1="8.624913" y1="6.481884" x2="1.702252" y2="6.835693" />
      <line x1="8.369702" y1="1.488402" x2="11.831033" y2="1.311497" />
      <line x1="10.105135" y1="35.444083" x2="13.566466" y2="35.267178" />
      <line x1="-26.238835" y1="37.301579" x2="-29.700165" y2="37.478483" />
      <line x1="-27.974268" y1="3.345898" x2="-31.435598" y2="3.522802" />
      <line x1="-40.591842" y1="-22.862675" x2="-40.591842" y2="35.521933" />
      <line x1="-7.152742" y1="21.955227" x2="-17.536733" y2="22.48594" />
      <line x1="15.345907" y1="20.805349" x2="25.729898" y2="20.274636" />
      <line x1="52.113378" y1="-16.485645" x2="52.113378" y2="-1.544157" />
      <line x1="19.230738" y1="-14.805053" x2="19.230738" y2="0.136435" />
      <line x1="-16.632552" y1="-14.588813" x2="-16.632552" y2="-8.146832" />
      <line x1="-6.248561" y1="-15.119526" x2="-6.248561" y2="-8.146832" />
      <line x1="32.844885" y1="-9.163634" x2="32.844885" y2="-2.190939" />
      <line x1="22.460894" y1="-8.63292" x2="22.460894" y2="-1.660226" />
      <line x1="11.031554" y1="-14.997842" x2="11.031554" y2="-0.056355" />
      <line x1="-7.152742" y1="4.025442" x2="-17.536733" y2="4.556155" />
      <line x1="15.345907" y1="2.875563" x2="25.729898" y2="2.34485" />
    </g>
  </g>
</svg>