<?xml version='1.0' encoding='utf-8'?>
<svg width="155.707417mm" height="182.142659mm" viewBox="-29.24732 -34.598347 58.494639 68.425572" version="1.1" xmlns="http://www.w3.org/2000/svg">
  <g transform="scale(1,-1)" stroke-linecap="round">
    <g fill="rgb(30,30,46)" stroke="none" stroke-width="0.03381031936329811">
      <path d="M -29.230414,33.810319 L -29.230414,-33.810319 L 29.230414,-33.810319 L 29.230414,33.810319 L -29.230414,33.810319" />
    </g>
    <g fill="none" stroke="rgb(200,200,200)" stroke-width="0.03381031936329811" id="Visible">
      <line x1="-2.94893" y1="0.352496" x2="-2.94893" y2="11.137712" />
      <path d="M -2.94893,0.352496 A 7.0,2.2156661895356082 -93.83734667258368 0,1 -1.157609,-5.328977" />
      <path d="M -1.157609,-5.328977 A 7.0,2.2156661895356082 -93.83734667258368 0,1 -0.689139,-5.207989" />
      <line x1="-7.468511" y1="8.532045" x2="-2.94893" y2="11.137712" />
      <line x1="-0.689139" y1="-5.207989" x2="15.129395" y2="3.911846" />
      <line x1="-7.468511" y1="-7.155542" x2="-7.468511" y2="8.532045" />
      <path d="M 17.389185,12.077999 A 7.0,2.2156661895356082 86.16265332741634 0,0 15.129395,3.911846" />
      <path d="M -7.468511,-7.155542 A 18.0,5.697427344520136 -93.83734667258368 0,1 -2.862258,-21.765043" />
      <path d="M -2.862258,-21.765043 A 18.0,5.697427344520136 -93.83734667258368 0,1 -1.657621,-21.453933" />
      <line x1="17.389185" y1="12.077999" x2="17.389185" y2="22.863214" />
      <line x1="-1.657621" y1="-21.453933" x2="17.389185" y2="-10.472907" />
      <line x1="17.389185" y1="22.863214" x2="23.200075" y2="26.213358" />
      <path d="M 17.389185,-10.472907 A 18.0,5.697427344520136 -93.83734667258368 0,1 23.200075,10.525771" />
      <line x1="23.200075" y1="10.525771" x2="23.200075" y2="26.213358" />
      <path d="M -14.51632,18.576247 A 8.0,7.423820142332838 -60.0353264792467 0,0 -2.94893,11.137712" />
      <path d="M -7.468511,8.532045 A 8.0,7.423820142332838 -60.0353264792467 0,0 -11.044446,2.109243" />
      <path d="M -17.945619,-0.478954 A 8.0,7.423820142332838 -60.0353264792467 0,0 -21.941347,14.295508" />
      <path d="M -21.941347,14.295508 A 8.00000050667975,7.423820612520255 -60.0353264792467 0,0 -13.949891,0.434171" />
      <path d="M -13.949891,0.434171 A 8.0,7.423820142332838 -60.0353264792467 0,0 -17.945619,-0.478954" />
      <line x1="-2.94893" y1="3.23547" x2="-0.013932" y2="4.927579" />
      <line x1="-22.611837" y1="1.500587" x2="-22.611837" y2="-6.139808" />
      <line x1="17.389185" y1="12.077999" x2="2.245858" y2="13.093732" />
      <path d="M 2.245858,13.093732 A 7.0,2.2156661895356082 86.16265332741634 0,0 -0.013932,4.927579" />
      <path d="M -22.611837,-6.139808 A 18.0,5.697427344520136 -93.83734667258368 0,1 -18.005584,-20.74931" />
      <path d="M 2.245858,23.878948 A 8.0,7.423820142332838 -60.0353264792467 0,0 5.821794,30.301749" />
      <path d="M 5.821794,30.301749 A 8.0,7.423820142332838 -60.0353264792467 0,0 17.389185,22.863214" />
      <line x1="2.245858" y1="13.093732" x2="2.245858" y2="23.878948" />
      <path d="M 9.817522,26.067385 A 2.75,2.551938173926913 -60.03532647924673 0,0 11.191053,20.988664" />
      <path d="M 11.191053,20.988664 A 2.75,2.551938173926913 -60.03532647924673 0,0 8.44399,25.753498" />
      <path d="M 8.44399,25.753498 A 2.75,2.551938173926913 -60.03532647924673 0,0 9.817522,26.067385" />
      <path d="M 11.632684,33.651893 A 8.0,7.423820142332838 -60.0353264792467 0,0 23.200075,26.213358" />
      <path d="M -17.025561,10.591583 A 2.75,2.551938173926913 -60.03532647924673 0,0 -15.65203,5.512862" />
      <path d="M -15.65203,5.512862 A 2.75,2.551938173926913 -60.03532647924673 0,0 -18.399093,10.277696" />
      <path d="M -18.399093,10.277696 A 2.75,2.551938173926913 -60.03532647924673 0,0 -17.025561,10.591583" />
      <path d="M -17.945619,12.855495 A 5.60000028395152,5.196674363133613 -60.03532647924673 0,0 -17.945619,1.874184 A 5.60000028395152,5.196674363133613 -60.03532647924673 0,0 -17.945619,12.855495" />
      <line x1="-1.605725" y1="-5.14651" x2="-0.689139" y2="-5.207989" />
      <line x1="15.129395" y1="3.911846" x2="-0.013932" y2="4.927579" />
      <line x1="-7.468511" y1="-7.155542" x2="-22.611837" y2="-6.139808" />
      <line x1="-13.949891" y1="0.434171" x2="-11.044446" y2="2.109243" />
      <line x1="-21.941347" y1="14.295508" x2="-14.51632" y2="18.576247" />
      <line x1="-2.862258" y1="-21.765043" x2="-18.005584" y2="-20.74931" />
      <line x1="5.821794" y1="30.301749" x2="11.632684" y2="33.651893" />
    </g>
    <g fill="none" stroke="rgb(99,99,99)" stroke-width="0.03381031936329811" id="Hidden" stroke-dasharray="0.000859 0.10186">
      <line x1="-18.092256" y1="1.36823" x2="-2.94893" y2="0.352496" />
      <path d="M -18.092256,12.153445 A 8.0,7.423820142332838 -60.0353264792467 0,0 -14.51632,18.576247" />
      <line x1="-18.092256" y1="1.36823" x2="-18.092256" y2="12.153445" />
      <path d="M -10.520593,14.341882 A 2.75,2.551938173926913 -60.03532647924673 0,0 -9.147062,9.263161" />
      <path d="M -9.147062,9.263161 A 2.7500001004122314,2.5519382671072064 -60.03532647924673 0,0 -11.894124,14.027996" />
      <path d="M -11.894124,14.027996 A 2.75,2.551938173926913 -60.03532647924673 0,0 -10.520593,14.341882" />
      <path d="M -18.092256,1.36823 A 7.0,2.2156661895356082 -93.83734667258368 0,1 -16.300936,-4.313243" />
      <path d="M -16.300936,-4.313243 A 7.0,2.2156661895356082 -93.83734667258368 0,1 -15.832466,-4.192256" />
      <path d="M -11.044446,2.109243 A 8.0,7.423820142332838 -60.0353264792467 0,0 -15.040174,1.196118" />
      <path d="M -15.040174,1.196118 A 8.0,7.423820142332838 -60.0353264792467 0,0 -22.611837,9.547778" />
      <line x1="-22.611837" y1="9.547778" x2="-18.092256" y2="12.153445" />
      <line x1="-15.832466" y1="-4.192256" x2="-2.94893" y2="3.23547" />
      <line x1="-22.611837" y1="9.547778" x2="-22.611837" y2="1.500587" />
      <path d="M -18.005584,-20.74931 A 18.0,5.697427344520136 -93.83734667258368 0,1 -16.800947,-20.438199" />
      <line x1="-16.800947" y1="-20.438199" x2="2.245858" y2="-9.457173" />
      <path d="M 8.056748,27.229091 A 8.0,7.423820142332838 -60.0353264792467 0,0 11.632684,33.651893" />
      <line x1="2.245858" y1="23.878948" x2="8.056748" y2="27.229091" />
      <line x1="23.200075" y1="10.525771" x2="8.056748" y2="11.541505" />
      <path d="M 2.245858,-9.457173 A 18.0,5.697427344520136 -93.83734667258368 0,1 8.056748,11.541505" />
      <line x1="8.056748" y1="27.229091" x2="8.056748" y2="11.541505" />
      <path d="M 15.628412,29.417528 A 2.75,2.551938173926913 -60.03532647924673 0,0 17.001943,24.338807" />
      <path d="M 17.001943,24.338807 A 2.75000035014516,2.5519384988537497 -60.03532647924673 0,0 14.25488,29.103642" />
      <path d="M 14.25488,29.103642 A 2.75,2.551938173926913 -60.03532647924673 0,0 15.628412,29.417528" />
      <line x1="-16.300936" y1="-4.313243" x2="-1.157609" y2="-5.328977" />
      <line x1="-15.65203" y1="5.512862" x2="-9.147062" y2="9.263161" />
      <line x1="-18.399093" y1="10.277696" x2="-11.894124" y2="14.027996" />
      <line x1="11.191053" y1="20.988664" x2="17.001943" y2="24.338807" />
      <line x1="8.44399" y1="25.753498" x2="14.25488" y2="29.103642" />
      <line x1="-15.832466" y1="-4.192256" x2="-1.605725" y2="-5.14651" />
      <line x1="-1.657621" y1="-21.453933" x2="-16.800947" y2="-20.438199" />
      <line x1="17.389185" y1="-10.472907" x2="2.245858" y2="-9.457173" />
    </g>
  </g>
</svg>