<?xml version='1.0' encoding='utf-8'?>
<svg width="100.089999mm" height="32.651195mm" viewBox="-29.095046 -9.491338 58.190091 18.982676" version="1.1" xmlns="http://www.w3.org/2000/svg">
  <g transform="scale(1,-1)" stroke-linecap="round">
    <g fill="none" stroke="rgb(0,0,0)" stroke-width="0.05232399067349508" id="Visible">
      <line x1="24.596748" y1="0.193167" x2="2.236068" y2="3.09067" />
      <line x1="2.236068" y1="-5.119924" x2="2.236068" y2="3.09067" />
      <line x1="-6.708204" y1="-3.960923" x2="2.236068" y2="-5.119924" />
      <line x1="-16.830457" y1="5.561315" x2="-29.068884" y2="7.147174" />
      <line x1="-29.068884" y1="-2.511169" x2="-29.068884" y2="7.147174" />
      <line x1="24.596748" y1="-9.465176" x2="-29.068884" y2="-2.511169" />
      <line x1="24.596748" y1="-9.465176" x2="24.596748" y2="0.193167" />
      <line x1="4.866415" y1="4.454034" x2="2.236068" y2="3.09067" />
      <line x1="-29.068884" y1="7.147174" x2="-24.596748" y2="9.465176" />
      <line x1="29.068884" y1="2.511169" x2="-3.770987" y2="6.766568" />
      <line x1="-16.390211" y1="8.401771" x2="-24.596748" y2="9.465176" />
      <line x1="24.596748" y1="0.193167" x2="29.068884" y2="2.511169" />
      <line x1="4.866415" y1="4.454034" x2="-7.370383" y2="7.730252" />
      <line x1="-8.899944" y1="-2.138425" x2="-7.370383" y2="7.730252" />
      <line x1="2.236068" y1="-5.119924" x2="-8.899944" y2="-2.138425" />
      <line x1="-8.899944" y1="-2.138425" x2="-17.844216" y2="-0.979423" />
      <line x1="-6.708204" y1="-3.960923" x2="-17.844216" y2="-0.979423" />
      <line x1="-17.844216" y1="-0.979423" x2="-16.314655" y2="8.889253" />
      <line x1="24.596748" y1="-9.465176" x2="29.068884" y2="-7.147174" />
      <line x1="29.068884" y1="-7.147174" x2="29.068884" y2="2.511169" />
      <line x1="-7.370383" y1="7.730252" x2="-16.314655" y2="8.889253" />
      <line x1="7.370383" y1="-7.730252" x2="3.770987" y2="-6.766568" />
      <line x1="16.314655" y1="-8.889253" x2="12.715259" y2="-7.925569" />
      <line x1="16.314655" y1="-8.889253" x2="7.370383" y2="-7.730252" />
      <line x1="16.314655" y1="-8.889253" x2="16.390211" y2="-8.401771" />
    </g>
    <g fill="none" stroke="rgb(99,99,99)" stroke-width="0.05232399067349508" id="Hidden" stroke-dasharray="0.001329 0.157636">
      <line x1="-6.708204" y1="-3.960923" x2="-6.708204" y2="4.249671" />
      <line x1="-6.708204" y1="4.249671" x2="-16.830457" y2="5.561315" />
      <line x1="4.866415" y1="4.454034" x2="-4.077857" y2="5.613035" />
      <line x1="-4.077857" y1="5.613035" x2="-6.708204" y2="4.249671" />
      <line x1="-3.770987" y1="6.766568" x2="-16.390211" y2="8.401771" />
      <line x1="-4.077857" y1="5.613035" x2="-16.314655" y2="8.889253" />
      <line x1="-29.068884" y1="-2.511169" x2="-24.596748" y2="-0.193167" />
      <line x1="-24.596748" y1="-0.193167" x2="-24.596748" y2="9.465176" />
      <line x1="-2.236068" y1="-3.09067" x2="-24.596748" y2="-0.193167" />
      <line x1="-2.236068" y1="-3.09067" x2="-4.866415" y2="-4.454034" />
      <line x1="4.077857" y1="-5.613035" x2="-4.866415" y2="-4.454034" />
      <line x1="6.708204" y1="-4.249671" x2="4.077857" y2="-5.613035" />
      <line x1="29.068884" y1="-7.147174" x2="6.708204" y2="-4.249671" />
      <line x1="-2.236068" y1="-3.09067" x2="-2.236068" y2="5.119924" />
      <line x1="-2.236068" y1="5.119924" x2="6.708204" y2="3.960923" />
      <line x1="6.708204" y1="-4.249671" x2="6.708204" y2="3.960923" />
      <line x1="8.899944" y1="2.138425" x2="-2.236068" y2="5.119924" />
      <line x1="3.770987" y1="-6.766568" x2="-4.866415" y2="-4.454034" />
      <line x1="7.370383" y1="-7.730252" x2="8.899944" y2="2.138425" />
      <line x1="12.715259" y1="-7.925569" x2="4.077857" y2="-5.613035" />
      <line x1="17.844216" y1="0.979423" x2="6.708204" y2="3.960923" />
      <line x1="16.390211" y1="-8.401771" x2="17.844216" y2="0.979423" />
      <line x1="17.844216" y1="0.979423" x2="8.899944" y2="2.138425" />
    </g>
  </g>
</svg>