<?xml version='1.0' encoding='utf-8'?>
<svg width="120.09mm" height="84.241802mm" viewBox="-34.908822 -24.488152 69.817645 48.976303" version="1.1" xmlns="http://www.w3.org/2000/svg">
  <g transform="scale(1,-1)" stroke-linecap="round">
    <g fill="rgb(30,30,46)" stroke="none" stroke-width="0.05232399067349508">
      <path d="M -34.88266,24.46199 L -34.88266,-24.46199 L 34.88266,-24.46199 L 34.88266,24.46199 L -34.88266,24.46199" />
    </g>
    <g fill="rgb(0,255,0)" stroke="rgb(200,200,200)" stroke-width="0.05232399067349508" id="Visible">
      <line x1="24.596748" y1="0.193167" x2="2.236068" y2="3.09067" />
      <line x1="2.236068" y1="-3.73881" x2="2.236068" y2="3.09067" />
      <line x1="-6.708204" y1="-2.579809" x2="2.236068" y2="-3.73881" />
      <line x1="-11.225743" y1="4.835055" x2="-29.068884" y2="7.147174" />
      <line x1="-29.068884" y1="-2.511169" x2="-29.068884" y2="7.147174" />
      <line x1="24.596748" y1="-9.465176" x2="-29.068884" y2="-2.511169" />
      <line x1="24.596748" y1="-9.465176" x2="24.596748" y2="0.193167" />
      <line x1="5.398346" y1="4.729745" x2="2.236068" y2="3.09067" />
      <line x1="-29.068884" y1="7.147174" x2="-24.596748" y2="9.465176" />
      <line x1="29.068884" y1="2.511169" x2="4.836978" y2="5.651146" />
      <line x1="-13.142373" y1="7.980915" x2="-24.596748" y2="9.465176" />
      <line x1="24.596748" y1="0.193167" x2="29.068884" y2="2.511169" />
      <line x1="5.398346" y1="4.729745" x2="-3.433558" y2="19.22599" />
      <line x1="-6.595836" y1="10.757436" x2="-3.433558" y2="19.22599" />
      <line x1="2.236068" y1="-3.73881" x2="-6.595836" y2="10.757436" />
      <line x1="-6.595836" y1="10.757436" x2="-15.540108" y2="11.916437" />
      <line x1="-6.708204" y1="-2.579809" x2="-15.540108" y2="11.916437" />
      <line x1="-15.540108" y1="11.916437" x2="-12.37783" y2="20.384991" />
      <line x1="24.596748" y1="-9.465176" x2="29.068884" y2="-7.147174" />
      <line x1="29.068884" y1="-7.147174" x2="29.068884" y2="2.511169" />
      <line x1="-3.433558" y1="19.22599" x2="-12.37783" y2="20.384991" />
      <line x1="3.433558" y1="-19.22599" x2="-4.836978" y2="-5.651146" />
      <line x1="12.37783" y1="-20.384991" x2="4.107294" y2="-6.810147" />
      <line x1="12.37783" y1="-20.384991" x2="3.433558" y2="-19.22599" />
      <line x1="15.540108" y1="-11.916437" x2="13.142373" y2="-7.980915" />
      <line x1="12.37783" y1="-20.384991" x2="15.540108" y2="-11.916437" />
    </g>
    <g fill="rgb(255,0,0)" stroke="rgb(99,99,99)" stroke-width="0.05232399067349508" id="Hidden" stroke-dasharray="0.001329 0.157636">
      <line x1="-6.708204" y1="-2.579809" x2="-6.708204" y2="4.249671" />
      <line x1="-6.708204" y1="4.249671" x2="-11.225743" y2="4.835055" />
      <line x1="5.398346" y1="4.729745" x2="-3.545926" y2="5.888746" />
      <line x1="-3.545926" y1="5.888746" x2="-6.708204" y2="4.249671" />
      <line x1="4.836978" y1="5.651146" x2="-13.142373" y2="7.980915" />
      <line x1="-3.545926" y1="5.888746" x2="-12.37783" y2="20.384991" />
      <line x1="-29.068884" y1="-2.511169" x2="-24.596748" y2="-0.193167" />
      <line x1="-24.596748" y1="-0.193167" x2="-24.596748" y2="9.465176" />
      <line x1="-2.236068" y1="-3.09067" x2="-24.596748" y2="-0.193167" />
      <line x1="-2.236068" y1="-3.09067" x2="-5.398346" y2="-4.729745" />
      <line x1="3.545926" y1="-5.888746" x2="-5.398346" y2="-4.729745" />
      <line x1="6.708204" y1="-4.249671" x2="3.545926" y2="-5.888746" />
      <line x1="29.068884" y1="-7.147174" x2="6.708204" y2="-4.249671" />
      <line x1="-2.236068" y1="-3.09067" x2="-2.236068" y2="3.73881" />
      <line x1="-2.236068" y1="3.73881" x2="6.708204" y2="2.579809" />
      <line x1="6.708204" y1="-4.249671" x2="6.708204" y2="2.579809" />
      <line x1="6.595836" y1="-10.757436" x2="-2.236068" y2="3.73881" />
      <line x1="-4.836978" y1="-5.651146" x2="-5.398346" y2="-4.729745" />
      <line x1="3.433558" y1="-19.22599" x2="6.595836" y2="-10.757436" />
      <line x1="4.107294" y1="-6.810147" x2="3.545926" y2="-5.888746" />
      <line x1="13.142373" y1="-7.980915" x2="6.708204" y2="2.579809" />
      <line x1="15.540108" y1="-11.916437" x2="6.595836" y2="-10.757436" />
    </g>
  </g>
</svg>