<?xml version='1.0' encoding='utf-8'?>
<svg width="111.22989mm" height="120.090004mm" viewBox="-2.685992 -2.899946 5.371983 5.799893" version="1.1" xmlns="http://www.w3.org/2000/svg">
  <g transform="scale(1,-1)" stroke-linecap="round">
    <g fill="rgb(30,30,46)" stroke="none" stroke-width="0.00434665960003428">
      <path d="M -2.683818,2.897773 L -2.683818,-2.897773 L 2.683818,-2.897773 L 2.683818,2.897773 L -2.683818,2.897773" />
    </g>
    <g fill="none" stroke="rgb(200,200,200)" stroke-width="0.00434665960003428" id="Visible">
      <line x1="0.224501" y1="-1.408878" x2="0.224501" y2="0.524624" />
      <line x1="0.224501" y1="-1.408878" x2="-1.566142" y2="-1.176682" />
      <line x1="0.224501" y1="0.524624" x2="-1.566142" y2="0.75682" />
      <line x1="-1.566142" y1="-1.176682" x2="-1.566142" y2="0.75682" />
      <line x1="-0.669926" y1="-1.290964" x2="-0.671715" y2="-1.290732" />
      <line x1="-0.669926" y1="-1.290964" x2="0.222712" y2="-0.442861" />
      <line x1="-0.671715" y1="-1.290732" x2="-1.564353" y2="-0.211129" />
      <line x1="0.222712" y1="-0.442861" x2="0.222712" y2="-0.440929" />
      <line x1="-1.564353" y1="-0.211129" x2="-1.564353" y2="-0.209197" />
      <line x1="-0.669926" y1="0.638674" x2="0.222712" y2="-0.440929" />
      <line x1="-1.564353" y1="-0.209197" x2="-0.671715" y2="0.638906" />
      <line x1="-0.669926" y1="0.638674" x2="-0.671715" y2="0.638906" />
      <line x1="0.224501" y1="-1.408878" x2="0.89398" y2="-1.351003" />
      <line x1="0.224501" y1="0.524624" x2="0.89398" y2="0.582499" />
      <line x1="0.89398" y1="-1.351003" x2="0.89398" y2="0.582499" />
      <line x1="0.447661" y1="-1.775055" x2="0.224501" y2="-1.408878" />
      <line x1="0.447661" y1="-1.775055" x2="-1.342982" y2="-1.542859" />
      <line x1="-1.566142" y1="-1.176682" x2="-1.342982" y2="-1.542859" />
      <line x1="0.447661" y1="1.122301" x2="0.224501" y2="0.524624" />
      <line x1="0.447661" y1="1.122301" x2="-1.342982" y2="1.354496" />
      <line x1="-1.566142" y1="0.75682" x2="-1.342982" y2="1.354496" />
      <line x1="-1.789302" y1="-1.003057" x2="-1.566142" y2="-1.176682" />
      <line x1="-1.789302" y1="-1.003057" x2="-1.789302" y2="0.930445" />
      <line x1="-1.789302" y1="0.930445" x2="-1.566142" y2="0.75682" />
      <line x1="-0.669926" y1="-1.290964" x2="-0.893086" y2="-0.924788" />
      <line x1="-0.671715" y1="-1.290732" x2="-0.894491" y2="-0.925185" />
      <line x1="-0.893086" y1="-0.924788" x2="-0.446766" y2="-0.500736" />
      <line x1="0.222712" y1="-0.442861" x2="-0.446766" y2="-0.500736" />
      <line x1="-1.564353" y1="-0.211129" x2="-1.342088" y2="-0.384058" />
      <line x1="-0.446766" y1="-0.500736" x2="-0.446766" y2="-0.498804" />
      <line x1="0.222712" y1="-0.440929" x2="-0.446766" y2="-0.498804" />
      <line x1="-1.564353" y1="-0.209197" x2="-1.341417" y2="-0.382649" />
      <line x1="-0.669926" y1="0.638674" x2="-0.893086" y2="0.040998" />
      <line x1="-0.893086" y1="0.040998" x2="-0.446766" y2="-0.498804" />
      <line x1="-0.671715" y1="0.638906" x2="-0.894874" y2="0.04123" />
      <line x1="-0.893086" y1="0.040998" x2="-0.894874" y2="0.04123" />
      <line x1="0.447661" y1="-1.775055" x2="0.89398" y2="-1.351003" />
      <line x1="0.447661" y1="1.122301" x2="0.89398" y2="0.582499" />
      <line x1="0.89398" y1="-1.351003" x2="1.789302" y2="-0.886611" />
      <line x1="0.89398" y1="0.582499" x2="1.789302" y2="1.04689" />
      <line x1="1.789302" y1="-0.886611" x2="1.789302" y2="-0.693288" />
      <line x1="1.789302" y1="0.273077" x2="1.789302" y2="1.04689" />
      <line x1="1.342088" y1="-1.116644" x2="1.341194" y2="-1.117108" />
      <line x1="1.341194" y1="-1.117108" x2="0.894874" y2="-0.384754" />
      <line x1="0.894874" y1="-0.384754" x2="0.894874" y2="-0.382822" />
      <line x1="0.894874" y1="-0.382822" x2="1.341194" y2="0.812531" />
      <line x1="1.342088" y1="0.812995" x2="1.341194" y2="0.812531" />
      <line x1="0.447661" y1="-1.775055" x2="1.342982" y2="-1.310663" />
      <line x1="-1.789302" y1="-1.003057" x2="-1.342982" y2="-1.542859" />
      <line x1="0.447661" y1="1.122301" x2="1.342982" y2="1.586692" />
      <line x1="-1.342982" y1="1.354496" x2="-0.891292" y2="1.588783" />
      <line x1="1.342982" y1="1.586692" x2="0.625449" y2="1.679736" />
      <line x1="0.893086" y1="1.354496" x2="0.89398" y2="1.35496" />
      <line x1="0.893086" y1="1.354496" x2="-0.445872" y2="1.238747" />
      <line x1="-0.445872" y1="1.238747" x2="-0.447661" y2="1.238979" />
      <line x1="-0.89398" y1="1.586228" x2="-0.447661" y2="1.238979" />
      <line x1="-1.789302" y1="0.930445" x2="-1.342982" y2="1.354496" />
      <line x1="-0.893086" y1="-0.924788" x2="-0.89398" y2="-0.925251" />
      <line x1="-0.89398" y1="-0.925251" x2="-0.895769" y2="-0.92502" />
      <line x1="-0.89398" y1="-0.925251" x2="-0.447661" y2="-0.5012" />
      <line x1="-0.446766" y1="-0.500736" x2="-0.447661" y2="-0.5012" />
      <line x1="-0.895769" y1="-0.92502" x2="-1.342088" y2="-0.385218" />
      <line x1="-0.446766" y1="-0.498804" x2="-0.447661" y2="-0.499268" />
      <line x1="-0.447661" y1="-0.5012" x2="-0.447661" y2="-0.499268" />
      <line x1="-1.342088" y1="-0.385218" x2="-1.342088" y2="-0.383286" />
      <line x1="-0.893086" y1="0.040998" x2="-0.89398" y2="0.040534" />
      <line x1="-0.89398" y1="0.040534" x2="-0.447661" y2="-0.499268" />
      <line x1="-1.342088" y1="-0.383286" x2="-0.895769" y2="0.040766" />
      <line x1="-0.894874" y1="0.04123" x2="-0.895769" y2="0.040766" />
      <line x1="-0.89398" y1="0.040534" x2="-0.895769" y2="0.040766" />
      <line x1="1.789302" y1="-0.886611" x2="1.342982" y2="-1.310663" />
      <line x1="1.342982" y1="1.586692" x2="1.789302" y2="1.04689" />
      <line x1="1.342088" y1="-1.116644" x2="1.78787" y2="-0.693102" />
      <line x1="1.341194" y1="-1.117108" x2="1.787513" y2="-0.693056" />
      <line x1="1.787513" y1="-0.693056" x2="1.564353" y2="-0.326879" />
      <line x1="0.894874" y1="-0.384754" x2="1.564353" y2="-0.326879" />
      <line x1="1.564353" y1="-0.326879" x2="1.564353" y2="-0.324947" />
      <line x1="0.894874" y1="-0.382822" x2="1.564353" y2="-0.324947" />
      <line x1="1.342088" y1="0.812995" x2="1.788407" y2="0.273193" />
      <line x1="1.564353" y1="-0.324947" x2="1.787513" y2="0.272729" />
      <line x1="1.341194" y1="0.812531" x2="1.787513" y2="0.272729" />
      <line x1="1.788407" y1="0.273193" x2="1.787513" y2="0.272729" />
      <line x1="-0.447277" y1="-1.659007" x2="-0.224501" y2="-2.024554" />
      <line x1="-0.224501" y1="-2.024554" x2="-0.222712" y2="-2.024786" />
      <line x1="-0.445488" y1="-1.659239" x2="-0.222712" y2="-2.024786" />
      <line x1="-0.224501" y1="-2.024554" x2="-0.447661" y2="-1.850929" />
      <line x1="-0.625449" y1="-1.635903" x2="-0.447661" y2="-1.850929" />
      <line x1="-0.222712" y1="-2.024786" x2="0.446766" y2="-1.966911" />
      <line x1="0.890397" y1="-1.545413" x2="0.446766" y2="-1.966911" />
      <line x1="0.446766" y1="-1.966911" x2="0.447661" y2="-1.966447" />
      <line x1="0.891292" y1="-1.544949" x2="0.447661" y2="-1.966447" />
      <line x1="0.893086" y1="1.354496" x2="0.446766" y2="1.894298" />
      <line x1="0.446766" y1="1.894298" x2="0.447661" y2="1.894762" />
      <line x1="0.89398" y1="1.35496" x2="0.447661" y2="1.894762" />
      <line x1="0.446766" y1="1.894298" x2="0.357951" y2="1.88662" />
      <path d="M 0.357951,1.88662 A 0.2872281323269013,0.2578808721072307 144.1016810351898 0,0 -0.133897,1.844101" />
      <line x1="-0.133897" y1="1.844101" x2="-0.222712" y2="1.836423" />
      <line x1="-0.445872" y1="1.238747" x2="-0.222712" y2="1.836423" />
      <path d="M 0.363564,1.919547 A 0.2872281323269013,0.028617310722236607 -51.12071319176958 0,0 0.254106,2.045353" />
      <line x1="-0.222712" y1="1.836423" x2="-0.224501" y2="1.836655" />
      <line x1="-0.447661" y1="1.238979" x2="-0.224501" y2="1.836655" />
      <line x1="-0.89398" y1="1.586228" x2="-0.447661" y2="2.01028" />
      <line x1="-0.447661" y1="2.01028" x2="-0.418056" y2="1.987246" />
      <path d="M -0.418056,1.987246 A 0.28722813232690103,0.11463178069248373 57.64958608007813 0,1 -0.449979,1.852543" />
      <path d="M -0.449979,1.852543 A 0.28722813232690103,0.11463178069248373 57.64958608007813 0,1 -0.254106,1.859689" />
      <line x1="-0.254106" y1="1.859689" x2="-0.224501" y2="1.836655" />
      <path d="M 0.133897,2.060941 A 0.28722813232690103,0.17186640213698326 18.799340933509672 0,0 -0.175292,1.93247" />
      <path d="M -0.195352,1.933 A 0.28722813232690103,0.17186640213698326 18.799340933509672 0,0 -0.357951,2.018422" />
      <line x1="-1.789302" y1="-0.036112" x2="-2.011567" y2="0.136817" />
      <line x1="-2.011567" y1="0.136817" x2="-2.011567" y2="0.138748" />
      <line x1="-1.789302" y1="-0.034181" x2="-2.011567" y2="0.138748" />
      <line x1="-2.011567" y1="0.136817" x2="-1.789302" y2="-0.227893" />
      <line x1="-2.011567" y1="0.138748" x2="-1.789302" y2="0.73403" />
      <line x1="-1.11714" y1="-0.559075" x2="-0.89398" y2="-0.925251" />
      <line x1="-1.11714" y1="-0.559075" x2="-1.118928" y2="-0.558843" />
      <line x1="-1.118928" y1="-0.558843" x2="-0.895769" y2="-0.92502" />
      <line x1="-1.11714" y1="-0.559075" x2="-0.447661" y2="-0.5012" />
      <line x1="-1.118928" y1="-0.558843" x2="-1.342088" y2="-0.385218" />
      <line x1="-1.11714" y1="-0.559075" x2="-1.11714" y2="-0.557143" />
      <line x1="-1.11714" y1="-0.557143" x2="-0.447661" y2="-0.499268" />
      <line x1="-1.118928" y1="-0.558843" x2="-1.118928" y2="-0.556911" />
      <line x1="-1.118928" y1="-0.556911" x2="-1.342088" y2="-0.383286" />
      <line x1="-1.11714" y1="-0.557143" x2="-0.89398" y2="0.040534" />
      <line x1="-1.118928" y1="-0.556911" x2="-0.895769" y2="0.040766" />
      <line x1="-1.11714" y1="-0.557143" x2="-1.118928" y2="-0.556911" />
      <line x1="1.787513" y1="-0.693056" x2="1.789302" y2="-0.693288" />
      <line x1="1.790196" y1="-0.692824" x2="1.789302" y2="-0.693288" />
      <line x1="1.789302" y1="-0.693288" x2="1.566142" y2="-0.327111" />
      <line x1="1.564353" y1="-0.326879" x2="1.566142" y2="-0.327111" />
      <line x1="1.564353" y1="-0.324947" x2="1.566142" y2="-0.325179" />
      <line x1="1.566142" y1="-0.327111" x2="1.566142" y2="-0.325179" />
      <line x1="1.788407" y1="0.273193" x2="1.790196" y2="0.272961" />
      <line x1="1.566142" y1="-0.325179" x2="1.789302" y2="0.272497" />
      <line x1="1.787513" y1="0.272729" x2="1.789302" y2="0.272497" />
      <line x1="1.790196" y1="0.272961" x2="1.789302" y2="0.272497" />
      <line x1="-0.224501" y1="-2.024554" x2="-0.224501" y2="-2.026485" />
      <line x1="-0.222712" y1="-2.024786" x2="-0.222712" y2="-2.026717" />
      <line x1="-0.224501" y1="-2.026485" x2="-0.222712" y2="-2.026717" />
      <line x1="-0.224501" y1="-2.026485" x2="-0.447661" y2="-1.852861" />
      <line x1="-0.447661" y1="-1.850929" x2="-0.447661" y2="-1.852861" />
      <line x1="-0.222712" y1="-2.026717" x2="0.446766" y2="-1.968842" />
      <line x1="0.446766" y1="-1.966911" x2="0.446766" y2="-1.968842" />
      <line x1="0.447661" y1="-1.966447" x2="0.447661" y2="-1.968379" />
      <line x1="0.446766" y1="-1.968842" x2="0.447661" y2="-1.968379" />
      <line x1="0.446766" y1="1.894298" x2="0.446766" y2="1.89623" />
      <line x1="0.447661" y1="1.894762" x2="0.447661" y2="1.896694" />
      <line x1="0.446766" y1="1.89623" x2="0.447661" y2="1.896694" />
      <path d="M 0.357951,1.88662 A 0.27748783757130685,0.25424109063772965 -127.88399232822087 0,1 0.357218,1.888489" />
      <line x1="0.446766" y1="1.89623" x2="0.357218" y2="1.888489" />
      <path d="M 0.181185,2.140044 A 0.14798479651639937,0.06325354290861585 -20.4745460843482 0,0 0.180289,2.140162" />
      <path d="M 0.133164,2.062809 A 0.2858297861781845,0.17102968492695567 -161.20065906649032 0,1 0.180289,2.140162" />
      <path d="M 0.133897,2.060941 A 0.27748783757130685,0.25424109063772965 -127.88399232822087 0,1 0.133164,2.062809" />
      <path d="M -0.357218,2.020417 A 0.27748783757130685,0.25424109063772965 -127.88399232822087 0,1 -0.357951,2.018422" />
      <path d="M -0.36192,2.093289 A 0.2858297861781845,0.17102968492695567 -161.20065906649032 0,1 -0.357218,2.020417" />
      <path d="M -0.362814,2.092825 A 0.14798479651639937,0.01805778899326459 -140.41535960514747 0,1 -0.36192,2.093289" />
      <path d="M -0.417811,1.988988 A 0.2858297861781845,0.11407370545189617 -122.35041391992188 0,0 -0.362814,2.092825" />
      <path d="M -0.418056,1.987246 A 0.27748783757130685,0.0847470302125661 -85.05918968993508 0,0 -0.417811,1.988988" />
      <path d="M -0.254351,1.861811 A 0.27748783757130685,0.0847470302125661 -85.05918968993508 0,0 -0.254106,1.859689" />
      <path d="M -0.182078,1.952207 A 0.2858297861781845,0.11407370545189617 -122.35041391992188 0,0 -0.254351,1.861811" />
      <path d="M -0.180289,1.951975 A 0.14798479651639937,0.11752947275280587 -148.64057028210013 0,0 -0.182078,1.952207" />
      <path d="M -0.180289,1.951975 A 0.2858297861781845,0.2566254006413352 -35.89831896481019 0,1 -0.133164,1.846096" />
      <path d="M -0.133164,1.846096 A 0.27748783757130685,0.25424109063772965 -127.88399232822087 0,1 -0.133897,1.844101" />
      <path d="M 0.357218,1.888489 A 0.2858297861781845,0.2566254006413352 -35.89831896481019 0,1 0.36192,1.998848" />
      <path d="M 0.36192,1.998848 A 0.14798479651639937,0.0723337188374546 -46.46551940083365 0,1 0.362814,1.999312" />
      <path d="M 0.254351,2.047095 A 0.27748783757130685,0.0847470302125661 94.94081031006493 0,1 0.254106,2.045353" />
      <path d="M 0.182078,2.13993 A 0.2858297861781845,0.028477989737516602 128.87928680823043 0,1 0.254351,2.047095" />
      <path d="M 0.182078,2.13993 A 0.14798479651639937,0.06325354290861585 -20.4745460843482 0,0 0.181185,2.140044" />
      <line x1="-0.222712" y1="1.836423" x2="-0.222712" y2="1.838355" />
      <line x1="-0.133164" y1="1.846096" x2="-0.222712" y2="1.838355" />
      <line x1="-0.224501" y1="1.836655" x2="-0.224501" y2="1.838587" />
      <line x1="-0.222712" y1="1.838355" x2="-0.224501" y2="1.838587" />
      <line x1="-0.447661" y1="2.012212" x2="-0.417811" y2="1.988988" />
      <line x1="-0.447661" y1="2.01028" x2="-0.447661" y2="2.012212" />
      <line x1="-0.254351" y1="1.861811" x2="-0.224501" y2="1.838587" />
      <line x1="-2.011567" y1="0.136817" x2="-2.013356" y2="0.137049" />
      <line x1="-2.011567" y1="0.138748" x2="-2.013356" y2="0.13898" />
      <line x1="-2.013356" y1="0.137049" x2="-2.013356" y2="0.13898" />
      <line x1="-2.013356" y1="0.137049" x2="-1.790196" y2="-0.229128" />
      <line x1="-1.789302" y1="-0.229244" x2="-1.790196" y2="-0.229128" />
      <line x1="-2.013356" y1="0.13898" x2="-1.790196" y2="0.736657" />
      <line x1="-1.789302" y1="0.736541" x2="-1.790196" y2="0.736657" />
      <line x1="-1.790196" y1="0.736657" x2="-1.789302" y2="0.737121" />
      <line x1="2.236515" y1="-0.268772" x2="1.790196" y2="-0.692824" />
      <line x1="2.236515" y1="-0.268772" x2="2.235621" y2="-0.269236" />
      <line x1="2.235621" y1="-0.269236" x2="1.789302" y2="-0.693288" />
      <line x1="2.235621" y1="-0.269236" x2="1.566142" y2="-0.327111" />
      <line x1="2.236515" y1="-0.268772" x2="2.236515" y2="-0.26684" />
      <line x1="2.235621" y1="-0.269236" x2="2.235621" y2="-0.267304" />
      <line x1="2.235621" y1="-0.267304" x2="1.566142" y2="-0.325179" />
      <line x1="2.236515" y1="-0.26684" x2="1.790196" y2="0.272961" />
      <line x1="2.235621" y1="-0.267304" x2="1.789302" y2="0.272497" />
      <line x1="2.236515" y1="-0.26684" x2="2.235621" y2="-0.267304" />
      <line x1="-0.001342" y1="-2.392662" x2="-0.224501" y2="-2.026485" />
      <line x1="-0.001342" y1="-2.392662" x2="0.000447" y2="-2.392894" />
      <line x1="0.000447" y1="-2.392894" x2="-0.222712" y2="-2.026717" />
      <line x1="-0.001342" y1="-2.392662" x2="-0.447661" y2="-1.852861" />
      <line x1="0.000447" y1="-2.392894" x2="0.446766" y2="-1.968842" />
      <line x1="0.000447" y1="-2.392894" x2="0.001342" y2="-2.39243" />
      <line x1="0.001342" y1="-2.39243" x2="0.447661" y2="-1.968379" />
      <line x1="0.362814" y1="1.999312" x2="0.447661" y2="1.896694" />
      <line x1="0.36192" y1="1.998848" x2="0.446766" y2="1.89623" />
      <line x1="-0.362814" y1="2.092825" x2="-0.447661" y2="2.012212" />
      <line x1="-0.182078" y1="1.952207" x2="-0.224501" y2="1.838587" />
      <line x1="-0.180289" y1="1.951975" x2="-0.222712" y2="1.838355" />
      <line x1="-2.236515" y1="0.310674" x2="-2.013356" y2="0.137049" />
      <line x1="-2.236515" y1="0.310674" x2="-2.236515" y2="0.312605" />
      <line x1="-2.236515" y1="0.312605" x2="-2.013356" y2="0.13898" />
      <line x1="-2.236515" y1="0.310674" x2="-1.790196" y2="-0.229128" />
      <line x1="-2.236515" y1="0.312605" x2="-1.790196" y2="0.736657" />
      <line x1="0.001342" y1="2.436496" x2="-0.000447" y2="2.436727" />
      <line x1="0.000447" y1="2.436032" x2="0.001342" y2="2.436496" />
      <line x1="0.000447" y1="2.436032" x2="-0.001342" y2="2.436264" />
      <line x1="-0.001342" y1="2.436264" x2="-0.000447" y2="2.436727" />
      <path d="M 0.175631,2.225701 A 0.14798479651639937,0.0723337188374546 -46.46551940083365 0,1 0.174736,2.225237" />
      <path d="M 0.174736,2.225237 A 0.2858297861781845,0.2566254006413352 -35.89831896481019 0,1 -0.086697,2.202637" />
      <path d="M -0.088486,2.202869 A 0.14798479651639937,0.11752947275280587 -148.64057028210013 0,0 -0.086697,2.202637" />
      <path d="M -0.175631,2.27067 A 0.2858297861781845,0.11407370545189617 -122.35041391992188 0,0 -0.088486,2.202869" />
      <line x1="0.001342" y1="2.436496" x2="0.175631" y2="2.225701" />
      <line x1="0.000447" y1="2.436032" x2="0.174736" y2="2.225237" />
      <line x1="-0.001342" y1="2.436264" x2="-0.088486" y2="2.202869" />
      <line x1="0.000447" y1="2.436032" x2="-0.086697" y2="2.202637" />
      <line x1="-0.001342" y1="2.436264" x2="-0.175631" y2="2.27067" />
    </g>
    <g fill="none" stroke="rgb(99,99,99)" stroke-width="0.00434665960003428" id="Hidden" stroke-dasharray="0.00011 0.013095">
      <line x1="-0.893086" y1="-0.924788" x2="-0.894874" y2="-0.924556" />
      <line x1="-0.894491" y1="-0.925185" x2="-0.894874" y2="-0.924556" />
      <line x1="-0.894874" y1="-0.924556" x2="-1.341194" y2="-0.384754" />
      <line x1="-1.342088" y1="-0.384058" x2="-1.341194" y2="-0.384754" />
      <line x1="-1.341194" y1="-0.384754" x2="-1.341194" y2="-0.382822" />
      <line x1="-1.341417" y1="-0.382649" x2="-1.341194" y2="-0.382822" />
      <line x1="-1.341194" y1="-0.382822" x2="-0.894874" y2="0.04123" />
      <line x1="1.789302" y1="-0.693288" x2="1.789302" y2="0.273077" />
      <line x1="1.342088" y1="-1.116644" x2="1.788407" y2="0.07871" />
      <line x1="1.788407" y1="0.07871" x2="1.788407" y2="0.080641" />
      <line x1="1.342088" y1="0.812995" x2="1.788407" y2="0.080641" />
      <line x1="-1.342982" y1="-1.542859" x2="-0.447661" y2="-1.078468" />
      <line x1="1.342982" y1="-1.310663" x2="-0.447661" y2="-1.078468" />
      <line x1="-0.447661" y1="-1.658377" x2="-0.445872" y2="-1.658609" />
      <line x1="-0.447661" y1="-1.658377" x2="-0.89398" y2="-1.311127" />
      <line x1="-0.445872" y1="-1.658609" x2="0.893086" y2="-1.542859" />
      <line x1="-0.89398" y1="-1.311127" x2="-0.893086" y2="-1.310663" />
      <line x1="0.893086" y1="-1.542859" x2="0.89398" y2="-1.542395" />
      <line x1="0.445872" y1="-1.194913" x2="-0.893086" y2="-1.310663" />
      <line x1="0.89398" y1="-1.542395" x2="0.447661" y2="-1.195145" />
      <line x1="0.445872" y1="-1.194913" x2="0.447661" y2="-1.195145" />
      <line x1="-0.891292" y1="1.588783" x2="-0.447661" y2="1.818888" />
      <line x1="0.625449" y1="1.679736" x2="-0.447661" y2="1.818888" />
      <line x1="0.89398" y1="1.35496" x2="0.447661" y2="1.70221" />
      <line x1="0.447661" y1="1.70221" x2="0.445872" y2="1.702442" />
      <line x1="0.445872" y1="1.702442" x2="-0.893086" y2="1.586692" />
      <line x1="-0.89398" y1="1.586228" x2="-0.893086" y2="1.586692" />
      <line x1="-1.789302" y1="-1.003057" x2="-0.89398" y2="-0.538666" />
      <line x1="-1.789302" y1="0.930445" x2="-0.89398" y2="1.394836" />
      <line x1="-0.89398" y1="-0.538666" x2="-0.89398" y2="1.394836" />
      <line x1="-1.788407" y1="-0.036808" x2="-1.788407" y2="-0.034877" />
      <line x1="-1.788407" y1="-0.036808" x2="-1.342088" y2="-0.769162" />
      <line x1="-1.788407" y1="-0.034877" x2="-1.342088" y2="1.160477" />
      <line x1="-1.342088" y1="-0.769162" x2="-1.341194" y2="-0.768698" />
      <line x1="-1.342088" y1="1.160477" x2="-1.341194" y2="1.160941" />
      <line x1="-0.894874" y1="0.426655" x2="-1.341194" y2="-0.768698" />
      <line x1="-1.341194" y1="1.160941" x2="-0.894874" y2="0.428587" />
      <line x1="-0.894874" y1="0.426655" x2="-0.894874" y2="0.428587" />
      <line x1="-0.894874" y1="-0.924556" x2="-0.895769" y2="-0.92502" />
      <line x1="-1.341194" y1="-0.384754" x2="-1.342088" y2="-0.385218" />
      <line x1="-1.341194" y1="-0.382822" x2="-1.342088" y2="-0.383286" />
      <line x1="1.566142" y1="-0.712987" x2="1.789302" y2="-0.886611" />
      <line x1="1.566142" y1="-0.712987" x2="1.566142" y2="1.220515" />
      <line x1="1.789302" y1="1.04689" x2="1.566142" y2="1.220515" />
      <line x1="1.78787" y1="-0.693102" x2="1.788407" y2="-0.692592" />
      <line x1="1.788407" y1="-0.692592" x2="1.787513" y2="-0.693056" />
      <line x1="1.788407" y1="-0.692592" x2="2.011567" y2="-0.094915" />
      <line x1="1.788407" y1="0.07871" x2="2.011567" y2="-0.094915" />
      <line x1="2.011567" y1="-0.094915" x2="2.011567" y2="-0.092984" />
      <line x1="1.788407" y1="0.080641" x2="2.011567" y2="-0.092984" />
      <line x1="1.788407" y1="0.273193" x2="2.011567" y2="-0.092984" />
      <line x1="-0.447661" y1="-1.078468" x2="-0.89398" y2="-0.538666" />
      <line x1="1.566142" y1="-0.712987" x2="1.342982" y2="-1.310663" />
      <line x1="1.566142" y1="-0.712987" x2="-0.224501" y2="-0.480791" />
      <line x1="-0.224501" y1="-0.480791" x2="-0.447661" y2="-1.078468" />
      <line x1="-0.447661" y1="-1.658377" x2="-0.447277" y2="-1.659007" />
      <line x1="-0.445872" y1="-1.658609" x2="-0.445488" y2="-1.659239" />
      <line x1="-0.89398" y1="-1.311127" x2="-0.625449" y2="-1.635903" />
      <line x1="0.893086" y1="-1.542859" x2="0.890397" y2="-1.545413" />
      <line x1="-0.447661" y1="-1.850929" x2="-0.446766" y2="-1.850465" />
      <line x1="-0.893086" y1="-1.310663" x2="-0.446766" y2="-1.850465" />
      <line x1="0.89398" y1="-1.542395" x2="0.891292" y2="-1.544949" />
      <line x1="0.445872" y1="-1.194913" x2="0.222712" y2="-1.79259" />
      <line x1="0.222712" y1="-1.79259" x2="-0.446766" y2="-1.850465" />
      <line x1="0.447661" y1="-1.966447" x2="0.224501" y2="-1.792822" />
      <line x1="0.447661" y1="-1.195145" x2="0.224501" y2="-1.792822" />
      <line x1="0.222712" y1="-1.79259" x2="0.224501" y2="-1.792822" />
      <line x1="-0.447661" y1="1.818888" x2="-0.89398" y2="1.394836" />
      <line x1="1.342982" y1="1.586692" x2="1.566142" y2="1.220515" />
      <line x1="1.566142" y1="1.220515" x2="-0.224501" y2="1.452711" />
      <line x1="-0.224501" y1="1.452711" x2="-0.447661" y2="1.818888" />
      <line x1="0.447661" y1="1.894762" x2="0.418056" y2="1.917796" />
      <path d="M 0.418056,1.917796 A 0.2872281323269013,0.028617310722236607 -51.12071319176958 0,0 0.449987,1.853469" />
      <path d="M 0.449987,1.853469 A 0.2872281323269013,0.028617310722236607 -51.12071319176958 0,0 0.363564,1.919547" />
      <line x1="0.254106" y1="2.045353" x2="0.224501" y2="2.068387" />
      <line x1="0.447661" y1="1.70221" x2="0.224501" y2="2.068387" />
      <line x1="0.224501" y1="2.068387" x2="0.222712" y2="2.068619" />
      <line x1="0.445872" y1="1.702442" x2="0.222712" y2="2.068619" />
      <line x1="0.222712" y1="2.068619" x2="0.133897" y2="2.060941" />
      <path d="M -0.175292,1.93247 A 0.28722813232690103,0.17186640213698326 18.799340933509672 0,0 -0.195352,1.933" />
      <line x1="-0.357951" y1="2.018422" x2="-0.446766" y2="2.010744" />
      <line x1="-0.893086" y1="1.586692" x2="-0.446766" y2="2.010744" />
      <line x1="-0.447661" y1="2.01028" x2="-0.446766" y2="2.010744" />
      <line x1="-0.224501" y1="-0.480791" x2="-0.89398" y2="-0.538666" />
      <line x1="-0.224501" y1="-0.480791" x2="-0.224501" y2="1.452711" />
      <line x1="-0.224501" y1="1.452711" x2="-0.89398" y2="1.394836" />
      <line x1="-1.788407" y1="-0.036808" x2="-1.789302" y2="-0.036112" />
      <line x1="-1.788407" y1="-0.034877" x2="-1.789302" y2="-0.034181" />
      <line x1="-1.789302" y1="-0.227893" x2="-1.788407" y2="-0.22936" />
      <line x1="-1.342088" y1="-0.769162" x2="-1.788407" y2="-0.22936" />
      <line x1="-1.789302" y1="0.73403" x2="-1.788407" y2="0.736425" />
      <line x1="-1.342088" y1="1.160477" x2="-1.788407" y2="0.736425" />
      <line x1="-1.788407" y1="-0.22936" x2="-1.787513" y2="-0.228896" />
      <line x1="-1.341194" y1="-0.768698" x2="-1.787513" y2="-0.228896" />
      <line x1="-1.788407" y1="0.736425" x2="-1.787513" y2="0.736889" />
      <line x1="-1.341194" y1="1.160941" x2="-1.787513" y2="0.736889" />
      <line x1="-0.894874" y1="0.426655" x2="-1.564353" y2="0.36878" />
      <line x1="-1.564353" y1="0.36878" x2="-1.787513" y2="-0.228896" />
      <line x1="-1.787513" y1="0.736889" x2="-1.564353" y2="0.370712" />
      <line x1="-0.894874" y1="0.428587" x2="-1.564353" y2="0.370712" />
      <line x1="-1.564353" y1="0.36878" x2="-1.564353" y2="0.370712" />
      <line x1="-0.222712" y1="0.484762" x2="-0.222712" y2="0.486694" />
      <line x1="-0.222712" y1="0.484762" x2="0.669926" y2="-0.594841" />
      <line x1="-0.222712" y1="0.486694" x2="0.669926" y2="1.334798" />
      <line x1="0.669926" y1="-0.594841" x2="0.671715" y2="-0.595073" />
      <line x1="0.669926" y1="1.334798" x2="0.671715" y2="1.334566" />
      <line x1="1.564353" y1="0.253031" x2="0.671715" y2="-0.595073" />
      <line x1="0.671715" y1="1.334566" x2="1.564353" y2="0.254962" />
      <line x1="1.564353" y1="0.253031" x2="1.564353" y2="0.254962" />
      <line x1="1.788407" y1="-0.692592" x2="1.790196" y2="-0.692824" />
      <line x1="1.790196" y1="-0.692824" x2="2.013356" y2="-0.095147" />
      <line x1="2.011567" y1="-0.094915" x2="2.013356" y2="-0.095147" />
      <line x1="2.011567" y1="-0.092984" x2="2.013356" y2="-0.093215" />
      <line x1="2.013356" y1="-0.095147" x2="2.013356" y2="-0.093215" />
      <line x1="1.790196" y1="0.272961" x2="2.013356" y2="-0.093215" />
      <line x1="-0.446766" y1="-1.850465" x2="-0.446766" y2="-1.852397" />
      <line x1="-0.447661" y1="-1.852861" x2="-0.446766" y2="-1.852397" />
      <line x1="0.222712" y1="-1.79259" x2="0.222712" y2="-1.794522" />
      <line x1="0.222712" y1="-1.794522" x2="-0.446766" y2="-1.852397" />
      <line x1="0.447661" y1="-1.968379" x2="0.224501" y2="-1.794754" />
      <line x1="0.224501" y1="-1.792822" x2="0.224501" y2="-1.794754" />
      <line x1="0.222712" y1="-1.794522" x2="0.224501" y2="-1.794754" />
      <path d="M 0.417811,1.919918 A 0.2858297861781845,0.028477989737516602 128.87928680823043 0,1 0.362814,1.999312" />
      <path d="M 0.418056,1.917796 A 0.27748783757130685,0.0847470302125661 94.94081031006493 0,1 0.417811,1.919918" />
      <line x1="0.447661" y1="1.896694" x2="0.417811" y2="1.919918" />
      <line x1="0.224501" y1="2.068387" x2="0.224501" y2="2.070319" />
      <line x1="0.254351" y1="2.047095" x2="0.224501" y2="2.070319" />
      <line x1="0.222712" y1="2.068619" x2="0.222712" y2="2.070551" />
      <line x1="0.224501" y1="2.070319" x2="0.222712" y2="2.070551" />
      <line x1="0.222712" y1="2.070551" x2="0.133164" y2="2.062809" />
      <line x1="-0.446766" y1="2.010744" x2="-0.446766" y2="2.012676" />
      <line x1="-0.357218" y1="2.020417" x2="-0.446766" y2="2.012676" />
      <line x1="-0.447661" y1="2.012212" x2="-0.446766" y2="2.012676" />
      <line x1="-1.788407" y1="-0.22936" x2="-1.789302" y2="-0.229244" />
      <line x1="-1.788407" y1="0.736425" x2="-1.789302" y2="0.736541" />
      <line x1="-1.787513" y1="-0.228896" x2="-1.789302" y2="-0.228664" />
      <line x1="-1.790196" y1="-0.229128" x2="-1.789302" y2="-0.228664" />
      <line x1="-1.787513" y1="0.736889" x2="-1.789302" y2="0.737121" />
      <line x1="-1.564353" y1="0.36878" x2="-1.566142" y2="0.369012" />
      <line x1="-1.566142" y1="0.369012" x2="-1.789302" y2="-0.228664" />
      <line x1="-1.789302" y1="0.737121" x2="-1.566142" y2="0.370944" />
      <line x1="-1.564353" y1="0.370712" x2="-1.566142" y2="0.370944" />
      <line x1="-1.566142" y1="0.369012" x2="-1.566142" y2="0.370944" />
      <line x1="-0.222712" y1="0.484762" x2="0.446766" y2="0.542637" />
      <line x1="0.446766" y1="0.542637" x2="0.446766" y2="0.544569" />
      <line x1="-0.222712" y1="0.486694" x2="0.446766" y2="0.544569" />
      <line x1="0.446766" y1="0.542637" x2="0.893086" y2="0.002836" />
      <line x1="0.669926" y1="-0.594841" x2="0.893086" y2="0.002836" />
      <line x1="0.446766" y1="0.544569" x2="0.893086" y2="0.968621" />
      <line x1="0.669926" y1="1.334798" x2="0.893086" y2="0.968621" />
      <line x1="0.893086" y1="0.002836" x2="0.894874" y2="0.002604" />
      <line x1="0.671715" y1="-0.595073" x2="0.894874" y2="0.002604" />
      <line x1="0.893086" y1="0.968621" x2="0.894874" y2="0.968389" />
      <line x1="0.671715" y1="1.334566" x2="0.894874" y2="0.968389" />
      <line x1="1.564353" y1="0.253031" x2="1.341194" y2="0.426655" />
      <line x1="1.341194" y1="0.426655" x2="0.894874" y2="0.002604" />
      <line x1="0.894874" y1="0.968389" x2="1.341194" y2="0.428587" />
      <line x1="1.564353" y1="0.254962" x2="1.341194" y2="0.428587" />
      <line x1="1.341194" y1="0.426655" x2="1.341194" y2="0.428587" />
      <line x1="2.236515" y1="-0.268772" x2="2.013356" y2="-0.095147" />
      <line x1="2.236515" y1="-0.26684" x2="2.013356" y2="-0.093215" />
      <line x1="-0.001342" y1="-2.392662" x2="-0.000447" y2="-2.392198" />
      <line x1="-0.000447" y1="-2.392198" x2="-0.446766" y2="-1.852397" />
      <line x1="-0.000447" y1="-2.392198" x2="0.222712" y2="-1.794522" />
      <line x1="0.001342" y1="-2.39243" x2="0.224501" y2="-1.794754" />
      <line x1="-0.000447" y1="-2.392198" x2="0.001342" y2="-2.39243" />
      <line x1="0.180289" y1="2.140162" x2="0.222712" y2="2.070551" />
      <line x1="0.182078" y1="2.13993" x2="0.224501" y2="2.070319" />
      <line x1="-0.36192" y1="2.093289" x2="-0.446766" y2="2.012676" />
      <line x1="-2.236515" y1="0.310674" x2="-2.235621" y2="0.311137" />
      <line x1="-2.235621" y1="0.311137" x2="-1.789302" y2="-0.228664" />
      <line x1="-2.236515" y1="0.312605" x2="-2.235621" y2="0.313069" />
      <line x1="-2.235621" y1="0.313069" x2="-1.789302" y2="0.737121" />
      <line x1="-2.235621" y1="0.311137" x2="-1.566142" y2="0.369012" />
      <line x1="-2.235621" y1="0.313069" x2="-1.566142" y2="0.370944" />
      <line x1="-2.235621" y1="0.311137" x2="-2.235621" y2="0.313069" />
      <line x1="0.446766" y1="0.542637" x2="0.447661" y2="0.543101" />
      <line x1="0.446766" y1="0.544569" x2="0.447661" y2="0.545033" />
      <line x1="0.447661" y1="0.543101" x2="0.447661" y2="0.545033" />
      <line x1="0.447661" y1="0.543101" x2="0.89398" y2="0.0033" />
      <line x1="0.893086" y1="0.002836" x2="0.89398" y2="0.0033" />
      <line x1="0.447661" y1="0.545033" x2="0.89398" y2="0.969085" />
      <line x1="0.893086" y1="0.968621" x2="0.89398" y2="0.969085" />
      <line x1="0.894874" y1="0.002604" x2="0.895769" y2="0.003068" />
      <line x1="0.89398" y1="0.0033" x2="0.895769" y2="0.003068" />
      <line x1="0.894874" y1="0.968389" x2="0.895769" y2="0.968853" />
      <line x1="0.89398" y1="0.969085" x2="0.895769" y2="0.968853" />
      <line x1="1.341194" y1="0.426655" x2="1.342088" y2="0.427119" />
      <line x1="1.342088" y1="0.427119" x2="0.895769" y2="0.003068" />
      <line x1="0.895769" y1="0.968853" x2="1.342088" y2="0.429051" />
      <line x1="1.341194" y1="0.428587" x2="1.342088" y2="0.429051" />
      <line x1="1.342088" y1="0.427119" x2="1.342088" y2="0.429051" />
      <line x1="1.11714" y1="0.600976" x2="0.447661" y2="0.543101" />
      <line x1="1.11714" y1="0.600976" x2="1.11714" y2="0.602908" />
      <line x1="1.11714" y1="0.602908" x2="0.447661" y2="0.545033" />
      <line x1="1.11714" y1="0.600976" x2="0.89398" y2="0.0033" />
      <line x1="1.11714" y1="0.602908" x2="0.89398" y2="0.969085" />
      <line x1="1.11714" y1="0.600976" x2="1.118928" y2="0.600744" />
      <line x1="1.118928" y1="0.600744" x2="0.895769" y2="0.003068" />
      <line x1="1.11714" y1="0.602908" x2="1.118928" y2="0.602676" />
      <line x1="1.118928" y1="0.602676" x2="0.895769" y2="0.968853" />
      <line x1="1.118928" y1="0.600744" x2="1.342088" y2="0.427119" />
      <line x1="1.118928" y1="0.602676" x2="1.342088" y2="0.429051" />
      <line x1="1.118928" y1="0.600744" x2="1.118928" y2="0.602676" />
      <line x1="-0.000447" y1="2.436727" x2="0.086697" y2="2.293734" />
      <path d="M 0.086697,2.293734 A 0.14798479651639937,0.06325354290861585 -20.4745460843482 0,0 0.087591,2.29362" />
      <path d="M 0.087591,2.29362 A 0.14798479651639937,0.06325354290861585 -20.4745460843482 0,0 0.088486,2.293502" />
      <line x1="0.001342" y1="2.436496" x2="0.088486" y2="2.293502" />
      <path d="M 0.086697,2.293734 A 0.2858297861781845,0.17102968492695567 -161.20065906649032 0,1 -0.026489,2.306128" />
      <path d="M -0.026489,2.306128 A 0.2858297861781845,0.17102968492695567 -161.20065906649032 0,1 -0.174736,2.271134" />
      <line x1="-0.000447" y1="2.436727" x2="-0.174736" y2="2.271134" />
      <path d="M 0.175631,2.225701 A 0.2858297861781845,0.028477989737516602 128.87928680823043 0,1 0.093847,2.297014" />
      <path d="M 0.093847,2.297014 A 0.2858297861781845,0.028477989737516602 128.87928680823043 0,1 0.088486,2.293502" />
      <path d="M -0.174736,2.271134 A 0.14798479651639937,0.01805778899326459 -140.41535960514747 0,1 -0.175631,2.27067" />
      <path d="M -0.449979,1.852543 A 0.45,0.45 117.41517235071143 0,1 0.449987,1.853469" />
      <path d="M 0.093847,2.297014 A 0.45,0.45 117.41517235071143 0,1 0.057868,2.303172" />
      <path d="M 0.057868,2.303172 A 0.45,0.45 117.41517235071143 0,1 -0.026489,2.306128" />
    </g>
  </g>
</svg>