<?xml version='1.0' encoding='utf-8'?>
<svg width="62.63318mm" height="180.09mm" viewBox="-28.31899 -81.42596 56.637979 162.851919" version="1.1" xmlns="http://www.w3.org/2000/svg">
  <g transform="scale(1,-1)" stroke-linecap="round">
    <g fill="rgb(30,30,46)" stroke="none" stroke-width="0.08138526706008026">
      <path d="M -28.278297,81.385267 L -28.278297,-81.385267 L 28.278297,-81.385267 L 28.278297,81.385267 L -28.278297,81.385267" />
    </g>
    <g fill="none" stroke="rgb(200,200,200)" stroke-width="0.08138526706008026" id="Visible">
      <path d="M 23.565248,-35.82562 A 22.0,1.1225882340545643 180.0 0,1 23.565147,-35.822218" />
      <path d="M 23.565147,-35.822218 A 22.0,1.1225882340545643 180.0 0,1 21.242646,-35.323584" />
      <path d="M 17.521958,65.922801 A 5.0,0.25513368955785554 180.0 0,1 16.994117,66.036127" />
      <path d="M -18.112151,-66.288576 A 22.0,1.1225882340545643 180.0 0,1 23.565248,-65.786539" />
      <path d="M 23.565248,-65.786539 A 22.0,1.1225882340545643 180.0 0,1 21.242646,-65.284502" />
      <line x1="18.112151" y1="-35.004106" x2="21.242646" y2="-35.323584" />
      <line x1="-8.049845" y1="68.59195" x2="16.994117" y2="66.036127" />
      <path d="M -8.049845,68.59195 A 5.0,0.25513368955785554 180.0 0,1 -17.521959,68.478608" />
      <line x1="-18.112151" y1="-66.288576" x2="-21.242646" y2="-65.969098" />
      <line x1="18.112151" y1="-64.965024" x2="21.242646" y2="-65.284502" />
      <path d="M 18.112151,-64.965024 A 22.0,1.1225882340545643 180.0 0,1 -23.565248,-65.467061" />
      <path d="M -23.565248,-65.467061 A 22.0,1.1225882340545643 180.0 0,1 -21.242646,-65.969098" />
      <path d="M -15.428869,-66.220116 A 19.0,0.9695080203198511 180.0 0,1 20.565248,-65.786539" />
      <path d="M 20.565248,-65.786539 A 19.0,0.9695080203198511 180.0 0,1 18.559364,-65.352962" />
      <line x1="15.428869" y1="-65.033484" x2="18.559364" y2="-65.352962" />
      <path d="M 15.428869,-65.033484 A 19.0,0.9695080203198511 180.0 0,1 -20.565248,-65.467061" />
      <path d="M -20.565248,-65.467061 A 19.0,0.9695080203198511 180.0 0,1 -18.559364,-65.900638" />
      <line x1="-15.428869" y1="-66.220116" x2="-18.559364" y2="-65.900638" />
      <path d="M 18.112151,-35.004106 A 22.0,1.1225882340545643 180.0 0,1 -23.565151,-35.502813" />
      <path d="M -23.565151,-35.502813 A 22.0,1.1225882340545643 180.0 0,1 -23.565248,-35.506142" />
      <path d="M 21.242646,-35.323584 L 16.994117,66.036127" />
      <line x1="21.242646" y1="-35.323584" x2="21.242646" y2="-65.284502" />
      <path d="M 18.112151,-35.004106 L -8.049845,68.59195" />
      <line x1="18.112151" y1="-35.004106" x2="18.112151" y2="-64.965024" />
      <line x1="-15.428869" y1="-64.804106" x2="-15.428869" y2="-66.220116" />
      <line x1="-18.559364" y1="-65.033484" x2="-18.559364" y2="-65.900638" />
      <path d="M 23.565147,-35.822218 L 17.521958,65.922801" />
      <line x1="23.565248" y1="-65.786539" x2="23.565248" y2="-35.82562" />
      <path d="M -23.565151,-35.502813 L -17.521959,68.478608" />
      <line x1="-23.565248" y1="-65.467061" x2="-23.565248" y2="-35.506142" />
    </g>
    <g fill="none" stroke="rgb(99,99,99)" stroke-width="0.08138526706008026" id="Hidden" stroke-dasharray="0.002067 0.245189">
      <path d="M -18.112151,-36.327657 A 22.0,1.1225882340545643 180.0 0,1 23.565248,-35.82562" />
      <path d="M 8.049845,65.807928 A 5.0,0.25513368955785554 180.0 0,1 17.521958,65.922801" />
      <line x1="8.049845" y1="65.807928" x2="-16.994117" y2="68.363752" />
      <path d="M -17.521959,68.478608 A 5.0,0.25513368955785554 180.0 0,1 -16.994117,68.363752" />
      <path d="M 10.733126,65.876388 A 2.0,0.10205347582314221 180.0 0,1 14.521971,65.922337" />
      <path d="M 14.521971,65.922337 A 2.0,0.10205347582314221 180.0 0,1 14.310835,65.967667" />
      <line x1="-10.733126" y1="68.523491" x2="14.310835" y2="65.967667" />
      <path d="M -10.733126,68.523491 A 2.0,0.10205347582314221 180.0 0,1 -14.521972,68.478154" />
      <path d="M -14.521972,68.478154 A 2.0,0.10205347582314221 180.0 0,1 -14.310835,68.432211" />
      <line x1="10.733126" y1="65.876388" x2="-14.310835" y2="68.432211" />
      <line x1="-18.112151" y1="-36.327657" x2="-21.242646" y2="-36.008179" />
      <path d="M -23.565248,-35.506142 A 22.0,1.1225882340545643 180.0 0,1 -21.242646,-36.008179" />
      <path d="M -15.428869,-36.259197 A 19.0,0.9695080203198511 180.0 0,1 20.565248,-35.82562" />
      <path d="M 20.565248,-35.82562 A 19.0,0.9695080203198511 180.0 0,1 20.56516,-35.822682" />
      <path d="M 20.56516,-35.822682 A 19.0,0.9695080203198511 180.0 0,1 18.559364,-35.392043" />
      <line x1="15.428869" y1="-35.072565" x2="18.559364" y2="-35.392043" />
      <path d="M 15.428869,-35.072565 A 19.0,0.9695080203198511 180.0 0,1 -20.565164,-35.503267" />
      <path d="M -20.565164,-35.503267 A 19.0,0.9695080203198511 180.0 0,1 -20.565248,-35.506142" />
      <path d="M -20.565248,-35.506142 A 19.0,0.9695080203198511 180.0 0,1 -18.559364,-35.93972" />
      <line x1="-15.428869" y1="-36.259197" x2="-18.559364" y2="-35.93972" />
      <path d="M 20.56516,-35.822682 L 14.521971,65.922337" />
      <path d="M -20.565164,-35.503267 L -14.521972,68.478154" />
      <line x1="20.565248" y1="-65.786539" x2="20.565248" y2="-35.82562" />
      <line x1="-20.565248" y1="-65.467061" x2="-20.565248" y2="-35.506142" />
      <path d="M -18.112151,-36.327657 L 8.049845,65.807928" />
      <line x1="-18.112151" y1="-36.327657" x2="-18.112151" y2="-66.288576" />
      <path d="M -21.242646,-36.008179 L -16.994117,68.363752" />
      <line x1="-21.242646" y1="-36.008179" x2="-21.242646" y2="-65.969098" />
      <path d="M 18.559364,-35.392043 L 14.310835,65.967667" />
      <path d="M -15.428869,-36.259197 L 10.733126,65.876388" />
      <path d="M 15.428869,-35.072565 L -10.733126,68.523491" />
      <path d="M -18.559364,-35.93972 L -14.310835,68.432211" />
      <line x1="-15.428869" y1="-36.259197" x2="-15.428869" y2="-64.804106" />
      <line x1="18.559364" y1="-35.392043" x2="18.559364" y2="-65.352962" />
      <line x1="15.428869" y1="-35.072565" x2="15.428869" y2="-65.033484" />
      <line x1="-18.559364" y1="-35.93972" x2="-18.559364" y2="-65.033484" />
    </g>
  </g>
</svg>