<?xml version='1.0' encoding='utf-8'?>
<svg width="102.0mm" height="37.429634mm" viewBox="-12.936365 -5.80453 31.79894 11.66885" version="1.1" xmlns="http://www.w3.org/2000/svg">
  <g transform="scale(1,-1)" stroke-linecap="round">
    <g fill="rgb(0,255,0)" stroke="rgb(200,200,200)" stroke-width="0.0280578883152263" id="Visible">
      <line x1="13.843207" y1="-1.697435" x2="13.843207" y2="-1.024509" />
      <line x1="13.843207" y1="-1.697435" x2="-12.624611" y2="2.192367" />
      <line x1="-12.624611" y1="2.192367" x2="-12.624611" y2="2.865293" />
      <line x1="18.550821" y1="0.732543" x2="18.550821" y2="1.405469" />
      <line x1="13.843207" y1="-1.697435" x2="18.550821" y2="0.732543" />
      <path d="M 13.843207,-1.024509 C 13.84459,-0.871606 13.785745,-0.680843 13.719757,-0.624315" />
      <path d="M -12.624611,2.865293 C -12.625424,2.964094 -12.549024,3.067075 -12.429731,3.127975" />
      <path d="M -12.429731,3.127975 Q -12.332312,3.177668 -12.218704,3.187691" />
      <path d="M 18.550821,1.405469 C 18.552755,1.527556 18.434096,1.633635 18.270285,1.656265" />
      <path d="M 18.270285,1.656265 Q 18.209153,1.665169 18.144914,1.659864" />
      <path d="M -7.793547,5.47187 Q -7.813085,5.489487 -7.831677,5.492299" />
      <path d="M -7.831677,5.492299 Q -7.845396,5.494283 -7.857728,5.487954" />
      <path d="M 9.785711,-3.198773 A 2.0,0.550852635266825 0.0 1,1 13.785711,-3.198773" />
      <path d="M -0.036895,-3.824817 A 3.0,0.8262789529002376 0.0 1,1 5.963105,-3.824817" />
      <path d="M -9.859501,-4.450861 A 4.0,1.10170527053365 0.0 1,1 -1.859501,-4.450861" />
      <path d="M 12.727234,1.132511 A 2.0,0.550852635266825 0.0 0,1 9.880652,0.814221" />
      <path d="M 13.69077,0.814221 A 2.0,0.550852635266825 0.0 0,1 12.727234,1.132511" />
      <path d="M 4.375389,2.67211 A 3.0,0.8262789529002376 0.0 0,1 0.010903,2.090026" />
      <path d="M 5.915307,2.090026 A 3.0,0.8262789529002376 0.0 0,1 4.375389,2.67211" />
      <path d="M -3.976455,4.211708 A 4.0,1.10170527053365 0.0 0,1 -9.830464,3.372223" />
      <path d="M -1.888538,3.372223 A 4.0,1.10170527053365 0.0 0,1 -3.976455,4.211708" />
      <path d="M 10.830509,0.565002 A 1.0,0.2754263176334125 180.0 0,0 10.785711,0.646516" />
      <path d="M 10.785711,0.646516 A 1.0,0.2754263176334125 180.0 0,0 12.785711,0.646516" />
      <path d="M 12.785711,0.646516 A 1.0,0.2754263176334125 180.0 0,0 12.740911,0.565" />
      <path d="M 2.256963,1.57862 A 1.5,0.4131394764501188 180.0 0,0 1.463105,1.943116" />
      <path d="M 1.463105,1.943116 A 1.5,0.4131394764501188 180.0 0,0 4.463105,1.943116" />
      <path d="M 4.463105,1.943116 A 1.5,0.4131394764501188 180.0 0,0 2.256963,1.57862" />
      <path d="M -6.801024,2.753721 A 2.0,0.550852635266825 180.0 0,0 -7.859501,3.239717" />
      <path d="M -7.859501,3.239717 A 2.0,0.550852635266825 180.0 0,0 -3.859501,3.239717" />
      <path d="M -3.859501,3.239717 A 2.0,0.550852635266825 180.0 0,0 -6.801024,2.753721" />
      <line x1="13.843207" y1="-1.024509" x2="-12.624611" y2="2.865293" />
      <line x1="13.843207" y1="-1.024509" x2="18.550821" y2="1.405469" />
      <line x1="13.719757" y1="-0.624315" x2="-12.218704" y2="3.187691" />
      <line x1="13.719757" y1="-0.624315" x2="18.144914" y2="1.659864" />
      <line x1="-12.218704" y1="3.187691" x2="-7.793547" y2="5.47187" />
      <line x1="18.144914" y1="1.659864" x2="-7.793547" y2="5.47187" />
      <path d="M 12.868462,1.686072 A 2.300000246536705,0.6334805984595456 0.0 0,1 10.70296,0.568282 A 2.300000246536705,0.6334805984595456 0.0 0,1 12.868462,1.686072" />
      <path d="M 4.516618,3.22567 A 3.3,0.9089068481902612 0.0 0,1 1.409593,1.621885 A 3.3,0.9089068481902612 0.0 0,1 4.516618,3.22567" />
      <path d="M -3.835227,4.765269 A 4.3000001576756155,1.184333209251688 0.0 0,1 -7.883775,2.675488 A 4.3000001576756155,1.184333209251688 0.0 0,1 -3.835227,4.765269" />
      <path d="M 12.727234,1.324776 A 2.0,0.550852635266825 0.0 0,1 9.7898,0.873986" />
      <path d="M 13.781622,0.873986 A 2.0,0.550852635266825 0.0 0,1 12.727234,1.324776" />
      <path d="M 4.375389,2.864374 A 3.0,0.8262789529002376 0.0 0,1 -0.036742,2.143713" />
      <path d="M 5.962953,2.143699 A 3.0,0.8262789529002376 0.0 0,1 4.375389,2.864374" />
      <path d="M -3.976455,4.403973 A 4.0,1.10170527053365 0.0 0,1 -9.859501,3.431981" />
      <path d="M -1.859501,3.431981 A 4.0,1.10170527053365 0.0 0,1 -3.976455,4.403973" />
      <line x1="-12.429731" y1="3.127975" x2="-7.857727" y2="5.487954" />
      <line x1="13.785711" y1="-3.198773" x2="13.785711" y2="-1.688985" />
      <line x1="9.785711" y1="-3.198773" x2="9.785711" y2="-1.101131" />
      <line x1="5.963105" y1="-3.824817" x2="5.963105" y2="-0.539348" />
      <line x1="-0.036895" y1="-3.824817" x2="-0.036895" y2="0.342433" />
      <line x1="-1.859501" y1="-4.450861" x2="-1.859501" y2="0.61029" />
      <line x1="-9.859501" y1="-4.450861" x2="-9.859501" y2="1.785997" />
      <line x1="18.270284" y1="1.656265" x2="-7.831677" y2="5.492299" />
      <path d="M 9.773071,0.890893 C 9.771952,0.890835 9.778997,0.883951 9.794204,0.870242 C 9.808132,0.858093 9.831146,0.842635 9.863248,0.823869 C 9.953395,0.771502 10.118143,0.707671 10.329169,0.656667 C 10.723019,0.559146 11.277705,0.501598 11.82839,0.505413 C 12.346279,0.50744 12.86016,0.563336 13.232943,0.654402 C 13.446896,0.705503 13.614316,0.76975 13.706205,0.82275 C 13.771921,0.859076 13.799608,0.891107 13.798351,0.890893" />
      <path d="M -0.038534,2.147338 C -0.038569,2.147788 -0.034264,2.133999 -0.004687,2.104567 C 0.0265,2.070911 0.088797,2.028637 0.182206,1.977743 C 0.355868,1.886012 0.633315,1.790855 0.973925,1.716912 C 1.54056,1.591907 2.284786,1.521926 3.025032,1.526638 C 3.856831,1.52964 4.680058,1.629063 5.239228,1.788131 C 5.448773,1.847909 5.615459,1.910294 5.739285,1.975285 C 5.835124,2.027067 5.89893,2.070097 5.930704,2.104377 C 5.960452,2.133934 5.964783,2.147791 5.964744,2.147338" />
      <path d="M -9.859501,3.431981 C -9.85932,3.430126 -9.859139,3.42827 -9.858959,3.426415 C -9.858609,3.423841 -9.857371,3.419729 -9.855245,3.414076 C -9.852245,3.401587 -9.836392,3.378546 -9.807684,3.344952 C -9.767706,3.29814 -9.692776,3.242319 -9.582895,3.177489 C -9.362749,3.050759 -9.0056,2.920541 -8.561941,2.818416 C -7.794808,2.638955 -6.764221,2.539052 -5.741776,2.548101 C -4.603972,2.554804 -3.484318,2.699303 -2.75072,2.926696 C -2.494157,3.006235 -2.290739,3.089006 -2.140468,3.175011 C -2.02837,3.240711 -1.952047,3.297293 -1.911498,3.344755 C -1.882186,3.379107 -1.866177,3.402459 -1.863469,3.414811 C -1.860282,3.424118 -1.858959,3.429842 -1.859501,3.431981" />
    </g>
    <g fill="rgb(255,0,0)" stroke="rgb(99,99,99)" stroke-width="0.0280578883152263" id="Hidden" stroke-dasharray="0.000713 0.08453">
      <line x1="-12.624611" y1="2.192367" x2="-7.916997" y2="4.622345" />
      <line x1="18.550821" y1="0.732543" x2="-7.916997" y2="4.622345" />
      <path d="M 12.727234,0.65185 A 2.0,0.550852635266825 0.0 0,1 9.785711,0.165855" />
      <path d="M 9.785711,0.165855 A 2.0,0.550852635266825 0.0 1,1 13.785711,0.165855" />
      <path d="M 13.785711,0.165855 A 2.0,0.550852635266825 0.0 0,1 12.727234,0.65185" />
      <path d="M 4.375389,2.191449 A 3.0,0.8262789529002376 0.0 0,1 -0.036895,1.462455" />
      <path d="M -0.036895,1.462455 A 3.0,0.8262789529002376 0.0 1,1 5.963105,1.462455" />
      <path d="M 5.963105,1.462455 A 3.0,0.8262789529002376 0.0 0,1 4.375389,2.191449" />
      <path d="M -3.976455,3.731047 A 4.0,1.10170527053365 0.0 0,1 -9.859501,2.759056" />
      <path d="M -9.859501,2.759056 A 4.0,1.10170527053365 0.0 1,1 -1.859501,2.759056" />
      <path d="M -1.859501,2.759056 A 4.0,1.10170527053365 0.0 0,1 -3.976455,3.731047" />
      <line x1="-7.916997" y1="4.622345" x2="-7.916997" y2="5.295271" />
      <path d="M -7.857728,5.487954 C -7.894009,5.469902 -7.917244,5.394364 -7.916997,5.295271" />
      <path d="M 12.727234,-2.712778 A 2.0,0.550852635266825 0.0 0,1 9.785711,-3.198773" />
      <path d="M 13.785711,-3.198773 A 2.0,0.550852635266825 0.0 0,1 12.727234,-2.712778" />
      <path d="M 4.375389,-3.095823 A 3.0,0.8262789529002376 0.0 0,1 -0.036895,-3.824817" />
      <path d="M 5.963105,-3.824817 A 3.0,0.8262789529002376 0.0 0,1 4.375389,-3.095823" />
      <path d="M -3.976455,-3.478869 A 4.0,1.10170527053365 0.0 0,1 -9.859501,-4.450861" />
      <path d="M -1.859501,-4.450861 A 4.0,1.10170527053365 0.0 0,1 -3.976455,-3.478869" />
      <path d="M 11.31495,-3.441771 A 1.0,0.2754263176334125 180.0 0,0 10.785711,-3.198773" />
      <path d="M 10.785711,-3.198773 A 1.0,0.2754263176334125 180.0 0,0 12.785711,-3.198773" />
      <path d="M 12.785711,-3.198773 A 1.0,0.2754263176334125 180.0 0,0 11.31495,-3.441771" />
      <path d="M 2.256963,-4.189313 A 1.5,0.4131394764501188 180.0 0,0 1.463105,-3.824817" />
      <path d="M 1.463105,-3.824817 A 1.5,0.4131394764501188 180.0 0,0 4.463105,-3.824817" />
      <path d="M 4.463105,-3.824817 A 1.5,0.4131394764501188 180.0 0,0 2.256963,-4.189313" />
      <path d="M -6.801024,-4.936856 A 2.0,0.550852635266825 180.0 0,0 -7.859501,-4.450861" />
      <path d="M -7.859501,-4.450861 A 2.0,0.550852635266825 180.0 0,0 -3.859501,-4.450861" />
      <path d="M -3.859501,-4.450861 A 2.0,0.550852635266825 180.0 0,0 -6.801024,-4.936856" />
      <path d="M 9.880652,0.814221 A 2.0,0.550852635266825 0.0 0,1 9.785711,0.646516" />
      <path d="M 9.785711,0.646516 A 2.0,0.550852635266825 0.0 1,1 13.785711,0.646516" />
      <path d="M 13.785711,0.646516 A 2.0,0.550852635266825 0.0 0,1 13.69077,0.814221" />
      <path d="M 0.010903,2.090026 A 3.0,0.8262789529002376 0.0 0,1 -0.036895,1.943116" />
      <path d="M -0.036895,1.943116 A 3.0,0.8262789529002376 0.0 1,1 5.963105,1.943116" />
      <path d="M 5.963105,1.943116 A 3.0,0.8262789529002376 0.0 0,1 5.915307,2.090026" />
      <path d="M -9.830464,3.372223 A 4.0,1.10170527053365 0.0 0,1 -9.859501,3.239717" />
      <path d="M -9.859501,3.239717 A 4.0,1.10170527053365 0.0 1,1 -1.859501,3.239717" />
      <path d="M -1.859501,3.239717 A 4.0,1.10170527053365 0.0 0,1 -1.888538,3.372223" />
      <path d="M 11.31495,0.403518 A 1.0,0.2754263176334125 180.0 0,0 10.830509,0.565002" />
      <path d="M 12.740911,0.565 A 1.0,0.2754263176334125 180.0 0,0 11.31495,0.403518" />
      <line x1="13.785711" y1="-1.688985" x2="13.785711" y2="0.165855" />
      <line x1="9.785711" y1="-1.101131" x2="9.785711" y2="0.165855" />
      <line x1="5.963105" y1="-0.539348" x2="5.963105" y2="1.462455" />
      <line x1="-0.036895" y1="0.342433" x2="-0.036895" y2="1.462455" />
      <line x1="-1.859501" y1="0.61029" x2="-1.859501" y2="2.759056" />
      <line x1="-9.859501" y1="1.785997" x2="-9.859501" y2="2.759056" />
      <path d="M 9.785711,0.83878 C 9.786633,0.865467 9.773968,0.891231 9.773071,0.890893" />
      <path d="M 13.798351,0.890893 C 13.797454,0.891231 13.784789,0.865467 13.785711,0.83878" />
      <path d="M -0.036895,2.135381 Q -0.037545,2.145938 -0.038534,2.147338" />
      <path d="M 5.964744,2.147338 Q 5.963756,2.145938 5.963105,2.135381" />
      <line x1="13.785711" y1="0.646516" x2="13.785711" y2="0.83878" />
      <line x1="9.785711" y1="0.646516" x2="9.785711" y2="0.83878" />
      <line x1="5.963105" y1="1.943116" x2="5.963105" y2="2.135381" />
      <line x1="-0.036895" y1="1.943116" x2="-0.036895" y2="2.135381" />
      <line x1="-1.859501" y1="3.239717" x2="-1.859501" y2="3.431981" />
      <line x1="-9.859501" y1="3.239717" x2="-9.859501" y2="3.431981" />
      <line x1="10.785711" y1="0.646516" x2="10.785711" y2="-3.198773" />
      <line x1="12.785711" y1="0.646516" x2="12.785711" y2="-3.198773" />
      <line x1="1.463105" y1="1.943116" x2="1.463105" y2="-3.824817" />
      <line x1="4.463105" y1="1.943116" x2="4.463105" y2="-3.824817" />
      <line x1="-7.859501" y1="3.239717" x2="-7.859501" y2="-4.450861" />
      <line x1="-3.859501" y1="3.239717" x2="-3.859501" y2="-4.450861" />
      <line x1="-12.624611" y1="2.865293" x2="-7.916997" y2="5.295271" />
      <line x1="18.550821" y1="1.405469" x2="-7.916997" y2="5.295271" />
      <path d="M 9.7898,0.873986 A 2.0,0.550852635266825 0.0 0,1 9.785711,0.83878" />
      <path d="M 9.785711,0.83878 A 2.0,0.550852635266825 0.0 1,1 13.785711,0.83878" />
      <path d="M 13.785711,0.83878 A 2.0,0.550852635266825 0.0 0,1 13.781622,0.873986" />
      <path d="M -0.036742,2.143713 A 3.0,0.8262789529002376 0.0 0,1 -0.036895,2.135381" />
      <path d="M -0.036895,2.135381 A 3.0,0.8262789529002376 0.0 1,1 5.963105,2.135381" />
      <path d="M 5.963105,2.135381 A 3.0,0.8262789529002376 0.0 0,1 5.962953,2.143699" />
      <path d="M -9.859501,3.431981 A 4.0,1.10170527053365 0.0 1,1 -1.859501,3.431981" />
    </g>
  </g>
</svg>