<?xml version='1.0' encoding='utf-8'?>
<svg width="164.89499mm" height="181.079215mm" viewBox="-29.416056 -32.126734 58.832112 64.606406" version="1.1" xmlns="http://www.w3.org/2000/svg">
  <g transform="scale(1,-1)" stroke-linecap="round">
    <g fill="rgb(30,30,46)" stroke="none" stroke-width="0.032110678960433216">
      <path d="M -29.4,32.110679 L -29.4,-32.110679 L 29.4,-32.110679 L 29.4,32.110679 L -29.4,32.110679" />
    </g>
    <g fill="none" stroke="rgb(200,200,200)" stroke-width="0.032110678960433216" id="Visible">
      <path d="M -24.163794,-27.799008 A 24.5,4.664608580417582 0.0 0,1 24.836206,-27.799008" />
      <path d="M -24.163794,11.469316 A 24.5,4.664608580417582 0.0 0,1 24.836206,11.469316" />
      <path d="M -5.304825,-25.981253 C -5.25484,-26.35171 -5.266652,-26.728827 -5.362219,-27.073733 C -5.456328,-27.419584 -5.639112,-27.720162 -5.866489,-27.953278 C -6.325646,-28.420501 -6.921027,-28.667549 -7.518833,-28.832882 C -8.042657,-28.973787 -8.58032,-29.045487 -9.113618,-29.075397 C -9.648535,-29.1034 -10.177057,-29.091651 -10.699186,-29.040149 C -11.728505,-28.935405 -12.728887,-28.707861 -13.630253,-28.249718 C -14.042936,-28.035358 -14.435016,-27.768977 -14.767833,-27.398811 C -14.93605,-27.214446 -15.081191,-26.999107 -15.203256,-26.752794 C -15.323088,-26.506395 -15.408563,-26.22557 -15.45129,-25.935295" />
      <path d="M -8.359866,-22.165846 C -7.962001,-22.38347 -7.590252,-22.632014 -7.24462,-22.911477 C -6.752173,-23.310285 -6.316298,-23.763597 -5.973222,-24.277966 C -5.630979,-24.79041 -5.386168,-25.375931 -5.304825,-25.981253" />
      <path d="M -5.304825,0.572998 C -5.25484,0.938979 -5.266652,1.3171 -5.362219,1.670676 C -5.456328,2.025098 -5.639112,2.342522 -5.866489,2.598301 C -6.325646,3.111074 -6.921027,3.423814 -7.518833,3.666462 C -8.042657,3.874851 -8.58032,4.023528 -9.113618,4.138371 C -9.648535,4.251494 -10.177057,4.332436 -10.699186,4.381195 C -11.215597,4.431076 -11.720022,4.448851 -12.21246,4.434522 C -12.70354,4.418235 -13.180631,4.367785 -13.630251,4.25511 C -14.0491,4.148037 -14.446914,3.989921 -14.782777,3.71127 C -14.949898,3.571463 -15.100888,3.398694 -15.219236,3.181865 C -15.337981,2.965998 -15.420152,2.704588 -15.458686,2.421411 C -15.492535,2.165897 -15.497425,1.902312 -15.473359,1.630656" />
      <path d="M -7.664881,-2.551449 C -7.520439,-2.469723 -7.380363,-2.382447 -7.244653,-2.289623 C -6.752197,-1.951853 -6.316315,-1.54586 -5.973233,-1.066293 C -5.630985,-0.588547 -5.386169,-0.024948 -5.304825,0.572998" />
      <path d="M -5.304825,-25.981253 C -5.697682,-26.141751 -6.148337,-26.35133 -6.341677,-26.463445" />
      <path d="M -6.341677,-26.463445 C -6.292499,-26.683584 -6.291978,-26.872596 -6.340117,-27.030482 C -6.387677,-27.189076 -6.473125,-27.32803 -6.609129,-27.467581 C -6.879954,-27.748847 -7.373846,-27.977647 -7.910485,-28.112728 C -8.379866,-28.233366 -8.885822,-28.298166 -9.392465,-28.323499 C -9.902237,-28.347555 -10.408885,-28.334865 -10.912409,-28.285429 C -11.901432,-28.186935 -12.869684,-27.964284 -13.682795,-27.561684 C -14.033302,-27.38703 -14.350927,-27.17204 -14.59174,-26.931321" />
      <path d="M -6.992151,-25.079099 C -6.651727,-25.576067 -6.429209,-26.080266 -6.341677,-26.463445" />
      <path d="M 2.360761,20.088139 A 4.5,0.8567648413011885 0.0 0,1 -1.68835,18.557823 A 4.5,0.8567648413011885 0.0 0,1 2.360761,20.088139" />
      <path d="M -5.304825,0.572998 C -5.697682,0.77182 -6.148337,0.894052 -6.341677,0.854224" />
      <path d="M -6.341677,0.854224 C -6.292499,1.112051 -6.291978,1.329909 -6.340117,1.507798 C -6.387677,1.68669 -6.473125,1.841566 -6.609129,2.001507 C -6.879954,2.322517 -7.373846,2.605588 -7.910485,2.811297 C -8.379866,2.993108 -8.885822,3.130119 -9.392465,3.236257 C -9.902237,3.341446 -10.408885,3.417643 -10.912409,3.464849 C -11.901431,3.555545 -12.869683,3.555649 -13.682793,3.36708 C -13.994662,3.292973 -14.28019,3.185824 -14.509208,3.038539 C -14.74027,2.890819 -14.901649,2.709419 -15.010294,2.512935" />
      <path d="M -6.67866,-0.13411 C -6.51298,0.214405 -6.39808,0.561211 -6.341677,0.854224" />
      <path d="M -6.341677,0.854224 A 17.0,7.508418471128535 -95.47864200045937 0,1 -6.341677,-26.463445" />
      <line x1="24.836206" y1="-27.799008" x2="24.836206" y2="11.469316" />
      <line x1="-24.163794" y1="-27.799008" x2="-24.163794" y2="11.469316" />
      <path d="M 6.653887,20.759119 C 4.558869,20.959808 2.41636,21.055878 0.271327,21.054151 C -3.322346,21.047995 -6.887105,20.778737 -10.273007,20.179957 C -12.711532,19.745175 -15.082847,19.135576 -17.27173,18.25934 C -18.053596,17.947368 -18.802506,17.597666 -19.518459,17.210236 C -20.395989,16.732172 -21.21401,16.191754 -21.921177,15.579384 C -22.455576,15.11641 -22.92558,14.611732 -23.29574,14.068824 C -23.846761,13.265159 -24.166502,12.370882 -24.163794,11.469316" />
      <path d="M 6.653887,20.759119 C 8.156778,20.615785 9.628309,20.41549 11.068481,20.158235 C 12.509524,19.898404 13.925236,19.574444 15.298511,19.170284 C 16.670597,18.765875 18.000618,18.281739 19.238177,17.69482 C 20.474373,17.10743 21.618478,16.41773 22.581937,15.589471 C 23.117688,15.126727 23.589178,14.622237 23.96093,14.079391 C 24.516321,13.272947 24.838952,12.374848 24.836206,11.469316" />
      <path d="M -15.010305,2.512919 C -16.020804,0.700994 -16.861019,-1.510107 -17.473086,-3.936056 C -18.277375,-7.112029 -18.676769,-10.646931 -18.608648,-13.980007 C -18.54679,-17.160548 -18.067491,-20.13665 -17.210679,-22.527074 C -16.834885,-23.583876 -16.380356,-24.529252 -15.847091,-25.363201 C -15.479449,-25.933542 -15.072358,-26.452372 -14.591731,-26.931329" />
      <path d="M -6.67866,-0.134107 C -7.243739,-1.31752 -7.749074,-2.675443 -8.166146,-4.140098 C -9.122168,-7.476459 -9.599656,-11.372101 -9.491069,-14.964723 C -9.43218,-17.031259 -9.184645,-18.996493 -8.773843,-20.698182 C -8.551473,-21.621937 -8.28155,-22.467993 -7.976786,-23.20919 C -7.673086,-23.949896 -7.331698,-24.586461 -6.992158,-25.079089" />
    </g>
    <g fill="none" stroke="rgb(99,99,99)" stroke-width="0.032110678960433216" id="Hidden" stroke-dasharray="0.000816 0.09674">
      <path d="M 11.358785,-23.633147 A 24.5,4.664608580417582 0.0 0,1 -24.163794,-27.799008" />
      <path d="M 24.836206,-27.799008 A 24.5,4.664608580417582 0.0 0,1 11.358785,-23.633147" />
      <path d="M 11.358785,15.635177 A 24.5,4.664608580417582 0.0 0,1 -24.163794,11.469316" />
      <path d="M 24.836206,11.469316 A 24.5,4.664608580417582 0.0 0,1 11.358785,15.635177" />
      <path d="M 9.784131,-24.22827 A 21.0,3.998235926072213 0.0 0,1 -20.661863,-27.744786" />
      <path d="M -20.661863,-27.744786 A 21.0,3.998235926072213 0.0 1,1 21.334274,-27.744786" />
      <path d="M 21.334274,-27.744786 A 21.0,3.998235926072213 0.0 0,1 9.784131,-24.22827" />
      <path d="M -14.59174,-26.931321 C -14.711334,-26.811878 -14.800557,-26.69886 -14.876412,-26.578812 C -14.998318,-26.382988 -15.100101,-26.147124 -15.143918,-25.800843 C -15.161491,-25.645418 -15.169718,-25.491037 -15.148408,-25.262756 C -15.13903,-25.150131 -15.115046,-25.016233 -15.076457,-24.861063 C -15.035638,-24.705587 -14.972567,-24.521733 -14.869558,-24.323354 C -14.698627,-23.997761 -14.496836,-23.758473 -14.266802,-23.542897 C -14.037128,-23.331539 -13.782119,-23.153049 -13.501777,-23.007425 C -12.749951,-22.615706 -11.838766,-22.460884 -10.84046,-22.640999 C -10.412456,-22.718038 -9.974643,-22.855762 -9.551922,-23.044056 C -9.129626,-23.231427 -8.72625,-23.467368 -8.377288,-23.715894 C -8.027458,-23.964457 -7.733728,-24.223507 -7.505992,-24.458074 C -7.277099,-24.693685 -7.113744,-24.902618 -6.992151,-25.079099" />
      <path d="M -15.010294,2.512935 C -15.040482,2.461758 -15.069256,2.391487 -15.096614,2.302123 C -15.129771,2.183792 -15.16302,2.025853 -15.160751,1.759477 C -15.160758,1.658454 -15.150446,1.532604 -15.129817,1.381928 C -15.10709,1.227764 -15.071314,1.042409 -14.983788,0.774863 C -14.92273,0.592132 -14.827737,0.354771 -14.690765,0.105 C -14.554817,-0.145049 -14.380242,-0.4046 -14.186832,-0.640939 C -13.991079,-0.878916 -13.784818,-1.091647 -13.56805,-1.279132 C -13.354429,-1.46527 -13.1317,-1.629914 -12.89986,-1.773062 C -11.742434,-2.489169 -10.527826,-2.5784 -9.417038,-2.251851 C -8.715925,-2.049479 -8.083845,-1.676838 -7.663139,-1.330584 C -7.376357,-1.096655 -7.179643,-0.882234 -7.037786,-0.703454 C -6.854866,-0.470867 -6.753752,-0.289412 -6.67866,-0.13411" />
      <line x1="18.942349" y1="5.832555" x2="21.334274" y2="-27.744786" />
      <line x1="-18.269938" y1="5.832555" x2="-20.661863" y2="-27.744786" />
      <path d="M -18.269938,5.832555 C -18.234684,6.358774 -18.073501,6.868122 -17.841346,7.300177 C -17.609431,7.734738 -17.306544,8.092006 -16.994384,8.381729 C -16.406008,8.918674 -15.782124,9.25489 -15.10197,9.54947 C -14.523637,9.795624 -13.894704,10.003251 -13.198203,10.191067 C -12.501943,10.37809 -11.739512,10.545776 -10.910912,10.694124 C -9.369901,10.970911 -7.597153,11.185821 -5.688731,11.330938 C -3.781716,11.476153 -1.739025,11.551577 0.303876,11.552066 C 2.836616,11.553347 5.366684,11.439662 7.64791,11.220489" />
      <path d="M 18.942349,5.832555 C 18.907095,6.358774 18.745912,6.868122 18.513757,7.300177 C 18.281842,7.734738 17.978956,8.092006 17.666796,8.381729 C 17.493389,8.540719 17.315818,8.683548 17.134084,8.810217 C 16.702481,9.112499 16.254451,9.343675 15.774381,9.54947 C 14.783356,9.970028 13.629837,10.28815 12.267281,10.564021 C 10.908764,10.837657 9.346786,11.057287 7.64791,11.220489" />
      <path d="M -15.45129,-25.935295 C -15.453756,-25.917786 -15.456221,-25.900278 -15.458687,-25.88277 C -15.554333,-25.137183 -15.408845,-24.381511 -15.122834,-23.773145 C -14.833848,-23.15995 -14.406472,-22.672047 -13.886106,-22.2848 C -13.469247,-21.976544 -12.987026,-21.732547 -12.447829,-21.577535 C -11.909698,-21.422398 -11.312594,-21.362087 -10.698709,-21.420283 C -9.901386,-21.493006 -9.088128,-21.76743 -8.359866,-22.165846" />
      <path d="M -15.473359,1.630656 C -15.420238,1.008485 -15.232378,0.387733 -14.955333,-0.16211 C -14.67751,-0.714107 -14.314165,-1.207079 -13.886108,-1.641283 C -13.46925,-2.062723 -12.987029,-2.430045 -12.447832,-2.710626 C -11.9097,-2.991229 -11.312597,-3.179155 -10.698712,-3.238762 C -10.169379,-3.291552 -9.630975,-3.249254 -9.117129,-3.126593 C -8.602749,-3.004246 -8.113128,-2.804862 -7.664881,-2.551449" />
      <path d="M -14.59174,-26.931321 C -14.730187,-26.791808 -14.841931,-26.652081 -14.926971,-26.51214 C -15.01273,-26.373114 -15.076048,-26.237194 -15.133427,-26.082442 C -15.201404,-25.901959 -15.257455,-25.695006 -15.30158,-25.461585 C -15.343237,-25.228994 -15.361986,-24.968265 -15.323691,-24.704454 C -15.250636,-24.172313 -14.942076,-23.668791 -14.498421,-23.277163 C -14.143235,-22.962053 -13.698871,-22.706066 -13.18615,-22.541671 C -12.67429,-22.376954 -12.090864,-22.309793 -11.485858,-22.367201 C -10.880041,-22.422772 -10.258156,-22.602912 -9.67916,-22.870629 C -9.099248,-23.138168 -8.561338,-23.487524 -8.093521,-23.881125 C -7.659048,-24.246551 -7.283068,-24.655139 -6.992151,-25.079099" />
      <path d="M -15.010294,2.512935 C -15.056047,2.430904 -15.097092,2.339057 -15.133427,2.237395 C -15.201404,2.051213 -15.257455,1.818534 -15.30158,1.539359 C -15.343237,1.262152 -15.361986,0.94261 -15.323692,0.617011 C -15.250637,-0.039457 -14.942077,-0.681516 -14.498423,-1.224162 C -14.143237,-1.659745 -13.698873,-2.044266 -13.186152,-2.337907 C -12.674293,-2.631682 -12.090867,-2.82825 -11.485861,-2.887001 C -10.880051,-2.947988 -10.258172,-2.870031 -9.67918,-2.682757 C -9.099274,-2.49582 -8.561368,-2.206496 -8.093552,-1.850405 C -7.785698,-1.616188 -7.511564,-1.35401 -7.271148,-1.063869 C -7.032093,-0.775166 -6.832282,-0.457191 -6.67866,-0.13411" />
      <path d="M 8.707902,8.948498 A 18.607854850456604,3.5427901795348897 0.0 0,1 -18.269938,5.832555" />
      <path d="M -18.269938,5.832555 A 18.607854850456604,3.5427901795348897 0.0 1,1 18.942349,5.832555" />
      <path d="M 18.942349,5.832555 A 18.607854850456604,3.5427901795348897 0.0 0,1 8.707902,8.948498" />
      <path d="M 7.361486,11.179318 A 15.61516269967713,2.97300497606247 0.0 0,1 -6.689075,5.869066 A 15.61516269967713,2.97300497606247 0.0 0,1 7.361486,11.179318" />
    </g>
  </g>
</svg>