<?xml version='1.0' encoding='utf-8'?>
<svg width="90.110689mm" height="120.09mm" viewBox="-116.321928 -155.021568 232.643856 310.043136" version="1.1" xmlns="http://www.w3.org/2000/svg">
  <g transform="scale(1,-1)" stroke-linecap="round">
    <g fill="rgb(30,30,46)" stroke="none" stroke-width="0.23235808309956837">
      <path d="M -116.205749,154.905389 L -116.205749,-154.905389 L 116.205749,-154.905389 L 116.205749,154.905389 L -116.205749,154.905389" />
    </g>
    <g fill="none" stroke="rgb(200,200,200)" stroke-width="0.23235808309956837" id="Visible">
      <path d="M 19.825825,-59.833355 A 16.66666666666667,8.222872048082726 5.484860933788186e-15 0,0 -6.403375,-55.040844" />
      <path d="M -6.403375,-55.040844 A 16.666666699655302,8.222872064358404 5.484860933788186e-15 1,0 26.123035,-51.444171" />
      <path d="M 26.123035,-51.444171 A 16.66666666666667,8.222872048082726 5.484860933788186e-15 0,0 19.825825,-59.833355" />
      <path d="M -13.413544,-39.609163 A 16.66666666666667,8.222872048082726 5.484860933788186e-15 0,0 -12.646206,-34.783277" />
      <path d="M -12.646206,-34.783277 A 16.66666666666667,8.222872048082726 5.484860933788186e-15 0,0 19.112866,-36.01249" />
      <path d="M 2.964444,-15.334366 A 16.666666666666668,8.222872048082726 9.141434889646978e-15 0,0 35.126055,-18.275349" />
      <path d="M 35.126055,-18.275349 A 16.666666666666668,8.222872048082726 9.141434889646978e-15 0,0 33.956179,-21.389464" />
      <path d="M 1.400175,0.033802 A 16.66666666666667,8.222872048082726 3.656573955858791e-15 0,0 33.386837,3.357403" />
      <path d="M 33.386837,3.357403 A 16.66666666666667,8.222872048082726 3.656573955858791e-15 0,0 34.731661,0.206934" />
      <path d="M -7.484014,8.668094 A 16.66666666666667,8.222872048082726 0.0 0,0 -8.662563,13.066947" />
      <path d="M -8.662563,13.066947 A 16.66666666666667,8.222872048082726 0.0 0,0 23.157824,15.142163" />
      <path d="M -2.034048,35.980767 A 16.66666666666667,8.222872048082726 -1.8282869779293957e-15 0,0 31.118822,34.490946" />
      <path d="M 31.118822,34.490946 A 16.66666666666667,8.222872048082726 -1.8282869779293957e-15 0,0 30.964889,33.65713" />
      <path d="M -0.788496,52.442881 A 16.66666666666667,8.222872048082726 -7.313147911717583e-15 0,0 32.476717,52.781484" />
      <path d="M 32.476717,52.781484 A 16.66666666666667,8.222872048082726 -7.313147911717583e-15 0,0 32.518308,51.786876" />
      <path d="M -3.355049,67.269121 A 16.66666666666667,8.222872048082726 -1.8282869779293957e-15 0,0 -3.314344,68.815016" />
      <path d="M -3.314344,68.815016 A 16.66666666666667,8.222872048082726 -1.8282869779293957e-15 0,0 29.868572,68.602331" />
      <path d="M 1.10042,89.0674 A 16.66666666666667,8.222872048082726 0.0 0,0 34.26858,88.93887" />
      <path d="M 34.26858,88.93887 A 16.66666666666667,8.222872048082726 0.0 0,0 34.24263,87.308819" />
      <path d="M -1.737241,102.567728 A 16.66666666666667,8.222872048082726 -1.8282869779293957e-15 0,0 31.176274,104.995295" />
      <path d="M 31.176274,104.995295 A 16.66666666666667,8.222872048082726 -1.8282869779293957e-15 0,0 31.456869,104.069249" />
      <path d="M -8.263249,117.763831 A 16.66666674651266,8.222872087476526 -9.141434889646978e-15 1,0 24.369671,121.117444" />
      <path d="M -20.250484,-74.584193 A 16.66666666666667,8.222872048082726 3.656573955858791e-15 0,0 -46.25164,-70.235416" />
      <path d="M -46.25164,-70.235416 A 16.66666666666667,8.222872048082726 3.656573955858791e-15 1,0 -14.181318,-65.751275" />
      <path d="M -14.181318,-65.751275 A 16.66666666666667,8.222872048082726 3.656573955858791e-15 0,0 -20.250484,-74.584193" />
      <path d="M -56.251608,-52.82648 A 16.66666666666667,8.222872048082726 3.656573955858791e-15 0,0 -56.673457,-49.284246" />
      <path d="M -56.673457,-49.284246 A 16.66666666666667,8.222872048082726 3.656573955858791e-15 0,0 -24.181285,-48.342339" />
      <path d="M -50.261247,-29.527747 A 16.66666666666667,8.222872048082726 3.656573955858791e-15 0,0 -50.25988,-29.523541" />
      <path d="M -50.25988,-29.523541 A 16.66666666666667,8.222872048082726 3.656573955858791e-15 0,0 -17.347227,-32.128076" />
      <path d="M -17.347227,-32.128076 A 16.66666666666667,8.222872048082726 3.656573955858791e-15 0,0 -17.348594,-32.132281" />
      <path d="M -44.051237,-10.45751 A 16.66666666666667,8.222872048082726 -1.8282869779293957e-15 0,0 -12.353253,-8.435775" />
      <path d="M -12.353253,-8.435775 A 16.66666666666667,8.222872048082726 -1.8282869779293957e-15 0,0 -11.139951,-13.06625" />
      <path d="M -52.074596,-4.784594 A 16.66666666666667,8.222872048082726 1.8282869779293957e-15 0,0 -52.275424,1.63391" />
      <path d="M -52.275424,1.63391 A 16.66666666666667,8.222872048082726 1.8282869779293957e-15 0,0 -21.589914,1.867617" />
      <path d="M -34.654587,23.053789 A 16.66666666666667,8.222872048082726 5.484860933788186e-15 0,0 -5.347826,24.525514" />
      <path d="M -39.720235,32.216512 A 16.66666666666667,8.222872048082726 5.484860933788186e-15 0,0 -7.152068,35.578813" />
      <path d="M -7.152068,35.578813 A 16.66666666666667,8.222872048082726 5.484860933788186e-15 0,0 -6.743344,34.615124" />
      <path d="M -48.713518,48.266308 A 16.66666666666667,8.222872048082726 -9.141434889646978e-15 0,0 -49.298826,50.5446" />
      <path d="M -49.298826,50.5446 A 16.66666666666667,8.222872048082726 -9.141434889646978e-15 0,0 -16.554076,52.592297" />
      <path d="M -48.675386,72.479221 A 16.66666666666667,8.222872048082726 -3.656573955858791e-15 0,0 -15.360023,72.727852" />
      <path d="M -15.360023,72.727852 A 16.66666666666667,8.222872048082726 -3.656573955858791e-15 0,0 -15.34533,72.248626" />
      <path d="M -49.691266,83.477168 A 16.666666666666675,8.222872048082728 -1.279800884550577e-14 0,0 -49.500396,85.133671" />
      <path d="M -49.500396,85.133671 A 16.666666666666675,8.222872048082728 -1.279800884550577e-14 0,0 -16.390595,84.205025" />
      <path d="M -42.681054,106.271105 A 16.666666666666675,8.22287204808273 -1.4626295823435165e-14 1,0 -9.762122,103.685956" />
      <path d="M -60.326793,-89.335031 A 16.666666666666668,8.222872048082724 3.656573955858791e-15 0,0 -86.735563,-84.087474" />
      <path d="M -86.735563,-84.087474 A 16.666666940373766,8.222872183122231 3.656573955858791e-15 0,0 -53.850013,-81.400893" />
      <path d="M -53.850013,-81.400893 A 16.666666666666668,8.222872048082724 3.656573955858791e-15 0,0 -60.326793,-89.335031" />
      <path d="M -91.748286,-69.151678 A 16.666666666666668,8.222872048082724 3.656573955858791e-15 0,0 -91.949997,-67.38429" />
      <path d="M -91.949997,-67.38429 A 16.666666666666668,8.222872048082724 3.656573955858791e-15 0,0 -58.862737,-66.465096" />
      <path d="M -89.519938,-44.169168 A 16.66666666666667,8.222872048082728 1.645458280136456e-14 0,0 -88.494612,-41.724075" />
      <path d="M -88.494612,-41.724075 A 16.66666666666667,8.222872048082728 1.645458280136456e-14 0,0 -56.230968,-45.017362" />
      <path d="M -79.321651,-29.569005 A 16.666666666666675,8.222872048082728 2.1939443735152745e-14 0,0 -49.745489,-27.943905" />
      <path d="M -82.723348,-11.442575 A 16.666666666666675,8.222872048082726 1.0969721867576372e-14 0,0 -49.784779,-9.270485" />
      <path d="M -49.784779,-9.270485 A 16.666666666666675,8.222872048082726 1.0969721867576372e-14 0,0 -49.439833,-10.543772" />
      <path d="M -90.966144,7.059492 A 16.666666666666675,8.222872048082726 1.0969721867576372e-14 0,0 -91.289792,9.394063" />
      <path d="M -91.289792,9.394063 A 16.666666666666675,8.222872048082726 1.0969721867576372e-14 0,0 -58.37252,10.50487" />
      <path d="M -88.897953,25.208624 A 16.66666666666667,8.222872048082724 9.141434889646978e-15 0,0 -88.778961,25.751629" />
      <path d="M -88.778961,25.751629 A 16.66666666666667,8.222872048082724 9.141434889646978e-15 0,0 -55.657034,23.984861" />
      <path d="M -83.778977,43.141708 A 16.666666666666675,8.222872048082726 9.141434889646978e-15 0,0 -51.79921,45.036167" />
      <path d="M -51.79921,45.036167 A 16.666666666666675,8.222872048082726 9.141434889646978e-15 0,0 -50.776042,40.831936" />
      <path d="M -94.371569,53.289525 A 16.666666666666675,8.222872048082726 1.645458280136456e-14 0,0 -95.477618,57.155122" />
      <path d="M -95.477618,57.155122 A 16.666666666666675,8.222872048082726 1.645458280136456e-14 0,0 -63.41497,59.388215" />
      <path d="M -92.080687,73.955168 A 16.666666666666675,8.222872048082726 1.645458280136456e-14 0,0 -91.960696,74.416235" />
      <path d="M -91.960696,74.416235 A 16.666666666666675,8.222872048082726 1.645458280136456e-14 0,0 -58.911989,72.322664" />
      <path d="M -84.123521,99.006007 A 16.66666674225259,8.222872085374725 1.4626295823435162e-14 0,0 -51.194805,96.451368" />
      <path d="M 49.723809,-79.605896 A 16.666666666666668,8.222872048082724 3.656573955858791e-15 0,0 23.095419,-73.201195" />
      <path d="M 23.095419,-73.201195 A 16.666666666666668,8.222872048082724 3.656573955858791e-15 1,0 56.42021,-72.828903" />
      <path d="M 56.42021,-72.828903 A 16.666666666666668,8.222872048082724 3.656573955858791e-15 0,0 49.723809,-79.605896" />
      <path d="M 24.354303,-47.550612 A 16.666666666666668,8.222872048082724 3.656573955858791e-15 0,0 55.230925,-50.35716" />
      <path d="M 55.230925,-50.35716 A 16.666666666666668,8.222872048082724 3.656573955858791e-15 0,0 55.440597,-51.484316" />
      <path d="M 24.001122,-33.792215 A 16.666666666666664,8.222872048082724 7.313147911717583e-15 0,0 51.401381,-38.679119" />
      <path d="M 35.038673,-14.180438 A 16.666666666666664,8.222872048082726 1.279800884550577e-14 0,0 60.583959,-20.565202" />
      <path d="M 60.583959,-20.565202 A 16.666666666666664,8.222872048082726 1.279800884550577e-14 0,0 60.178885,-23.012728" />
      <path d="M 31.431635,5.609974 A 16.666666666666668,8.222872048082726 1.4626295823435165e-14 0,0 57.797727,-0.501116" />
      <path d="M 27.002302,19.95904 A 16.666666666666664,8.222872048082724 7.313147911717583e-15 0,0 59.635185,17.356722" />
      <path d="M 59.635185,17.356722 A 16.666666666666664,8.222872048082724 7.313147911717583e-15 0,0 59.624378,17.221712" />
      <path d="M 31.738935,42.154779 A 16.666666666666664,8.222872048082726 5.484860933788187e-15 0,0 60.734538,37.660478" />
      <path d="M 60.734538,37.660478 A 16.666666666666664,8.222872048082726 5.484860933788187e-15 0,0 60.843844,36.429039" />
      <path d="M 32.212566,54.383806 A 16.666666666666668,8.222872048082726 1.4626295823435165e-14 0,0 58.100914,48.547618" />
      <path d="M 31.177373,73.247193 A 16.666666666666664,8.222872048082726 1.279800884550577e-14 0,0 57.220405,66.664075" />
      <path d="M 33.13832,95.021023 A 16.666666666666668,8.222872048082726 1.4626295823435165e-14 0,0 58.440887,87.760092" />
      <path d="M 30.05833,107.643261 A 16.666666666666664,8.222872048082726 1.279800884550577e-14 0,0 60.593375,102.528649" />
      <path d="M 9.6475,-94.356734 A 16.666666666666668,8.222872048082724 3.656573955858791e-15 0,0 -16.756671,-89.122807" />
      <path d="M -16.756671,-89.122807 A 16.666666666666668,8.222872048082724 3.656573955858791e-15 0,0 16.119682,-86.408967" />
      <path d="M 16.119682,-86.408967 A 16.666666666666668,8.222872048082724 3.656573955858791e-15 0,0 9.6475,-94.356734" />
      <path d="M -15.304173,-63.796496 A 16.666666666666668,8.222872048082724 3.656573955858791e-15 0,0 10.318172,-69.301334" />
      <path d="M -13.217906,-46.971715 A 16.666666666666664,8.222872048082722 7.313147911717583e-15 0,0 -11.221982,-44.433511" />
      <path d="M -13.791029,-36.94251 A 16.666666666666664,8.222872048082722 9.141434889646978e-15 0,0 -13.791794,-36.858951" />
      <path d="M -13.791794,-36.858951 A 16.666666666666664,8.222872048082722 9.141434889646978e-15 0,0 -10.246292,-31.793285" />
      <path d="M -11.239891,-10.180874 A 16.666666666666664,8.22287204808272 1.2798008845505766e-14 0,0 1.536148,-6.338228" />
      <path d="M -13.999687,4.431662 A 16.666666666666664,8.22287204808272 1.2798008845505766e-14 0,0 -5.3498,6.209284" />
      <path d="M -11.653127,43.723743 A 16.666666666666664,8.22287204808272 1.4626295823435162e-14 0,0 -1.617948,42.19187" />
      <path d="M -5.292662,53.805704 A 16.666666666666668,8.222872048082724 2.1939443735152745e-14 0,0 -1.448874,55.706379" />
      <path d="M -15.477484,74.03599 A 16.666666666666668,8.222872048082722 1.279800884550577e-14 0,0 -1.714673,76.153382" />
      <path d="M -12.776242,94.343301 A 16.666666666666668,8.22287204808272 1.645458280136456e-14 0,0 0.110544,92.624428" />
      <path d="M -30.428809,-109.107572 A 16.666666666666668,8.222872048082724 7.313147911717583e-15 0,0 -55.90274,-99.504257" />
      <path d="M -55.90274,-99.504257 A 16.666666666666668,8.222872048082724 7.313147911717583e-15 0,0 -24.886867,-105.529193" />
      <path d="M -24.886867,-105.529193 A 16.666666666666668,8.222872048082724 7.313147911717583e-15 0,0 -30.428809,-109.107572" />
      <path d="M -42.505841,-82.716782 A 16.666666666666668,8.222872048082724 7.313147911717583e-15 0,0 -20.473468,-78.162625" />
      <path d="M -57.413302,-70.783798 A 16.666666666666668,8.222872048082724 7.313147911717583e-15 0,0 -49.2021,-65.098964" />
      <path d="M -48.248791,-21.279738 A 16.66666666666667,8.222872048082726 -1.8282869779293957e-15 0,0 -47.474462,-20.969843" />
      <path d="M -49.576279,-9.851737 A 16.666666666666668,8.22287204808272 0.0 0,0 -47.736299,-9.623917" />
      <path d="M -46.462357,18.947897 A 16.66666666666667,8.222872048082724 -5.484860933788186e-15 0,0 -37.875257,26.042178" />
      <path d="M -47.84051,38.531814 A 16.66666666666667,8.222872048082724 -1.2798008845505766e-14 0,0 -45.715003,42.840318" />
      <path d="M -60.828595,56.192575 A 16.666666666666668,8.222872048082722 -5.484860933788185e-15 0,0 -61.041331,57.37285" />
      <path d="M -61.041331,57.37285 A 16.666666666666668,8.222872048082722 -5.484860933788185e-15 0,0 -48.875834,65.426812" />
      <path d="M -55.965608,81.482586 A 16.666666666666668,8.222872048082722 -1.0969721867576372e-14 0,0 -49.665613,83.191484" />
      <path d="M 79.621793,-99.378438 A 16.666666666666668,8.222872048082724 3.656573955858791e-15 0,0 53.069259,-93.592936" />
      <path d="M 53.069259,-93.592936 A 16.66666696039469,8.222872192999999 3.656573955858791e-15 0,0 86.242338,-91.982245" />
      <path d="M 86.242338,-91.982245 A 16.666666666666668,8.222872048082724 3.656573955858791e-15 0,0 79.621793,-99.378438" />
      <path d="M 56.015511,-64.011014 A 16.666666666666668,8.222872048082724 3.656573955858791e-15 0,0 81.865793,-70.041339" />
      <path d="M 67.697268,-54.548484 A 16.666666666666668,8.222872048082724 7.313147911717583e-15 0,0 97.400751,-56.810229" />
      <path d="M 97.400751,-56.810229 A 16.666666666666668,8.222872048082724 7.313147911717583e-15 0,0 95.202023,-63.839086" />
      <path d="M 57.474706,-28.676244 A 16.66666666666667,8.222872048082726 1.8282869779293957e-15 0,0 82.833412,-33.080366" />
      <path d="M 59.368006,-11.808936 A 16.66666666666667,8.222872048082726 5.484860933788186e-15 0,0 86.314834,-17.750361" />
      <path d="M 86.314834,-17.750361 A 16.66666666666667,8.222872048082726 5.484860933788186e-15 0,0 86.294459,-18.926668" />
      <path d="M 58.526202,5.868749 A 16.666666666666668,8.222872048082724 3.656573955858791e-15 0,0 84.113822,-0.548579" />
      <path d="M 59.84557,20.676539 A 16.666666666666668,8.222872048082724 3.656573955858791e-15 0,0 85.515968,13.383451" />
      <path d="M 61.270977,33.185973 A 16.666666666666664,8.222872048082722 -1.8282869779293957e-15 0,0 94.122183,31.558354" />
      <path d="M 94.122183,31.558354 A 16.666666666666664,8.222872048082722 -1.8282869779293957e-15 0,0 93.664011,29.30735" />
      <path d="M 59.604146,46.655382 A 16.666666666666664,8.222872048082724 -3.656573955858791e-15 0,0 92.595157,48.596126" />
      <path d="M 92.595157,48.596126 A 16.666666666666664,8.222872048082724 -3.656573955858791e-15 0,0 92.913523,47.278766" />
      <path d="M 57.656588,73.92911 A 16.666666666666664,8.222872048082722 1.8282869779293957e-15 0,0 84.210981,69.061949" />
      <path d="M 58.302419,85.318229 A 16.666666666666664,8.222872048082722 1.8282869779293957e-15 0,0 88.894147,79.62181" />
      <path d="M 39.545484,-114.129276 A 16.666666666666668,8.222872048082724 3.656573955858791e-15 0,0 13.042035,-106.516494" />
      <path d="M 13.042035,-106.516494 A 16.666667009653388,8.222872217302879 3.656573955858791e-15 0,0 46.116944,-108.560363" />
      <path d="M 46.116944,-108.560363 A 16.666666666666668,8.222872048082724 3.656573955858791e-15 0,0 39.545484,-114.129276" />
      <path d="M 18.258326,-85.969094 A 16.666666666666668,8.222872048082724 3.656573955858791e-15 0,0 28.976361,-79.285694" />
      <path d="M 45.577233,-80.720384 A 16.666666666666668,8.222872048082724 3.656573955858791e-15 0,0 51.058985,-85.192692" />
      <path d="M 51.058985,-85.192692 A 16.666666666666668,8.222872048082724 3.656573955858791e-15 0,0 51.333234,-88.012963" />
      <path d="M 11.120369,-71.666872 A 16.666666666666664,8.222872048082722 3.656573955858791e-15 0,0 11.356659,-70.175499" />
      <path d="M 11.356659,-70.175499 A 16.666666666666664,8.222872048082722 3.656573955858791e-15 0,0 22.660958,-63.734833" />
      <path d="M -0.530824,-128.880114 A 16.66666666666667,8.222872048082726 5.484860933788186e-15 0,0 -26.516364,-124.558348" />
      <path d="M -26.516364,-124.558348 A 16.66666666666667,8.222872048082726 5.484860933788186e-15 1,0 5.522725,-120.020185" />
      <path d="M 5.522725,-120.020185 A 16.66666666666667,8.222872048082726 5.484860933788186e-15 0,0 -0.530824,-128.880114" />
      <path d="M -16.880635,-95.496692 A 16.66666666666667,8.222872048082726 5.484860933788186e-15 0,0 -5.469595,-101.12988" />
      <path d="M -22.489296,-47.971176 A 16.666666666666668,8.222872048082724 5.484860933788186e-15 0,0 -13.581371,-47.718221" />
      <path d="M -14.913364,-24.65397 A 16.666666666666668,8.222872048082724 7.313147911717583e-15 0,0 -13.778084,-24.843428" />
      <path d="M -6.403375,-55.040844 L -13.413544,-39.609163" />
      <path d="M 26.123035,-51.444171 L 19.112866,-36.01249" />
      <path d="M -12.646206,-34.783277 L 2.964444,-15.334366" />
      <path d="M 20.23548,-38.483732 L 33.956179,-21.389464" />
      <path d="M 1.760134,-16.834786 L 1.400175,0.033802" />
      <path d="M 35.126055,-18.275349 L 34.731661,0.206934" />
      <path d="M 1.435202,-1.607661 L -7.484014,8.668094" />
      <path d="M 33.386837,3.357403 L 23.157824,15.142163" />
      <path d="M -8.662563,13.066947 L -2.034048,35.980767" />
      <path d="M 24.996189,13.024198 L 30.964889,33.65713" />
      <path d="M -2.154091,35.565795 L -0.788496,52.442881" />
      <path d="M 31.118822,34.490946 L 32.518308,51.786876" />
      <path d="M -0.828785,51.944956 L -3.355049,67.269121" />
      <path d="M 32.476717,52.781484 L 29.868572,68.602331" />
      <path d="M -3.314344,68.815016 L 1.10042,89.0674" />
      <path d="M 29.996153,67.828435 L 34.24263,87.308819" />
      <path d="M 0.922894,88.253012 L -1.737241,102.567728" />
      <path d="M 34.26858,88.93887 L 31.456869,104.069249" />
      <path d="M -1.650463,102.100757 L -8.263249,117.763831" />
      <path d="M 31.176274,104.995295 L 24.369671,121.117444" />
      <path d="M -46.25164,-70.235416 L -56.251608,-52.82648" />
      <path d="M -14.181318,-65.751275 L -24.181285,-48.342339" />
      <path d="M -56.673457,-49.284246 L -50.261247,-29.527747" />
      <path d="M -23.177136,-50.090462 L -17.347227,-32.128076" />
      <path d="M -50.25988,-29.523541 L -44.051237,-10.45751" />
      <path d="M -17.347909,-32.130179 L -11.139951,-13.06625" />
      <path d="M -44.834027,-12.861368 L -52.074596,-4.784594" />
      <path d="M -12.353253,-8.435775 L -21.589914,1.867617" />
      <path d="M -52.275424,1.63391 L -34.654587,23.053789" />
      <path d="M -18.731751,-1.320632 L -8.698623,10.875634" />
      <path d="M -36.362065,20.978181 L -39.720235,32.216512" />
      <path d="M -4.551253,27.279152 L -6.743344,34.615124" />
      <path d="M -39.574446,31.728621 L -48.713518,48.266308" />
      <path d="M -7.152068,35.578813 L -16.554076,52.592297" />
      <path d="M -49.298826,50.5446 L -48.675386,72.479221" />
      <path d="M -15.935813,51.473513 L -15.34533,72.248626" />
      <path d="M -48.6822,72.239502 L -49.691266,83.477168" />
      <path d="M -15.360023,72.727852 L -16.390595,84.205025" />
      <path d="M -49.500396,85.133671 L -42.681054,106.271105" />
      <path d="M -16.315795,83.371999 L -9.762122,103.685956" />
      <path d="M -86.735563,-84.087474 L -91.748286,-69.151678" />
      <path d="M -53.850013,-81.400893 L -58.862737,-66.465096" />
      <path d="M -91.949997,-67.38429 L -89.519938,-44.169168" />
      <path d="M -58.567961,-67.343403 L -56.859502,-51.021949" />
      <path d="M -56.679605,-49.303333 L -56.230968,-45.017362" />
      <path d="M -88.494612,-41.724075 L -79.321651,-29.569005" />
      <path d="M -56.363006,-46.278761 L -55.196156,-44.73257" />
      <path d="M -80.534165,-31.175705 L -82.723348,-11.442575" />
      <path d="M -48.077669,-22.822221 L -49.439833,-10.543772" />
      <path d="M -82.651979,-12.085886 L -90.966144,7.059492" />
      <path d="M -49.784779,-9.270485 L -51.411748,-5.523995" />
      <path d="M -53.450173,-0.830027 L -58.37252,10.50487" />
      <path d="M -91.289792,9.394063 L -88.897953,25.208624" />
      <path d="M -57.870594,9.349062 L -55.657034,23.984861" />
      <path d="M -88.778961,25.751629 L -83.778977,43.141708" />
      <path d="M -55.698244,23.712383 L -50.776042,40.831936" />
      <path d="M -84.402714,40.972337 L -94.371569,53.289525" />
      <path d="M -51.79921,45.036167 L -63.41497,59.388215" />
      <path d="M -95.477618,57.155122 L -92.080687,73.955168" />
      <path d="M -61.904632,57.522091 L -58.911989,72.322664" />
      <path d="M -91.960696,74.416235 L -84.123521,99.006007" />
      <path d="M -58.958772,72.091293 L -51.194805,96.451368" />
      <path d="M 23.095419,-73.201195 L 22.427289,-58.643453" />
      <path d="M 56.42021,-72.828903 L 55.440597,-51.484316" />
      <path d="M 55.230925,-50.35716 L 51.401381,-38.679119" />
      <path d="M 51.929557,-40.289768 L 60.178885,-23.012728" />
      <path d="M 60.583959,-20.565202 L 57.797727,-0.501116" />
      <path d="M 25.761762,12.142187 L 26.274537,17.443263" />
      <path d="M 57.863929,-0.977848 L 59.624378,17.221712" />
      <path d="M 59.635185,17.356722 L 60.843844,36.429039" />
      <path d="M 60.734538,37.660478 L 58.100914,48.547618" />
      <path d="M 58.192681,48.168261 L 57.220405,66.664075" />
      <path d="M 57.232053,66.442492 L 58.440887,87.760092" />
      <path d="M 58.430796,87.582132 L 60.593375,102.528649" />
      <path d="M -16.756671,-89.122807 L -21.541082,-75.014421" />
      <path d="M 16.119682,-86.408967 L 10.318172,-69.301334" />
      <path d="M -18.172989,-58.802177 L -13.217906,-46.971715" />
      <path d="M 10.832225,-70.817186 L 14.911135,-61.078622" />
      <path d="M -13.579116,-47.834118 L -13.761033,-38.484171" />
      <path d="M -13.784172,-37.294929 L -13.791029,-36.94251" />
      <path d="M -13.791794,-36.858951 L -13.773875,-21.154727" />
      <path d="M -13.928498,47.841159 L -5.292662,53.805704" />
      <path d="M -10.16347,50.441566 L -15.72298,58.961649" />
      <path d="M -55.90274,-99.504257 L -42.505841,-82.716782" />
      <path d="M -24.886867,-105.529193 L -14.2894,-92.24965" />
      <path d="M -45.267745,-86.177687 L -55.567043,-76.284871" />
      <path d="M -57.579511,-70.288566 L -56.554329,-52.209648" />
      <path d="M -56.174043,-47.745514 L -55.965353,-45.751831" />
      <path d="M -23.062615,-50.289831 L -22.977295,-49.474737" />
      <path d="M -46.717653,8.389933 L -46.462357,18.947897" />
      <path d="M -46.466949,18.75798 L -47.84051,38.531814" />
      <path d="M -47.754005,37.286488 L -50.65394,41.395865" />
      <path d="M -61.041331,57.37285 L -61.168675,61.161878" />
      <path d="M 53.069259,-93.592936 L 50.239813,-79.408086" />
      <path d="M 86.242338,-91.982245 L 81.865793,-70.041339" />
      <path d="M 55.969118,-63.000162 L 67.697268,-54.548484" />
      <path d="M 82.460196,-73.021253 L 95.202023,-63.839086" />
      <path d="M 63.181395,-57.802765 L 52.148713,-39.830777" />
      <path d="M 97.400751,-56.810229 L 82.833412,-33.080366" />
      <path d="M 83.748082,-34.570343 L 86.294459,-18.926668" />
      <path d="M 86.314834,-17.750361 L 84.113822,-0.548579" />
      <path d="M 84.171185,-0.996895 L 85.515968,13.383451" />
      <path d="M 60.544764,31.709628 L 61.270977,33.185973" />
      <path d="M 85.442006,12.59254 L 93.664011,29.30735" />
      <path d="M 60.725064,32.076168 L 60.638962,33.196056" />
      <path d="M 60.091261,40.319721 L 59.604146,46.655382" />
      <path d="M 94.122183,31.558354 L 92.913523,47.278766" />
      <path d="M 59.655277,45.990345 L 58.108718,49.765505" />
      <path d="M 92.595157,48.596126 L 84.210981,69.061949" />
      <path d="M 84.819962,67.575423 L 88.894147,79.62181" />
      <path d="M 13.042035,-106.516494 L 18.258326,-85.969094" />
      <path d="M 46.116944,-108.560363 L 51.333234,-88.012963" />
      <path d="M 17.897347,-87.39102 L 12.198364,-74.845689" />
      <path d="M 51.058985,-85.192692 L 48.681857,-79.959854" />
      <path d="M 11.356659,-70.175499 L 12.571959,-66.663501" />
      <path d="M -26.516364,-124.558348 L -34.83193,-110.268046" />
      <path d="M 5.522725,-120.020185 L -5.469595,-101.12988" />
      <path d="M -4.18716,-103.333745 L -0.158045,-95.988378" />
    </g>
    <g fill="none" stroke="rgb(99,99,99)" stroke-width="0.23235808309956837" id="Hidden" stroke-dasharray="0.005902 0.700025">
      <path d="M 12.815656,-44.401673 A 16.66666666666667,8.222872048082726 5.484860933788186e-15 0,0 -13.413544,-39.609163" />
      <path d="M 19.112866,-36.01249 A 16.66666666666667,8.222872048082726 5.484860933788186e-15 0,0 18.345528,-40.838375" />
      <path d="M 18.345528,-40.838375 A 16.66666666666667,8.222872048082726 5.484860933788186e-15 0,0 12.815656,-44.401673" />
      <path d="M 28.426306,-24.952762 A 16.666666666666668,8.222872048082726 9.141434889646978e-15 0,0 1.794568,-18.448481" />
      <path d="M 1.794568,-18.448481 A 16.666666666666668,8.222872048082726 9.141434889646978e-15 0,0 2.964444,-15.334366" />
      <path d="M 33.956179,-21.389464 A 16.666666666666668,8.222872048082726 9.141434889646978e-15 0,0 28.426306,-24.952762" />
      <path d="M 28.031913,-6.470479 A 16.66666666666667,8.222872048082726 3.656573955858791e-15 0,0 2.745,-3.116667" />
      <path d="M 2.745,-3.116667 A 16.66666666666667,8.222872048082726 3.656573955858791e-15 0,0 1.400175,0.033802" />
      <path d="M 34.731661,0.206934 A 16.66666666666667,8.222872048082726 3.656573955858791e-15 0,0 28.031913,-6.470479" />
      <path d="M 17.8029,5.314281 A 16.66666666666667,8.222872048082726 0.0 0,0 -7.484014,8.668094" />
      <path d="M 23.157824,15.142163 A 16.66666666666667,8.222872048082726 0.0 0,0 24.336373,10.74331" />
      <path d="M 24.336373,10.74331 A 16.66666666666667,8.222872048082726 0.0 0,0 17.8029,5.314281" />
      <path d="M 24.431415,28.228101 A 16.66666666666667,8.222872048082726 -1.8282869779293957e-15 0,0 -2.187981,35.146951" />
      <path d="M -2.187981,35.146951 A 16.66666666666667,8.222872048082726 -1.8282869779293957e-15 0,0 -2.034048,35.980767" />
      <path d="M 30.964889,33.65713 A 16.66666666666667,8.222872048082726 -1.8282869779293957e-15 0,0 24.431415,28.228101" />
      <path d="M 25.830901,45.524032 A 16.66666666666667,8.222872048082726 -7.313147911717583e-15 0,0 -0.746904,51.448274" />
      <path d="M -0.746904,51.448274 A 16.66666666666667,8.222872048082726 -7.313147911717583e-15 0,0 -0.788496,52.442881" />
      <path d="M 32.518308,51.786876 A 16.66666666666667,8.222872048082726 -7.313147911717583e-15 0,0 25.830901,45.524032" />
      <path d="M 23.222756,61.344878 A 16.66666666666667,8.222872048082726 -1.8282869779293957e-15 0,0 -3.355049,67.269121" />
      <path d="M 29.868572,68.602331 A 16.66666666666667,8.222872048082726 -1.8282869779293957e-15 0,0 29.827866,67.056435" />
      <path d="M 29.827866,67.056435 A 16.66666666666667,8.222872048082726 -1.8282869779293957e-15 0,0 23.222756,61.344878" />
      <path d="M 27.63752,81.597262 A 16.66666666666667,8.222872048082726 0.0 0,0 1.07447,87.437348" />
      <path d="M 1.07447,87.437348 A 16.66666666666667,8.222872048082726 0.0 0,0 1.10042,89.0674" />
      <path d="M 34.24263,87.308819 A 16.66666666666667,8.222872048082726 0.0 0,0 27.63752,81.597262" />
      <path d="M 24.825808,96.727641 A 16.66666666666667,8.222872048082726 -1.8282869779293957e-15 0,0 -1.456646,101.641682" />
      <path d="M -1.456646,101.641682 A 16.66666666666667,8.222872048082726 -1.8282869779293957e-15 0,0 -1.737241,102.567728" />
      <path d="M 31.456869,104.069249 A 16.66666666666667,8.222872048082726 -1.8282869779293957e-15 0,0 24.825808,96.727641" />
      <path d="M 18.019206,112.84979 A 16.666666666666668,8.222872048082722 -9.141434889646978e-15 0,0 -8.263249,117.763831" />
      <path d="M 24.369671,121.117444 A 16.666666666666668,8.222872048082722 -9.141434889646978e-15 0,0 18.019206,112.84979" />
      <path d="M -30.250452,-57.175257 A 16.66666666666667,8.222872048082726 3.656573955858791e-15 0,0 -56.251608,-52.82648" />
      <path d="M -24.181285,-48.342339 A 16.66666666666667,8.222872048082726 3.656573955858791e-15 0,0 -23.759436,-51.884574" />
      <path d="M -23.759436,-51.884574 A 16.66666666666667,8.222872048082726 3.656573955858791e-15 0,0 -30.250452,-57.175257" />
      <path d="M -23.838242,-37.418758 A 16.66666666666667,8.222872048082726 3.656573955858791e-15 0,0 -50.261247,-29.527747" />
      <path d="M -17.348594,-32.132281 A 16.66666666666667,8.222872048082726 3.656573955858791e-15 0,0 -23.838242,-37.418758" />
      <path d="M -17.629599,-18.352727 A 16.66666666666667,8.222872048082726 -1.8282869779293957e-15 0,0 -42.837935,-15.087986" />
      <path d="M -42.837935,-15.087986 A 16.66666666666667,8.222872048082726 -1.8282869779293957e-15 0,0 -44.051237,-10.45751" />
      <path d="M -11.139951,-13.06625 A 16.66666666666667,8.222872048082726 -1.8282869779293957e-15 0,0 -17.629599,-18.352727" />
      <path d="M -26.86626,-8.049336 A 16.66666666666667,8.222872048082726 1.8282869779293957e-15 0,0 -52.074596,-4.784594" />
      <path d="M -21.589914,1.867617 A 16.66666666666667,8.222872048082726 1.8282869779293957e-15 0,0 -21.389086,-4.550887" />
      <path d="M -21.389086,-4.550887 A 16.66666666666667,8.222872048082726 1.8282869779293957e-15 0,0 -26.86626,-8.049336" />
      <path d="M -9.245424,13.370544 A 16.66666666666667,8.222872048082726 5.484860933788186e-15 0,0 -35.699864,18.762084" />
      <path d="M -35.699864,18.762084 A 16.66666666666667,8.222872048082726 5.484860933788186e-15 0,0 -34.654587,23.053789" />
      <path d="M -5.347826,24.525514 A 16.66666666666667,8.222872048082726 5.484860933788186e-15 0,0 -2.722974,21.160697" />
      <path d="M -2.722974,21.160697 A 16.66666666666667,8.222872048082726 5.484860933788186e-15 0,0 -3.76825,16.868992" />
      <path d="M -3.76825,16.868992 A 16.66666666666667,8.222872048082726 5.484860933788186e-15 0,0 -9.245424,13.370544" />
      <path d="M -13.265795,26.824971 A 16.66666666666667,8.222872048082726 5.484860933788186e-15 0,0 -39.311511,31.252824" />
      <path d="M -39.311511,31.252824 A 16.66666666666667,8.222872048082726 5.484860933788186e-15 0,0 -39.720235,32.216512" />
      <path d="M -6.743344,34.615124 A 16.66666666666667,8.222872048082726 5.484860933788186e-15 0,0 -13.265795,26.824971" />
      <path d="M -22.667803,43.838456 A 16.66666666666667,8.222872048082726 -9.141434889646978e-15 0,0 -48.713518,48.266308" />
      <path d="M -16.554076,52.592297 A 16.66666666666667,8.222872048082726 -9.141434889646978e-15 0,0 -15.968769,50.314005" />
      <path d="M -15.968769,50.314005 A 16.66666666666667,8.222872048082726 -9.141434889646978e-15 0,0 -22.667803,43.838456" />
      <path d="M -22.044363,65.773076 A 16.66666666666667,8.222872048082726 -3.656573955858791e-15 0,0 -48.660694,71.999995" />
      <path d="M -48.660694,71.999995 A 16.66666666666667,8.222872048082726 -3.656573955858791e-15 0,0 -48.675386,72.479221" />
      <path d="M -15.34533,72.248626 A 16.66666666666667,8.222872048082726 -3.656573955858791e-15 0,0 -22.044363,65.773076" />
      <path d="M -23.074936,77.250249 A 16.666666666666675,8.222872048082728 -1.279800884550577e-14 0,0 -49.691266,83.477168" />
      <path d="M -16.390595,84.205025 A 16.666666666666675,8.222872048082728 -1.279800884550577e-14 0,0 -16.581464,82.548522" />
      <path d="M -16.581464,82.548522 A 16.666666666666675,8.222872048082728 -1.279800884550577e-14 0,0 -23.074936,77.250249" />
      <path d="M -16.255593,98.387683 A 16.666666666666675,8.22287204808273 -1.4626295823435165e-14 0,0 -42.681054,106.271105" />
      <path d="M -9.762122,103.685956 A 16.666666666666675,8.22287204808273 -1.4626295823435165e-14 0,0 -16.255593,98.387683" />
      <path d="M -65.339517,-74.399234 A 16.666666666666668,8.222872048082724 3.656573955858791e-15 0,0 -91.748286,-69.151678" />
      <path d="M -58.862737,-66.465096 A 16.666666666666668,8.222872048082724 3.656573955858791e-15 0,0 -58.661026,-68.232484" />
      <path d="M -58.661026,-68.232484 A 16.666666666666668,8.222872048082724 3.656573955858791e-15 0,0 -65.339517,-74.399234" />
      <path d="M -62.909459,-51.184112 A 16.66666666666667,8.222872048082728 1.645458280136456e-14 0,0 -89.519938,-44.169168" />
      <path d="M -56.230968,-45.017362 A 16.66666666666667,8.222872048082728 1.645458280136456e-14 0,0 -57.256294,-47.462455" />
      <path d="M -57.256294,-47.462455 A 16.66666666666667,8.222872048082728 1.645458280136456e-14 0,0 -62.909459,-51.184112" />
      <path d="M -53.736497,-39.029042 A 16.666666666666675,8.222872048082728 2.1939443735152745e-14 0,0 -80.344249,-32.887597" />
      <path d="M -80.344249,-32.887597 A 16.666666666666675,8.222872048082728 2.1939443735152745e-14 0,0 -79.321651,-29.569005" />
      <path d="M -49.745489,-27.943905 A 16.666666666666675,8.222872048082728 2.1939443735152745e-14 0,0 -47.060734,-31.988793" />
      <path d="M -47.060734,-31.988793 A 16.666666666666675,8.222872048082728 2.1939443735152745e-14 0,0 -48.083333,-35.307385" />
      <path d="M -48.083333,-35.307385 A 16.666666666666675,8.222872048082728 2.1939443735152745e-14 0,0 -53.736497,-39.029042" />
      <path d="M -56.115596,-17.584021 A 16.666666666666675,8.222872048082726 1.0969721867576372e-14 0,0 -82.378402,-12.715863" />
      <path d="M -82.378402,-12.715863 A 16.666666666666675,8.222872048082726 1.0969721867576372e-14 0,0 -82.723348,-11.442575" />
      <path d="M -49.439833,-10.543772 A 16.666666666666675,8.222872048082726 1.0969721867576372e-14 0,0 -56.115596,-17.584021" />
      <path d="M -64.703338,2.191334 A 16.666666666666675,8.222872048082726 1.0969721867576372e-14 0,0 -90.966144,7.059492" />
      <path d="M -58.37252,10.50487 A 16.666666666666675,8.222872048082726 1.0969721867576372e-14 0,0 -58.048873,8.1703" />
      <path d="M -58.048873,8.1703 A 16.666666666666675,8.222872048082726 1.0969721867576372e-14 0,0 -64.703338,2.191334" />
      <path d="M -62.311499,18.005895 A 16.66666666666667,8.222872048082724 9.141434889646978e-15 0,0 -88.897953,25.208624" />
      <path d="M -55.657034,23.984861 A 16.66666666666667,8.222872048082724 9.141434889646978e-15 0,0 -55.776026,23.441856" />
      <path d="M -55.776026,23.441856 A 16.66666666666667,8.222872048082724 9.141434889646978e-15 0,0 -62.311499,18.005895" />
      <path d="M -57.311515,35.395974 A 16.666666666666675,8.222872048082726 9.141434889646978e-15 0,0 -82.75581,38.937477" />
      <path d="M -82.75581,38.937477 A 16.666666666666675,8.222872048082726 9.141434889646978e-15 0,0 -83.778977,43.141708" />
      <path d="M -50.776042,40.831936 A 16.666666666666675,8.222872048082726 9.141434889646978e-15 0,0 -57.311515,35.395974" />
      <path d="M -68.927275,49.748023 A 16.666666666666675,8.222872048082726 1.645458280136456e-14 0,0 -94.371569,53.289525" />
      <path d="M -63.41497,59.388215 A 16.666666666666675,8.222872048082726 1.645458280136456e-14 0,0 -62.308921,55.522618" />
      <path d="M -62.308921,55.522618 A 16.666666666666675,8.222872048082726 1.645458280136456e-14 0,0 -68.927275,49.748023" />
      <path d="M -65.530343,66.548068 A 16.666666666666675,8.222872048082726 1.645458280136456e-14 0,0 -92.080687,73.955168" />
      <path d="M -58.911989,72.322664 A 16.666666666666675,8.222872048082726 1.645458280136456e-14 0,0 -59.03198,71.861597" />
      <path d="M -59.03198,71.861597 A 16.666666666666675,8.222872048082726 1.645458280136456e-14 0,0 -65.530343,66.548068" />
      <path d="M -57.693169,91.13784 A 16.666666666666675,8.222872048082726 1.4626295823435162e-14 0,0 -84.123521,99.006007" />
      <path d="M -51.194805,96.451368 A 16.666666666666675,8.222872048082726 1.4626295823435162e-14 0,0 -57.693169,91.13784" />
      <path d="M 48.744196,-58.261309 A 16.666666666666668,8.222872048082724 3.656573955858791e-15 0,0 22.325477,-52.983763" />
      <path d="M 22.325477,-52.983763 A 16.666666666666668,8.222872048082724 3.656573955858791e-15 0,0 22.115805,-51.856608" />
      <path d="M 22.115805,-51.856608 A 16.666666666666668,8.222872048082724 3.656573955858791e-15 0,0 24.354303,-47.550612" />
      <path d="M 55.440597,-51.484316 A 16.666666666666668,8.222872048082724 3.656573955858791e-15 0,0 48.744196,-58.261309" />
      <path d="M 44.914652,-46.583268 A 16.666666666666664,8.222872048082724 7.313147911717583e-15 0,0 18.495933,-41.305722" />
      <path d="M 18.495933,-41.305722 A 16.666666666666664,8.222872048082724 7.313147911717583e-15 0,0 18.726044,-38.106951" />
      <path d="M 18.726044,-38.106951 A 16.666666666666664,8.222872048082724 7.313147911717583e-15 0,0 24.001122,-33.792215" />
      <path d="M 51.401381,-38.679119 A 16.666666666666664,8.222872048082724 7.313147911717583e-15 0,0 51.17127,-41.87789" />
      <path d="M 51.17127,-41.87789 A 16.666666666666664,8.222872048082724 7.313147911717583e-15 0,0 44.914652,-46.583268" />
      <path d="M 53.922267,-27.718105 A 16.666666666666664,8.222872048082726 1.279800884550577e-14 0,0 27.328585,-21.689313" />
      <path d="M 27.328585,-21.689313 A 16.666666666666664,8.222872048082726 1.279800884550577e-14 0,0 27.733659,-19.241788" />
      <path d="M 27.733659,-19.241788 A 16.666666666666664,8.222872048082726 1.279800884550577e-14 0,0 35.038673,-14.180438" />
      <path d="M 60.178885,-23.012728 A 16.666666666666664,8.222872048082726 1.279800884550577e-14 0,0 53.922267,-27.718105" />
      <path d="M 51.136035,-7.654018 A 16.666666666666668,8.222872048082726 1.4626295823435165e-14 0,0 24.542353,-1.625227" />
      <path d="M 24.542353,-1.625227 A 16.666666666666668,8.222872048082726 1.4626295823435165e-14 0,0 24.522321,-0.671189" />
      <path d="M 24.522321,-0.671189 A 16.666666666666668,8.222872048082726 1.4626295823435165e-14 0,0 31.431635,5.609974" />
      <path d="M 57.797727,-0.501116 A 16.666666666666668,8.222872048082726 1.4626295823435165e-14 0,0 57.817759,-1.455154" />
      <path d="M 57.817759,-1.455154 A 16.666666666666668,8.222872048082726 1.4626295823435165e-14 0,0 51.136035,-7.654018" />
      <path d="M 52.942653,11.022847 A 16.666666666666664,8.222872048082724 7.313147911717583e-15 0,0 26.318133,17.870667" />
      <path d="M 26.318133,17.870667 A 16.666666666666664,8.222872048082724 7.313147911717583e-15 0,0 26.32894,18.005677" />
      <path d="M 26.32894,18.005677 A 16.666666666666664,8.222872048082724 7.313147911717583e-15 0,0 27.002302,19.95904" />
      <path d="M 59.624378,17.221712 A 16.666666666666664,8.222872048082724 7.313147911717583e-15 0,0 52.942653,11.022847" />
      <path d="M 54.151313,30.095164 A 16.666666666666664,8.222872048082726 5.484860933788187e-15 0,0 27.636097,35.711544" />
      <path d="M 27.636097,35.711544 A 16.666666666666664,8.222872048082726 5.484860933788187e-15 0,0 27.526792,36.942983" />
      <path d="M 27.526792,36.942983 A 16.666666666666664,8.222872048082726 5.484860933788187e-15 0,0 31.738935,42.154779" />
      <path d="M 60.843844,36.429039 A 16.666666666666664,8.222872048082726 5.484860933788187e-15 0,0 54.151313,30.095164" />
      <path d="M 51.517688,40.982303 A 16.666666666666668,8.222872048082726 1.4626295823435165e-14 0,0 25.002473,46.598683" />
      <path d="M 25.002473,46.598683 A 16.666666666666668,8.222872048082726 1.4626295823435165e-14 0,0 24.890629,47.35996" />
      <path d="M 24.890629,47.35996 A 16.666666666666668,8.222872048082726 1.4626295823435165e-14 0,0 32.212566,54.383806" />
      <path d="M 58.100914,48.547618 A 16.666666666666668,8.222872048082726 1.4626295823435165e-14 0,0 58.212757,47.786341" />
      <path d="M 58.212757,47.786341 A 16.666666666666668,8.222872048082726 1.4626295823435165e-14 0,0 51.517688,40.982303" />
      <path d="M 50.525335,59.860037 A 16.666666666666664,8.222872048082726 1.279800884550577e-14 0,0 23.898276,66.237693" />
      <path d="M 23.898276,66.237693 A 16.666666666666664,8.222872048082726 1.279800884550577e-14 0,0 23.899193,66.680847" />
      <path d="M 23.899193,66.680847 A 16.666666666666664,8.222872048082726 1.279800884550577e-14 0,0 31.177373,73.247193" />
      <path d="M 57.220405,66.664075 A 16.666666666666664,8.222872048082726 1.279800884550577e-14 0,0 57.219488,66.220922" />
      <path d="M 57.219488,66.220922 A 16.666666666666664,8.222872048082726 1.279800884550577e-14 0,0 50.525335,59.860037" />
      <path d="M 51.746734,81.399207 A 16.666666666666668,8.222872048082726 1.4626295823435165e-14 0,0 25.120592,88.220017" />
      <path d="M 25.120592,88.220017 A 16.666666666666668,8.222872048082726 1.4626295823435165e-14 0,0 25.156376,88.575554" />
      <path d="M 25.156376,88.575554 A 16.666666666666668,8.222872048082726 1.4626295823435165e-14 0,0 33.13832,95.021023" />
      <path d="M 58.440887,87.760092 A 16.666666666666668,8.222872048082726 1.4626295823435165e-14 0,0 58.405102,87.404555" />
      <path d="M 58.405102,87.404555 A 16.666666666666668,8.222872048082726 1.4626295823435165e-14 0,0 51.746734,81.399207" />
      <path d="M 53.935006,96.523301 A 16.666666666666664,8.222872048082726 1.279800884550577e-14 0,0 27.344648,103.699648" />
      <path d="M 27.344648,103.699648 A 16.666666666666664,8.222872048082726 1.279800884550577e-14 0,0 30.05833,107.643261" />
      <path d="M 60.593375,102.528649 A 16.666666666666664,8.222872048082726 1.279800884550577e-14 0,0 53.935006,96.523301" />
      <path d="M 3.84599,-77.249101 A 16.666666666666668,8.222872048082724 3.656573955858791e-15 0,0 -22.558181,-72.015174" />
      <path d="M -22.558181,-72.015174 A 16.666666666666668,8.222872048082724 3.656573955858791e-15 0,0 -22.441827,-68.9942" />
      <path d="M -22.441827,-68.9942 A 16.666666666666668,8.222872048082724 3.656573955858791e-15 0,0 -15.304173,-63.796496" />
      <path d="M 10.318172,-69.301334 A 16.666666666666668,8.222872048082724 3.656573955858791e-15 0,0 10.201818,-72.322308" />
      <path d="M 10.201818,-72.322308 A 16.666666666666668,8.222872048082724 3.656573955858791e-15 0,0 3.84599,-77.249101" />
      <path d="M 13.069911,-55.226617 A 16.666666666666664,8.222872048082722 7.313147911717583e-15 0,0 -13.561983,-48.7147" />
      <path d="M -13.561983,-48.7147 A 16.666666666666664,8.222872048082722 7.313147911717583e-15 0,0 -13.217906,-46.971715" />
      <path d="M -11.221982,-44.433511 A 16.666666666666664,8.222872048082722 7.313147911717583e-15 0,0 19.769815,-48.556839" />
      <path d="M 19.769815,-48.556839 A 16.666666666666664,8.222872048082722 7.313147911717583e-15 0,0 19.425739,-50.299824" />
      <path d="M 19.425739,-50.299824 A 16.666666666666664,8.222872048082722 7.313147911717583e-15 0,0 13.069911,-55.226617" />
      <path d="M 12.840865,-43.454427 A 16.666666666666664,8.222872048082722 9.141434889646978e-15 0,0 -13.791029,-36.94251" />
      <path d="M -10.246292,-31.793285 A 16.666666666666664,8.222872048082722 9.141434889646978e-15 0,0 19.540769,-36.78465" />
      <path d="M 19.540769,-36.78465 A 16.666666666666664,8.222872048082722 9.141434889646978e-15 0,0 19.541534,-36.868209" />
      <path d="M 19.541534,-36.868209 A 16.666666666666664,8.222872048082722 9.141434889646978e-15 0,0 12.840865,-43.454427" />
      <path d="M 12.866345,-21.124355 A 16.666666666666664,8.22287204808272 1.2798008845505766e-14 0,0 -13.260324,-16.54429" />
      <path d="M -13.260324,-16.54429 A 16.666666666666664,8.22287204808272 1.2798008845505766e-14 0,0 -13.766314,-14.528879" />
      <path d="M -13.766314,-14.528879 A 16.666666666666664,8.22287204808272 1.2798008845505766e-14 0,0 -11.239891,-10.180874" />
      <path d="M 1.536148,-6.338228 A 16.666666666666664,8.22287204808272 1.2798008845505766e-14 0,0 19.061023,-12.522726" />
      <path d="M 19.061023,-12.522726 A 16.666666666666664,8.22287204808272 1.2798008845505766e-14 0,0 19.567014,-14.538137" />
      <path d="M 19.567014,-14.538137 A 16.666666666666664,8.22287204808272 1.2798008845505766e-14 0,0 12.866345,-21.124355" />
      <path d="M 6.441395,-8.554978 A 16.666666666666664,8.22287204808272 1.2798008845505766e-14 0,0 -19.685273,-3.974913" />
      <path d="M -19.685273,-3.974913 A 16.666666666666664,8.22287204808272 1.2798008845505766e-14 0,0 -19.990691,-3.235999" />
      <path d="M -19.990691,-3.235999 A 16.666666666666664,8.22287204808272 1.2798008845505766e-14 0,0 -13.999687,4.431662" />
      <path d="M -5.3498,6.209284 A 16.666666666666664,8.22287204808272 1.2798008845505766e-14 0,0 12.636074,0.046651" />
      <path d="M 12.636074,0.046651 A 16.666666666666664,8.22287204808272 1.2798008845505766e-14 0,0 12.941492,-0.692264" />
      <path d="M 12.941492,-0.692264 A 16.666666666666664,8.22287204808272 1.2798008845505766e-14 0,0 6.441395,-8.554978" />
      <path d="M 0.449059,10.329041 A 16.666666666666664,8.22287204808272 1.4626295823435162e-14 0,0 -25.983028,15.648021" />
      <path d="M -25.983028,15.648021 A 16.666666666666664,8.22287204808272 1.4626295823435162e-14 0,0 -26.164732,16.528696" />
      <path d="M -26.164732,16.528696 A 16.666666666666664,8.22287204808272 1.4626295823435162e-14 0,0 6.949156,18.191756" />
      <path d="M 6.949156,18.191756 A 16.666666666666664,8.22287204808272 1.4626295823435162e-14 0,0 7.130859,17.31108" />
      <path d="M 7.130859,17.31108 A 16.666666666666664,8.22287204808272 1.4626295823435162e-14 0,0 0.449059,10.329041" />
      <path d="M -1.34482,28.911758 A 16.666666666666664,8.22287204808272 1.4626295823435162e-14 0,0 -27.958611,35.111413" />
      <path d="M -27.958611,35.111413 A 16.666666666666664,8.22287204808272 1.4626295823435162e-14 0,0 -24.872724,40.28227" />
      <path d="M -24.872724,40.28227 A 16.666666666666664,8.22287204808272 1.4626295823435162e-14 0,0 -11.653127,43.723743" />
      <path d="M -1.617948,42.19187 A 16.666666666666664,8.22287204808272 1.4626295823435162e-14 0,0 5.33698,35.893797" />
      <path d="M 5.33698,35.893797 A 16.666666666666664,8.22287204808272 1.4626295823435162e-14 0,0 2.251094,30.72294" />
      <path d="M 2.251094,30.72294 A 16.666666666666664,8.22287204808272 1.4626295823435162e-14 0,0 -1.34482,28.911758" />
      <path d="M 18.235242,42.435192 A 16.666666666666668,8.222872048082724 2.1939443735152745e-14 0,0 -7.595555,46.506176" />
      <path d="M -7.595555,46.506176 A 16.666666666666668,8.222872048082724 2.1939443735152745e-14 0,0 -5.292662,53.805704" />
      <path d="M -1.448874,55.706379 A 16.666666666666668,8.222872048082724 2.1939443735152745e-14 0,0 24.13405,51.545902" />
      <path d="M 24.13405,51.545902 A 16.666666666666668,8.222872048082724 2.1939443735152745e-14 0,0 21.831156,44.246374" />
      <path d="M 21.831156,44.246374 A 16.666666666666668,8.222872048082724 2.1939443735152745e-14 0,0 18.235242,42.435192" />
      <path d="M 5.843436,61.425931 A 16.666666666666668,8.222872048082722 1.279800884550577e-14 0,0 -19.987362,65.496915" />
      <path d="M -19.987362,65.496915 A 16.666666666666668,8.222872048082722 1.279800884550577e-14 0,0 -20.558835,66.654267" />
      <path d="M -20.558835,66.654267 A 16.666666666666668,8.222872048082722 1.279800884550577e-14 0,0 -15.477484,74.03599" />
      <path d="M -1.714673,76.153382 A 16.666666666666668,8.222872048082722 1.279800884550577e-14 0,0 11.742244,70.536641" />
      <path d="M 11.742244,70.536641 A 16.666666666666668,8.222872048082722 1.279800884550577e-14 0,0 12.313717,69.379289" />
      <path d="M 12.313717,69.379289 A 16.666666666666668,8.222872048082722 1.279800884550577e-14 0,0 5.843436,61.425931" />
      <path d="M -0.352467,79.619482 A 16.666666666666668,8.22287204808272 1.645458280136456e-14 0,0 -26.754739,84.847818" />
      <path d="M -26.754739,84.847818 A 16.666666666666668,8.22287204808272 1.645458280136456e-14 0,0 -12.776242,94.343301" />
      <path d="M 0.110544,92.624428 A 16.666666666666668,8.22287204808272 1.645458280136456e-14 0,0 6.117814,87.572841" />
      <path d="M 6.117814,87.572841 A 16.666666666666668,8.22287204808272 1.645458280136456e-14 0,0 -0.352467,79.619482" />
      <path d="M -17.03191,-92.320098 A 16.666666666666668,8.222872048082724 7.313147911717583e-15 0,0 -41.823234,-89.486254" />
      <path d="M -41.823234,-89.486254 A 16.666666666666668,8.222872048082724 7.313147911717583e-15 0,0 -42.505841,-82.716782" />
      <path d="M -20.473468,-78.162625 A 16.666666666666668,8.222872048082724 7.313147911717583e-15 0,0 -12.172576,-81.972247" />
      <path d="M -12.172576,-81.972247 A 16.666666666666668,8.222872048082724 7.313147911717583e-15 0,0 -11.489968,-88.741719" />
      <path d="M -11.489968,-88.741719 A 16.666666666666668,8.222872048082724 7.313147911717583e-15 0,0 -17.03191,-92.320098" />
      <path d="M -31.052248,-78.853099 A 16.666666666666668,8.222872048082724 7.313147911717583e-15 0,0 -55.843572,-76.019256" />
      <path d="M -55.843572,-76.019256 A 16.666666666666668,8.222872048082724 7.313147911717583e-15 0,0 -57.678391,-72.03229" />
      <path d="M -57.678391,-72.03229 A 16.666666666666668,8.222872048082724 7.313147911717583e-15 0,0 -57.413302,-70.783798" />
      <path d="M -49.2021,-65.098964 A 16.666666666666668,8.222872048082724 7.313147911717583e-15 0,0 -26.192914,-68.505249" />
      <path d="M -26.192914,-68.505249 A 16.666666666666668,8.222872048082724 7.313147911717583e-15 0,0 -24.358095,-72.492215" />
      <path d="M -24.358095,-72.492215 A 16.666666666666668,8.222872048082724 7.313147911717583e-15 0,0 -31.052248,-78.853099" />
      <path d="M -29.830849,-57.313929 A 16.666666666666668,8.222872048082726 3.656573955858791e-15 0,0 -56.456992,-50.49312" />
      <path d="M -56.456992,-50.49312 A 16.666666666666668,8.222872048082726 3.656573955858791e-15 0,0 -56.441329,-50.298985" />
      <path d="M -56.441329,-50.298985 A 16.666666666666668,8.222872048082726 3.656573955858791e-15 0,0 -23.136696,-50.953045" />
      <path d="M -23.136696,-50.953045 A 16.666666666666668,8.222872048082726 3.656573955858791e-15 0,0 -23.152359,-51.14718" />
      <path d="M -23.152359,-51.14718 A 16.666666666666668,8.222872048082726 3.656573955858791e-15 0,0 -29.830849,-57.313929" />
      <path d="M -27.400791,-34.098807 A 16.66666666666667,8.222872048082726 -1.8282869779293957e-15 0,0 -53.027309,-30.321731" />
      <path d="M -53.027309,-30.321731 A 16.66666666666667,8.222872048082726 -1.8282869779293957e-15 0,0 -54.011271,-27.083863" />
      <path d="M -54.011271,-27.083863 A 16.66666666666667,8.222872048082726 -1.8282869779293957e-15 0,0 -48.248791,-21.279738" />
      <path d="M -47.474462,-20.969843 A 16.66666666666667,8.222872048082726 -1.8282869779293957e-15 0,0 -21.706263,-24.694189" />
      <path d="M -21.706263,-24.694189 A 16.66666666666667,8.222872048082726 -1.8282869779293957e-15 0,0 -20.722301,-27.932057" />
      <path d="M -20.722301,-27.932057 A 16.66666666666667,8.222872048082726 -1.8282869779293957e-15 0,0 -27.400791,-34.098807" />
      <path d="M -34.640006,-24.291301 A 16.666666666666668,8.22287204808272 0.0 0,0 -60.266524,-20.514224" />
      <path d="M -60.266524,-20.514224 A 16.666666666666668,8.22287204808272 0.0 0,0 -60.330204,-14.974501" />
      <path d="M -60.330204,-14.974501 A 16.666666666666668,8.22287204808272 0.0 0,0 -49.576279,-9.851737" />
      <path d="M -47.736299,-9.623917 A 16.666666666666668,8.22287204808272 0.0 0,0 -28.945478,-14.886683" />
      <path d="M -28.945478,-14.886683 A 16.666666666666668,8.22287204808272 0.0 0,0 -28.881797,-20.426406" />
      <path d="M -28.881797,-20.426406 A 16.666666666666668,8.22287204808272 0.0 0,0 -34.640006,-24.291301" />
      <path d="M -20.225275,-4.051488 A 16.66666666666667,8.222872048082722 0.0 0,0 -46.85675,2.637451" />
      <path d="M -46.85675,2.637451 A 16.66666666666667,8.222872048082722 0.0 0,0 -45.915473,5.265312" />
      <path d="M -45.915473,5.265312 A 16.66666666666667,8.222872048082722 0.0 0,0 -13.525789,2.441268" />
      <path d="M -13.525789,2.441268 A 16.66666666666667,8.222872048082722 0.0 0,0 -14.467066,-0.186593" />
      <path d="M -14.467066,-0.186593 A 16.66666666666667,8.222872048082722 0.0 0,0 -20.225275,-4.051488" />
      <path d="M -19.830882,12.258958 A 16.66666666666667,8.222872048082724 -5.484860933788186e-15 0,0 -46.453764,18.568161" />
      <path d="M -46.453764,18.568161 A 16.66666666666667,8.222872048082724 -5.484860933788186e-15 0,0 -46.462357,18.947897" />
      <path d="M -37.875257,26.042178 A 16.66666666666667,8.222872048082724 -5.484860933788186e-15 0,0 -13.139989,19.131449" />
      <path d="M -13.139989,19.131449 A 16.66666666666667,8.222872048082724 -5.484860933788186e-15 0,0 -13.131396,18.751714" />
      <path d="M -13.131396,18.751714 A 16.66666666666667,8.222872048082724 -5.484860933788186e-15 0,0 -19.830882,12.258958" />
      <path d="M -21.217628,32.22261 A 16.66666666666667,8.222872048082724 -1.2798008845505766e-14 0,0 -46.923572,36.109716" />
      <path d="M -46.923572,36.109716 A 16.66666666666667,8.222872048082724 -1.2798008845505766e-14 0,0 -47.84051,38.531814" />
      <path d="M -45.715003,42.840318 A 16.66666666666667,8.222872048082724 -1.2798008845505766e-14 0,0 -15.443673,41.517199" />
      <path d="M -15.443673,41.517199 A 16.66666666666667,8.222872048082724 -1.2798008845505766e-14 0,0 -14.526735,39.095101" />
      <path d="M -14.526735,39.095101 A 16.66666666666667,8.222872048082724 -1.2798008845505766e-14 0,0 -21.217628,32.22261" />
      <path d="M -34.41096,50.918332 A 16.666666666666668,8.222872048082722 -5.484860933788185e-15 0,0 -60.116905,54.805438" />
      <path d="M -60.116905,54.805438 A 16.666666666666668,8.222872048082722 -5.484860933788185e-15 0,0 -60.828595,56.192575" />
      <path d="M -48.875834,65.426812 A 16.666666666666668,8.222872048082722 -5.484860933788185e-15 0,0 -28.637005,60.212921" />
      <path d="M -28.637005,60.212921 A 16.666666666666668,8.222872048082722 -5.484860933788185e-15 0,0 -27.712579,57.645509" />
      <path d="M -27.712579,57.645509 A 16.666666666666668,8.222872048082722 -5.484860933788185e-15 0,0 -34.41096,50.918332" />
      <path d="M -35.00892,68.710148 A 16.666666666666668,8.222872048082722 -1.0969721867576372e-14 0,0 -61.63929,75.164665" />
      <path d="M -61.63929,75.164665 A 16.666666666666668,8.222872048082722 -1.0969721867576372e-14 0,0 -55.965608,81.482586" />
      <path d="M -49.665613,83.191484 A 16.666666666666668,8.222872048082722 -1.0969721867576372e-14 0,0 -28.310539,75.437325" />
      <path d="M -28.310539,75.437325 A 16.666666666666668,8.222872048082722 -1.0969721867576372e-14 0,0 -35.00892,68.710148" />
      <path d="M 75.245249,-77.437531 A 16.666666666666668,8.222872048082724 3.656573955858791e-15 0,0 48.692715,-71.65203" />
      <path d="M 48.692715,-71.65203 A 16.666666666666668,8.222872048082724 3.656573955858791e-15 0,0 51.526876,-66.201383" />
      <path d="M 51.526876,-66.201383 A 16.666666666666668,8.222872048082724 3.656573955858791e-15 0,0 56.015511,-64.011014" />
      <path d="M 81.865793,-70.041339 A 16.666666666666668,8.222872048082724 3.656573955858791e-15 0,0 79.031632,-75.491985" />
      <path d="M 79.031632,-75.491985 A 16.666666666666668,8.222872048082724 3.656573955858791e-15 0,0 75.245249,-77.437531" />
      <path d="M 91.41564,-65.784632 A 16.666666666666668,8.222872048082724 7.313147911717583e-15 0,0 65.49854,-61.577341" />
      <path d="M 65.49854,-61.577341 A 16.666666666666668,8.222872048082724 7.313147911717583e-15 0,0 67.697268,-54.548484" />
      <path d="M 95.202023,-63.839086 A 16.666666666666668,8.222872048082724 7.313147911717583e-15 0,0 91.41564,-65.784632" />
      <path d="M 76.848301,-42.054769 A 16.66666666666667,8.222872048082726 1.8282869779293957e-15 0,0 50.931201,-37.847477" />
      <path d="M 50.931201,-37.847477 A 16.66666666666667,8.222872048082726 1.8282869779293957e-15 0,0 50.269126,-34.805679" />
      <path d="M 50.269126,-34.805679 A 16.66666666666667,8.222872048082726 1.8282869779293957e-15 0,0 57.474706,-28.676244" />
      <path d="M 82.833412,-33.080366 A 16.66666666666667,8.222872048082726 1.8282869779293957e-15 0,0 83.495487,-36.122164" />
      <path d="M 83.495487,-36.122164 A 16.66666666666667,8.222872048082726 1.8282869779293957e-15 0,0 76.848301,-42.054769" />
      <path d="M 79.647273,-24.859272 A 16.66666666666667,8.222872048082726 5.484860933788186e-15 0,0 53.047722,-18.786489" />
      <path d="M 53.047722,-18.786489 A 16.66666666666667,8.222872048082726 5.484860933788186e-15 0,0 53.068098,-17.610182" />
      <path d="M 53.068098,-17.610182 A 16.66666666666667,8.222872048082726 5.484860933788186e-15 0,0 59.368006,-11.808936" />
      <path d="M 86.294459,-18.926668 A 16.66666666666667,8.222872048082726 5.484860933788186e-15 0,0 79.647273,-24.859272" />
      <path d="M 77.446261,-7.65749 A 16.666666666666668,8.222872048082724 3.656573955858791e-15 0,0 50.84671,-1.584708" />
      <path d="M 50.84671,-1.584708 A 16.666666666666668,8.222872048082724 3.656573955858791e-15 0,0 50.83131,-0.687661" />
      <path d="M 50.83131,-0.687661 A 16.666666666666668,8.222872048082724 3.656573955858791e-15 0,0 58.526202,5.868749" />
      <path d="M 84.113822,-0.548579 A 16.666666666666668,8.222872048082724 3.656573955858791e-15 0,0 84.129222,-1.445626" />
      <path d="M 84.129222,-1.445626 A 16.666666666666668,8.222872048082724 3.656573955858791e-15 0,0 77.446261,-7.65749" />
      <path d="M 78.833007,7.171586 A 16.666666666666668,8.222872048082724 3.656573955858791e-15 0,0 52.218056,14.141416" />
      <path d="M 52.218056,14.141416 A 16.666666666666668,8.222872048082724 3.656573955858791e-15 0,0 52.670495,15.701745" />
      <path d="M 52.670495,15.701745 A 16.666666666666668,8.222872048082724 3.656573955858791e-15 0,0 59.84557,20.676539" />
      <path d="M 85.515968,13.383451 A 16.666666666666668,8.222872048082724 3.656573955858791e-15 0,0 85.063529,11.823122" />
      <path d="M 85.063529,11.823122 A 16.666666666666668,8.222872048082724 3.656573955858791e-15 0,0 78.833007,7.171586" />
      <path d="M 87.433489,24.655814 A 16.666666666666664,8.222872048082722 -1.8282869779293957e-15 0,0 60.812805,30.934969" />
      <path d="M 60.812805,30.934969 A 16.666666666666664,8.222872048082722 -1.8282869779293957e-15 0,0 61.270977,33.185973" />
      <path d="M 93.664011,29.30735 A 16.666666666666664,8.222872048082722 -1.8282869779293957e-15 0,0 87.433489,24.655814" />
      <path d="M 86.224829,40.376227 A 16.666666666666664,8.222872048082724 -3.656573955858791e-15 0,0 59.922513,45.338022" />
      <path d="M 59.922513,45.338022 A 16.666666666666664,8.222872048082724 -3.656573955858791e-15 0,0 59.604146,46.655382" />
      <path d="M 92.913523,47.278766 A 16.666666666666664,8.222872048082724 -3.656573955858791e-15 0,0 86.224829,40.376227" />
      <path d="M 77.840654,60.842049 A 16.666666666666664,8.222872048082722 1.8282869779293957e-15 0,0 51.538337,65.803844" />
      <path d="M 51.538337,65.803844 A 16.666666666666664,8.222872048082722 1.8282869779293957e-15 0,0 51.435283,68.786274" />
      <path d="M 51.435283,68.786274 A 16.666666666666664,8.222872048082722 1.8282869779293957e-15 0,0 57.656588,73.92911" />
      <path d="M 84.210981,69.061949 A 16.666666666666664,8.222872048082722 1.8282869779293957e-15 0,0 84.314036,66.07952" />
      <path d="M 84.314036,66.07952 A 16.666666666666664,8.222872048082722 1.8282869779293957e-15 0,0 77.840654,60.842049" />
      <path d="M 82.420765,74.38434 A 16.666666666666664,8.222872048082722 1.8282869779293957e-15 0,0 56.015394,82.328564" />
      <path d="M 56.015394,82.328564 A 16.666666666666664,8.222872048082722 1.8282869779293957e-15 0,0 58.302419,85.318229" />
      <path d="M 88.894147,79.62181 A 16.666666666666664,8.222872048082722 1.8282869779293957e-15 0,0 82.420765,74.38434" />
      <path d="M 44.761774,-93.581876 A 16.666666666666668,8.222872048082724 3.656573955858791e-15 0,0 18.532575,-88.789365" />
      <path d="M 18.532575,-88.789365 A 16.666666666666668,8.222872048082724 3.656573955858791e-15 0,0 18.258326,-85.969094" />
      <path d="M 28.976361,-79.285694 A 16.666666666666668,8.222872048082724 3.656573955858791e-15 0,0 45.577233,-80.720384" />
      <path d="M 51.333234,-88.012963 A 16.666666666666668,8.222872048082724 3.656573955858791e-15 0,0 44.761774,-93.581876" />
      <path d="M 37.751605,-78.150194 A 16.666666666666664,8.222872048082722 3.656573955858791e-15 0,0 11.522406,-73.357683" />
      <path d="M 11.522406,-73.357683 A 16.666666666666664,8.222872048082722 3.656573955858791e-15 0,0 11.120369,-71.666872" />
      <path d="M 22.660958,-63.734833 A 16.666666666666664,8.222872048082722 3.656573955858791e-15 0,0 44.048816,-69.761011" />
      <path d="M 44.048816,-69.761011 A 16.666666666666664,8.222872048082722 3.656573955858791e-15 0,0 44.214562,-72.943195" />
      <path d="M 44.214562,-72.943195 A 16.666666666666664,8.222872048082722 3.656573955858791e-15 0,0 37.751605,-78.150194" />
      <path d="M 41.721017,-66.679307 A 16.666666666666668,8.222872048082724 1.8282869779293957e-15 0,0 15.43338,-61.752943" />
      <path d="M 15.43338,-61.752943 A 16.666666666666668,8.222872048082724 1.8282869779293957e-15 0,0 15.326071,-58.704611" />
      <path d="M 15.326071,-58.704611 A 16.666666666666668,8.222872048082724 1.8282869779293957e-15 0,0 48.076665,-58.423976" />
      <path d="M 48.076665,-58.423976 A 16.666666666666668,8.222872048082724 1.8282869779293957e-15 0,0 48.183974,-61.472308" />
      <path d="M 48.183974,-61.472308 A 16.666666666666668,8.222872048082724 1.8282869779293957e-15 0,0 41.721017,-66.679307" />
      <path d="M 31.161309,-41.474359 A 16.666666666666668,8.222872048082724 -5.484860933788186e-15 0,0 4.873672,-36.547996" />
      <path d="M 4.873672,-36.547996 A 16.666666666666668,8.222872048082724 -5.484860933788186e-15 0,0 4.529958,-34.986637" />
      <path d="M 4.529958,-34.986637 A 16.666666666666668,8.222872048082724 -5.484860933788186e-15 0,0 37.516957,-33.219029" />
      <path d="M 37.516957,-33.219029 A 16.666666666666668,8.222872048082724 -5.484860933788186e-15 0,0 37.86067,-34.780388" />
      <path d="M 37.86067,-34.780388 A 16.666666666666668,8.222872048082724 -5.484860933788186e-15 0,0 31.161309,-41.474359" />
      <path d="M 30.754176,-25.45893 A 16.666666666666668,8.222872048082726 0.0 0,0 4.122825,-18.971207" />
      <path d="M 4.122825,-18.971207 A 16.666666666666668,8.222872048082726 0.0 0,0 4.407485,-17.351369" />
      <path d="M 4.407485,-17.351369 A 16.666666666666668,8.222872048082726 0.0 0,0 37.453537,-18.764958" />
      <path d="M 37.453537,-18.764958 A 16.666666666666668,8.222872048082726 0.0 0,0 37.168878,-20.384797" />
      <path d="M 37.168878,-20.384797 A 16.666666666666668,8.222872048082726 0.0 0,0 30.754176,-25.45893" />
      <path d="M 36.542946,-10.240688 A 16.66666666666667,8.222872048082728 3.656573955858791e-15 0,0 10.134812,-2.30466" />
      <path d="M 10.134812,-2.30466 A 16.66666666666667,8.222872048082728 3.656573955858791e-15 0,0 10.196255,-2.133126" />
      <path d="M 10.196255,-2.133126 A 16.66666666666667,8.222872048082728 3.656573955858791e-15 0,0 43.019091,-4.995022" />
      <path d="M 43.019091,-4.995022 A 16.66666666666667,8.222872048082728 3.656573955858791e-15 0,0 42.957648,-5.166555" />
      <path d="M 42.957648,-5.166555 A 16.66666666666667,8.222872048082728 3.656573955858791e-15 0,0 36.542946,-10.240688" />
      <path d="M 41.326624,3.99207 A 16.66666666666667,8.222872048082726 5.484860933788186e-15 0,0 14.795819,11.490621" />
      <path d="M 14.795819,11.490621 A 16.66666666666667,8.222872048082726 5.484860933788186e-15 0,0 14.918489,11.928098" />
      <path d="M 14.918489,11.928098 A 16.66666666666667,8.222872048082726 5.484860933788186e-15 0,0 47.925439,9.675213" />
      <path d="M 47.925439,9.675213 A 16.66666666666667,8.222872048082726 5.484860933788186e-15 0,0 47.802769,9.237736" />
      <path d="M 47.802769,9.237736 A 16.66666666666667,8.222872048082726 5.484860933788186e-15 0,0 41.326624,3.99207" />
      <path d="M 46.352087,26.315856 A 16.66666666666667,8.222872048082726 1.8282869779293957e-15 0,0 19.738373,33.298686" />
      <path d="M 19.738373,33.298686 A 16.66666666666667,8.222872048082726 1.8282869779293957e-15 0,0 19.821282,33.814408" />
      <path d="M 19.821282,33.814408 A 16.66666666666667,8.222872048082726 1.8282869779293957e-15 0,0 53.033811,32.514721" />
      <path d="M 53.033811,32.514721 A 16.66666666666667,8.222872048082726 1.8282869779293957e-15 0,0 52.950902,31.999" />
      <path d="M 52.950902,31.999 A 16.66666666666667,8.222872048082726 1.8282869779293957e-15 0,0 46.352087,26.315856" />
      <path d="M 48.158706,44.992722 A 16.66666666666667,8.222872048082728 3.656573955858791e-15 0,0 22.5042,48.808008" />
      <path d="M 22.5042,48.808008 A 16.66666666666667,8.222872048082728 3.656573955858791e-15 0,0 21.544992,51.975552" />
      <path d="M 21.544992,51.975552 A 16.66666666666667,8.222872048082728 3.656573955858791e-15 0,0 53.881222,54.35913" />
      <path d="M 53.881222,54.35913 A 16.66666666666667,8.222872048082728 3.656573955858791e-15 0,0 54.84043,51.191587" />
      <path d="M 54.84043,51.191587 A 16.66666666666667,8.222872048082728 3.656573955858791e-15 0,0 48.158706,44.992722" />
      <path d="M 35.359767,62.602526 A 16.66666666666667,8.222872048082726 -1.8282869779293957e-15 0,0 9.705261,66.417812" />
      <path d="M 9.705261,66.417812 A 16.66666668376381,8.22287205651798 -1.8282869779293957e-15 1,0 41.082282,71.968934" />
      <path d="M 41.082282,71.968934 A 16.66666666666667,8.222872048082726 -1.8282869779293957e-15 0,0 35.359767,62.602526" />
      <path d="M -11.523145,-109.989809 A 16.66666666666667,8.222872048082726 5.484860933788186e-15 0,0 -37.508684,-105.668044" />
      <path d="M -37.508684,-105.668044 A 16.66666666666667,8.222872048082726 5.484860933788186e-15 0,0 -37.577084,-101.250903" />
      <path d="M -37.577084,-101.250903 A 16.66666666666667,8.222872048082726 5.484860933788186e-15 0,0 -16.880635,-95.496692" />
      <path d="M -5.469595,-101.12988 A 16.66666666666667,8.222872048082726 5.484860933788186e-15 0,0 -5.401195,-105.547021" />
      <path d="M -5.401195,-105.547021 A 16.66666666666667,8.222872048082726 5.484860933788186e-15 0,0 -11.523145,-109.989809" />
      <path d="M -2.52827,-93.5915 A 16.66666666666667,8.222872048082726 5.484860933788186e-15 0,0 -29.160931,-86.998051" />
      <path d="M -29.160931,-86.998051 A 16.66666666666667,8.222872048082726 5.484860933788186e-15 0,0 -28.582209,-84.852594" />
      <path d="M -28.582209,-84.852594 A 16.66666666666667,8.222872048082726 5.484860933788186e-15 0,0 4.172401,-87.003255" />
      <path d="M 4.172401,-87.003255 A 16.66666666666667,8.222872048082726 5.484860933788186e-15 0,0 3.593679,-89.148711" />
      <path d="M 3.593679,-89.148711 A 16.66666666666667,8.222872048082726 5.484860933788186e-15 0,0 -2.52827,-93.5915" />
      <path d="M -2.51553,-73.728282 A 16.66666666666667,8.222872048082726 5.484860933788186e-15 0,0 -28.822258,-68.755681" />
      <path d="M -28.822258,-68.755681 A 16.66666666666667,8.222872048082726 5.484860933788186e-15 0,0 -29.148191,-67.134832" />
      <path d="M -29.148191,-67.134832 A 16.66666666666667,8.222872048082726 5.484860933788186e-15 0,0 3.859208,-65.519187" />
      <path d="M 3.859208,-65.519187 A 16.66666666666667,8.222872048082726 5.484860933788186e-15 0,0 4.185141,-67.140036" />
      <path d="M 4.185141,-67.140036 A 16.66666666666667,8.222872048082726 5.484860933788186e-15 0,0 -2.51553,-73.728282" />
      <path d="M -7.1466,-62.345257 A 16.666666666666668,8.222872048082724 5.484860933788186e-15 0,0 -33.453329,-57.372657" />
      <path d="M -33.453329,-57.372657 A 16.666666666666668,8.222872048082724 5.484860933788186e-15 0,0 -33.754473,-56.202726" />
      <path d="M -33.754473,-56.202726 A 16.666666666666668,8.222872048082724 5.484860933788186e-15 0,0 -22.489296,-47.971176" />
      <path d="M -13.581371,-47.718221 A 16.666666666666668,8.222872048082724 5.484860933788186e-15 0,0 -0.771862,-54.136163" />
      <path d="M -0.771862,-54.136163 A 16.666666666666668,8.222872048082724 5.484860933788186e-15 0,0 -0.470718,-55.306094" />
      <path d="M -0.470718,-55.306094 A 16.666666666666668,8.222872048082724 5.484860933788186e-15 0,0 -7.1466,-62.345257" />
      <path d="M -9.716526,-39.12385 A 16.666666666666668,8.222872048082724 7.313147911717583e-15 0,0 -36.324398,-32.981318" />
      <path d="M -36.324398,-32.981318 A 16.666666666666668,8.222872048082724 7.313147911717583e-15 0,0 -35.935237,-30.711731" />
      <path d="M -35.935237,-30.711731 A 16.666666666666668,8.222872048082724 7.313147911717583e-15 0,0 -14.913364,-24.65397" />
      <path d="M -13.778084,-24.843428 A 16.666666666666668,8.222872048082724 7.313147911717583e-15 0,0 -3.040643,-32.084687" />
      <path d="M -3.040643,-32.084687 A 16.666666666666668,8.222872048082724 7.313147911717583e-15 0,0 -3.429804,-34.354274" />
      <path d="M -3.429804,-34.354274 A 16.666666666666668,8.222872048082724 7.313147911717583e-15 0,0 -9.716526,-39.12385" />
      <path d="M -2.121137,-22.625106 A 16.666666666666668,8.222872048082724 9.141434889646978e-15 0,0 -28.728365,-16.488355" />
      <path d="M -28.728365,-16.488355 A 16.666666666666668,8.222872048082724 9.141434889646978e-15 0,0 -28.339848,-14.212988" />
      <path d="M -28.339848,-14.212988 A 16.666666666666668,8.222872048082724 9.141434889646978e-15 0,0 4.554102,-15.580163" />
      <path d="M 4.554102,-15.580163 A 16.666666666666668,8.222872048082724 9.141434889646978e-15 0,0 4.165585,-17.855531" />
      <path d="M 4.165585,-17.855531 A 16.666666666666668,8.222872048082724 9.141434889646978e-15 0,0 -2.121137,-22.625106" />
      <path d="M -3.927756,-6.509243 A 16.666666666666668,8.222872048082726 1.0969721867576374e-14 0,0 -30.534984,-0.372492" />
      <path d="M -30.534984,-0.372492 A 16.666666666666668,8.222872048082726 1.0969721867576374e-14 0,0 -30.230327,1.710035" />
      <path d="M -30.230327,1.710035 A 16.666666666666668,8.222872048082726 1.0969721867576374e-14 0,0 2.747483,0.535701" />
      <path d="M 2.747483,0.535701 A 16.666666666666668,8.222872048082726 1.0969721867576374e-14 0,0 2.442826,-1.546826" />
      <path d="M 2.442826,-1.546826 A 16.666666666666668,8.222872048082726 1.0969721867576374e-14 0,0 -3.927756,-6.509243" />
      <path d="M 3.27324,11.075419 A 16.666666666666668,8.222872048082726 1.0969721867576374e-14 0,0 -22.930057,15.81183" />
      <path d="M -22.930057,15.81183 A 16.666666666666668,8.222872048082726 1.0969721867576374e-14 0,0 -23.029332,19.294696" />
      <path d="M -23.029332,19.294696 A 16.666666666666668,8.222872048082726 1.0969721867576374e-14 0,0 9.544547,19.520703" />
      <path d="M 9.544547,19.520703 A 16.666666666666668,8.222872048082726 1.0969721867576374e-14 0,0 9.643822,16.037836" />
      <path d="M 9.643822,16.037836 A 16.666666666666668,8.222872048082726 1.0969721867576374e-14 0,0 3.27324,11.075419" />
      <path d="M -2.948143,24.335263 A 16.666666666666668,8.222872048082726 1.279800884550577e-14 0,0 -29.15144,29.071674" />
      <path d="M -29.15144,29.071674 A 16.666666666666668,8.222872048082726 1.279800884550577e-14 0,0 -29.563419,31.301592" />
      <path d="M -29.563419,31.301592 A 16.666666666666668,8.222872048082726 1.279800884550577e-14 0,0 3.323165,32.780547" />
      <path d="M 3.323165,32.780547 A 16.666666666666668,8.222872048082726 1.279800884550577e-14 0,0 3.735144,30.55063" />
      <path d="M 3.735144,30.55063 A 16.666666666666668,8.222872048082726 1.279800884550577e-14 0,0 -2.948143,24.335263" />
      <path d="M -0.925218,46.16945 A 16.66666666666667,8.222872048082728 1.645458280136456e-14 0,0 -27.540494,53.135778" />
      <path d="M -27.540494,53.135778 A 16.66666666666667,8.222872048082728 1.645458280136456e-14 0,0 5.758069,52.384817" />
      <path d="M 5.758069,52.384817 A 16.66666666666667,8.222872048082728 1.645458280136456e-14 0,0 -0.925218,46.16945" />
      <path d="M 18.345528,-40.838375 L 20.23548,-38.483732" />
      <path d="M 1.794568,-18.448481 L 1.760134,-16.834786" />
      <path d="M 2.745,-3.116667 L 1.435202,-1.607661" />
      <path d="M 24.336373,10.74331 L 24.996189,13.024198" />
      <path d="M -2.187981,35.146951 L -2.154091,35.565795" />
      <path d="M -0.746904,51.448274 L -0.828785,51.944956" />
      <path d="M 29.827866,67.056435 L 29.996153,67.828435" />
      <path d="M 1.07447,87.437348 L 0.922894,88.253012" />
      <path d="M -1.456646,101.641682 L -1.650463,102.100757" />
      <path d="M -23.759436,-51.884574 L -23.177136,-50.090462" />
      <path d="M -17.348594,-32.132281 L -17.347909,-32.130179" />
      <path d="M -42.837935,-15.087986 L -44.834027,-12.861368" />
      <path d="M -21.389086,-4.550887 L -18.731751,-1.320632" />
      <path d="M -8.698623,10.875634 L -3.76825,16.868992" />
      <path d="M -35.699864,18.762084 L -36.362065,20.978181" />
      <path d="M -2.722974,21.160697 L -4.551253,27.279152" />
      <path d="M -39.311511,31.252824 L -39.574446,31.728621" />
      <path d="M -15.968769,50.314005 L -15.935813,51.473513" />
      <path d="M -48.660694,71.999995 L -48.6822,72.239502" />
      <path d="M -16.581464,82.548522 L -16.315795,83.371999" />
      <path d="M -58.661026,-68.232484 L -58.567961,-67.343403" />
      <path d="M -56.859502,-51.021949 L -56.679605,-49.303333" />
      <path d="M -57.256294,-47.462455 L -56.363006,-46.278761" />
      <path d="M -55.196156,-44.73257 L -48.083333,-35.307385" />
      <path d="M -80.344249,-32.887597 L -80.534165,-31.175705" />
      <path d="M -47.060734,-31.988793 L -48.077669,-22.822221" />
      <path d="M -82.378402,-12.715863 L -82.651979,-12.085886" />
      <path d="M -51.411748,-5.523995 L -53.450173,-0.830027" />
      <path d="M -58.048873,8.1703 L -57.870594,9.349062" />
      <path d="M -55.776026,23.441856 L -55.698244,23.712383" />
      <path d="M -82.75581,38.937477 L -84.402714,40.972337" />
      <path d="M -62.308921,55.522618 L -61.904632,57.522091" />
      <path d="M -59.03198,71.861597 L -58.958772,72.091293" />
      <path d="M 22.427289,-58.643453 L 22.115805,-51.856608" />
      <path d="M 22.325477,-52.983763 L 18.495933,-41.305722" />
      <path d="M 18.726044,-38.106951 L 27.733659,-19.241788" />
      <path d="M 51.17127,-41.87789 L 51.929557,-40.289768" />
      <path d="M 27.328585,-21.689313 L 24.542353,-1.625227" />
      <path d="M 24.522321,-0.671189 L 25.761762,12.142187" />
      <path d="M 26.274537,17.443263 L 26.32894,18.005677" />
      <path d="M 57.817759,-1.455154 L 57.863929,-0.977848" />
      <path d="M 26.318133,17.870667 L 27.526792,36.942983" />
      <path d="M 27.636097,35.711544 L 25.002473,46.598683" />
      <path d="M 24.890629,47.35996 L 23.898276,66.237693" />
      <path d="M 58.212757,47.786341 L 58.192681,48.168261" />
      <path d="M 23.899193,66.680847 L 25.120592,88.220017" />
      <path d="M 57.219488,66.220922 L 57.232053,66.442492" />
      <path d="M 25.156376,88.575554 L 27.344648,103.699648" />
      <path d="M 58.405102,87.404555 L 58.430796,87.582132" />
      <path d="M -21.541082,-75.014421 L -22.558181,-72.015174" />
      <path d="M -22.441827,-68.9942 L -18.172989,-58.802177" />
      <path d="M 10.201818,-72.322308 L 10.832225,-70.817186" />
      <path d="M 14.911135,-61.078622 L 19.425739,-50.299824" />
      <path d="M -13.561983,-48.7147 L -13.579116,-47.834118" />
      <path d="M -13.761033,-38.484171 L -13.784172,-37.294929" />
      <path d="M 19.769815,-48.556839 L 19.540769,-36.78465" />
      <path d="M -13.773875,-21.154727 L -13.766314,-14.528879" />
      <path d="M 19.541534,-36.868209 L 19.567014,-14.538137" />
      <path d="M -13.260324,-16.54429 L -19.685273,-3.974913" />
      <path d="M 19.061023,-12.522726 L 12.636074,0.046651" />
      <path d="M -19.990691,-3.235999 L -25.983028,15.648021" />
      <path d="M 12.941492,-0.692264 L 6.949156,18.191756" />
      <path d="M -26.164732,16.528696 L -27.958611,35.111413" />
      <path d="M 7.130859,17.31108 L 5.33698,35.893797" />
      <path d="M -24.872724,40.28227 L -13.928498,47.841159" />
      <path d="M 2.251094,30.72294 L 21.831156,44.246374" />
      <path d="M -7.595555,46.506176 L -10.16347,50.441566" />
      <path d="M -15.72298,58.961649 L -19.987362,65.496915" />
      <path d="M 24.13405,51.545902 L 11.742244,70.536641" />
      <path d="M -20.558835,66.654267 L -26.754739,84.847818" />
      <path d="M 12.313717,69.379289 L 6.117814,87.572841" />
      <path d="M -14.2894,-92.24965 L -11.489968,-88.741719" />
      <path d="M -41.823234,-89.486254 L -45.267745,-86.177687" />
      <path d="M -55.567043,-76.284871 L -55.843572,-76.019256" />
      <path d="M -12.172576,-81.972247 L -26.192914,-68.505249" />
      <path d="M -57.678391,-72.03229 L -57.579511,-70.288566" />
      <path d="M -56.554329,-52.209648 L -56.456992,-50.49312" />
      <path d="M -24.358095,-72.492215 L -23.136696,-50.953045" />
      <path d="M -56.441329,-50.298985 L -56.174043,-47.745514" />
      <path d="M -55.965353,-45.751831 L -54.011271,-27.083863" />
      <path d="M -23.152359,-51.14718 L -23.062615,-50.289831" />
      <path d="M -22.977295,-49.474737 L -20.722301,-27.932057" />
      <path d="M -53.027309,-30.321731 L -60.266524,-20.514224" />
      <path d="M -21.706263,-24.694189 L -28.945478,-14.886683" />
      <path d="M -60.330204,-14.974501 L -45.915473,5.265312" />
      <path d="M -28.881797,-20.426406 L -14.467066,-0.186593" />
      <path d="M -46.85675,2.637451 L -46.717653,8.389933" />
      <path d="M -13.525789,2.441268 L -13.131396,18.751714" />
      <path d="M -46.453764,18.568161 L -46.466949,18.75798" />
      <path d="M -13.139989,19.131449 L -14.526735,39.095101" />
      <path d="M -46.923572,36.109716 L -47.754005,37.286488" />
      <path d="M -50.65394,41.395865 L -60.116905,54.805438" />
      <path d="M -15.443673,41.517199 L -28.637005,60.212921" />
      <path d="M -61.168675,61.161878 L -61.63929,75.164665" />
      <path d="M -27.712579,57.645509 L -28.310539,75.437325" />
      <path d="M 50.239813,-79.408086 L 48.692715,-71.65203" />
      <path d="M 51.526876,-66.201383 L 55.969118,-63.000162" />
      <path d="M 79.031632,-75.491985 L 82.460196,-73.021253" />
      <path d="M 65.49854,-61.577341 L 63.181395,-57.802765" />
      <path d="M 52.148713,-39.830777 L 50.931201,-37.847477" />
      <path d="M 50.269126,-34.805679 L 53.068098,-17.610182" />
      <path d="M 83.495487,-36.122164 L 83.748082,-34.570343" />
      <path d="M 53.047722,-18.786489 L 50.84671,-1.584708" />
      <path d="M 50.83131,-0.687661 L 52.218056,14.141416" />
      <path d="M 84.129222,-1.445626 L 84.171185,-0.996895" />
      <path d="M 52.670495,15.701745 L 60.544764,31.709628" />
      <path d="M 85.063529,11.823122 L 85.442006,12.59254" />
      <path d="M 60.812805,30.934969 L 60.725064,32.076168" />
      <path d="M 60.638962,33.196056 L 60.091261,40.319721" />
      <path d="M 59.922513,45.338022 L 59.655277,45.990345" />
      <path d="M 58.108718,49.765505 L 51.538337,65.803844" />
      <path d="M 51.435283,68.786274 L 56.015394,82.328564" />
      <path d="M 84.314036,66.07952 L 84.819962,67.575423" />
      <path d="M 18.532575,-88.789365 L 17.897347,-87.39102" />
      <path d="M 12.198364,-74.845689 L 11.522406,-73.357683" />
      <path d="M 48.681857,-79.959854 L 44.048816,-69.761011" />
      <path d="M 12.571959,-66.663501 L 15.326071,-58.704611" />
      <path d="M 44.214562,-72.943195 L 48.183974,-61.472308" />
      <path d="M 15.43338,-61.752943 L 4.873672,-36.547996" />
      <path d="M 48.076665,-58.423976 L 37.516957,-33.219029" />
      <path d="M 4.529958,-34.986637 L 4.122825,-18.971207" />
      <path d="M 37.86067,-34.780388 L 37.453537,-18.764958" />
      <path d="M 4.407485,-17.351369 L 10.196255,-2.133126" />
      <path d="M 37.168878,-20.384797 L 42.957648,-5.166555" />
      <path d="M 10.134812,-2.30466 L 14.918489,11.928098" />
      <path d="M 43.019091,-4.995022 L 47.802769,9.237736" />
      <path d="M 14.795819,11.490621 L 19.821282,33.814408" />
      <path d="M 47.925439,9.675213 L 52.950902,31.999" />
      <path d="M 19.738373,33.298686 L 21.544992,51.975552" />
      <path d="M 53.033811,32.514721 L 54.84043,51.191587" />
      <path d="M 22.5042,48.808008 L 9.705261,66.417812" />
      <path d="M 53.881222,54.35913 L 41.082282,71.968934" />
      <path d="M -34.83193,-110.268046 L -37.508684,-105.668044" />
      <path d="M -37.577084,-101.250903 L -28.582209,-84.852594" />
      <path d="M -5.401195,-105.547021 L -4.18716,-103.333745" />
      <path d="M -0.158045,-95.988378 L 3.593679,-89.148711" />
      <path d="M -29.160931,-86.998051 L -29.148191,-67.134832" />
      <path d="M 4.172401,-87.003255 L 4.185141,-67.140036" />
      <path d="M -28.822258,-68.755681 L -33.453329,-57.372657" />
      <path d="M 3.859208,-65.519187 L -0.771862,-54.136163" />
      <path d="M -33.754473,-56.202726 L -36.324398,-32.981318" />
      <path d="M -0.470718,-55.306094 L -3.040643,-32.084687" />
      <path d="M -35.935237,-30.711731 L -28.339848,-14.212988" />
      <path d="M -3.429804,-34.354274 L 4.165585,-17.855531" />
      <path d="M -28.728365,-16.488355 L -30.534984,-0.372492" />
      <path d="M 4.554102,-15.580163 L 2.747483,0.535701" />
      <path d="M -30.230327,1.710035 L -23.029332,19.294696" />
      <path d="M 2.442826,-1.546826 L 9.643822,16.037836" />
      <path d="M -22.930057,15.81183 L -29.15144,29.071674" />
      <path d="M 9.544547,19.520703 L 3.323165,32.780547" />
      <path d="M -29.563419,31.301592 L -27.540494,53.135778" />
      <path d="M 3.735144,30.55063 L 5.758069,52.384817" />
      <line x1="19.825825" y1="-59.833355" x2="12.815656" y2="-44.401673" />
      <line x1="12.815656" y1="-44.401673" x2="28.426306" y2="-24.952762" />
      <line x1="28.426306" y1="-24.952762" x2="28.031913" y2="-6.470479" />
      <line x1="28.031913" y1="-6.470479" x2="17.8029" y2="5.314281" />
      <line x1="17.8029" y1="5.314281" x2="24.431415" y2="28.228101" />
      <line x1="24.431415" y1="28.228101" x2="25.830901" y2="45.524032" />
      <line x1="25.830901" y1="45.524032" x2="23.222756" y2="61.344878" />
      <line x1="23.222756" y1="61.344878" x2="27.63752" y2="81.597262" />
      <line x1="27.63752" y1="81.597262" x2="24.825808" y2="96.727641" />
      <line x1="24.825808" y1="96.727641" x2="18.019206" y2="112.84979" />
      <line x1="-20.250484" y1="-74.584193" x2="-30.250452" y2="-57.175257" />
      <line x1="-30.250452" y1="-57.175257" x2="-23.838242" y2="-37.418758" />
      <line x1="-23.838242" y1="-37.418758" x2="-17.629599" y2="-18.352727" />
      <line x1="-17.629599" y1="-18.352727" x2="-26.86626" y2="-8.049336" />
      <line x1="-26.86626" y1="-8.049336" x2="-9.245424" y2="13.370544" />
      <line x1="-9.245424" y1="13.370544" x2="-13.265795" y2="26.824971" />
      <line x1="-13.265795" y1="26.824971" x2="-22.667803" y2="43.838456" />
      <line x1="-22.667803" y1="43.838456" x2="-22.044363" y2="65.773076" />
      <line x1="-22.044363" y1="65.773076" x2="-23.074936" y2="77.250249" />
      <line x1="-23.074936" y1="77.250249" x2="-16.255593" y2="98.387683" />
      <line x1="-60.326793" y1="-89.335031" x2="-65.339517" y2="-74.399234" />
      <line x1="-65.339517" y1="-74.399234" x2="-62.909459" y2="-51.184112" />
      <line x1="-62.909459" y1="-51.184112" x2="-53.736497" y2="-39.029042" />
      <line x1="-53.736497" y1="-39.029042" x2="-56.115596" y2="-17.584021" />
      <line x1="-56.115596" y1="-17.584021" x2="-64.703338" y2="2.191334" />
      <line x1="-64.703338" y1="2.191334" x2="-62.311499" y2="18.005895" />
      <line x1="-62.311499" y1="18.005895" x2="-57.311515" y2="35.395974" />
      <line x1="-57.311515" y1="35.395974" x2="-68.927275" y2="49.748023" />
      <line x1="-68.927275" y1="49.748023" x2="-65.530343" y2="66.548068" />
      <line x1="-65.530343" y1="66.548068" x2="-57.693169" y2="91.13784" />
      <line x1="49.723809" y1="-79.605896" x2="48.744196" y2="-58.261309" />
      <line x1="48.744196" y1="-58.261309" x2="44.914652" y2="-46.583268" />
      <line x1="44.914652" y1="-46.583268" x2="53.922267" y2="-27.718105" />
      <line x1="53.922267" y1="-27.718105" x2="51.136035" y2="-7.654018" />
      <line x1="51.136035" y1="-7.654018" x2="52.942653" y2="11.022847" />
      <line x1="52.942653" y1="11.022847" x2="54.151313" y2="30.095164" />
      <line x1="54.151313" y1="30.095164" x2="51.517688" y2="40.982303" />
      <line x1="51.517688" y1="40.982303" x2="50.525335" y2="59.860037" />
      <line x1="50.525335" y1="59.860037" x2="51.746734" y2="81.399207" />
      <line x1="51.746734" y1="81.399207" x2="53.935006" y2="96.523301" />
      <line x1="9.6475" y1="-94.356734" x2="3.84599" y2="-77.249101" />
      <line x1="3.84599" y1="-77.249101" x2="13.069911" y2="-55.226617" />
      <line x1="13.069911" y1="-55.226617" x2="12.840865" y2="-43.454427" />
      <line x1="12.840865" y1="-43.454427" x2="12.866345" y2="-21.124355" />
      <line x1="12.866345" y1="-21.124355" x2="6.441395" y2="-8.554978" />
      <line x1="6.441395" y1="-8.554978" x2="0.449059" y2="10.329041" />
      <line x1="0.449059" y1="10.329041" x2="-1.34482" y2="28.911758" />
      <line x1="-1.34482" y1="28.911758" x2="18.235242" y2="42.435192" />
      <line x1="18.235242" y1="42.435192" x2="5.843436" y2="61.425931" />
      <line x1="5.843436" y1="61.425931" x2="-0.352467" y2="79.619482" />
      <line x1="-30.428809" y1="-109.107572" x2="-17.03191" y2="-92.320098" />
      <line x1="-17.03191" y1="-92.320098" x2="-31.052248" y2="-78.853099" />
      <line x1="-31.052248" y1="-78.853099" x2="-29.830849" y2="-57.313929" />
      <line x1="-29.830849" y1="-57.313929" x2="-27.400791" y2="-34.098807" />
      <line x1="-27.400791" y1="-34.098807" x2="-34.640006" y2="-24.291301" />
      <line x1="-34.640006" y1="-24.291301" x2="-20.225275" y2="-4.051488" />
      <line x1="-20.225275" y1="-4.051488" x2="-19.830882" y2="12.258958" />
      <line x1="-19.830882" y1="12.258958" x2="-21.217628" y2="32.22261" />
      <line x1="-21.217628" y1="32.22261" x2="-34.41096" y2="50.918332" />
      <line x1="-34.41096" y1="50.918332" x2="-35.00892" y2="68.710148" />
      <line x1="79.621793" y1="-99.378438" x2="75.245249" y2="-77.437531" />
      <line x1="75.245249" y1="-77.437531" x2="91.41564" y2="-65.784632" />
      <line x1="91.41564" y1="-65.784632" x2="76.848301" y2="-42.054769" />
      <line x1="76.848301" y1="-42.054769" x2="79.647273" y2="-24.859272" />
      <line x1="79.647273" y1="-24.859272" x2="77.446261" y2="-7.65749" />
      <line x1="77.446261" y1="-7.65749" x2="78.833007" y2="7.171586" />
      <line x1="78.833007" y1="7.171586" x2="87.433489" y2="24.655814" />
      <line x1="87.433489" y1="24.655814" x2="86.224829" y2="40.376227" />
      <line x1="86.224829" y1="40.376227" x2="77.840654" y2="60.842049" />
      <line x1="77.840654" y1="60.842049" x2="82.420765" y2="74.38434" />
      <line x1="39.545484" y1="-114.129276" x2="44.761774" y2="-93.581876" />
      <line x1="44.761774" y1="-93.581876" x2="37.751605" y2="-78.150194" />
      <line x1="37.751605" y1="-78.150194" x2="41.721017" y2="-66.679307" />
      <line x1="41.721017" y1="-66.679307" x2="31.161309" y2="-41.474359" />
      <line x1="31.161309" y1="-41.474359" x2="30.754176" y2="-25.45893" />
      <line x1="30.754176" y1="-25.45893" x2="36.542946" y2="-10.240688" />
      <line x1="36.542946" y1="-10.240688" x2="41.326624" y2="3.99207" />
      <line x1="41.326624" y1="3.99207" x2="46.352087" y2="26.315856" />
      <line x1="46.352087" y1="26.315856" x2="48.158706" y2="44.992722" />
      <line x1="48.158706" y1="44.992722" x2="35.359767" y2="62.602526" />
      <line x1="-0.530824" y1="-128.880114" x2="-11.523145" y2="-109.989809" />
      <line x1="-11.523145" y1="-109.989809" x2="-2.52827" y2="-93.5915" />
      <line x1="-2.52827" y1="-93.5915" x2="-2.51553" y2="-73.728282" />
      <line x1="-2.51553" y1="-73.728282" x2="-7.1466" y2="-62.345257" />
      <line x1="-7.1466" y1="-62.345257" x2="-9.716526" y2="-39.12385" />
      <line x1="-9.716526" y1="-39.12385" x2="-2.121137" y2="-22.625106" />
      <line x1="-2.121137" y1="-22.625106" x2="-3.927756" y2="-6.509243" />
      <line x1="-3.927756" y1="-6.509243" x2="3.27324" y2="11.075419" />
      <line x1="3.27324" y1="11.075419" x2="-2.948143" y2="24.335263" />
      <line x1="-2.948143" y1="24.335263" x2="-0.925218" y2="46.16945" />
    </g>
  </g>
</svg>