<?xml version='1.0' encoding='utf-8'?>
<svg width="129.379991mm" height="180.09mm" viewBox="-111.564828 -155.292249 223.129656 310.584498" version="1.1" xmlns="http://www.w3.org/2000/svg">
  <g transform="scale(1,-1)" stroke-linecap="round">
    <g fill="rgb(30,30,46)" stroke="none" stroke-width="0.15521464189127535">
      <path d="M -111.487221,155.214642 L -111.487221,-155.214642 L 111.487221,-155.214642 L 111.487221,155.214642 L -111.487221,155.214642" />
    </g>
    <g fill="none" stroke="rgb(200,200,200)" stroke-width="0.15521464189127535" id="Visible">
      <path d="M -29.258117,-108.103719 A 16.666666666666668,8.101264637332878 0.0 0,0 -55.807498,-102.818167" />
      <path d="M -55.807498,-102.818167 A 16.666666666666668,8.101264637332878 0.0 0,0 -22.826021,-100.470202" />
      <path d="M -22.826021,-100.470202 A 16.666666666666668,8.101264637332878 0.0 0,0 -29.258117,-108.103719" />
      <path d="M -52.267496,-73.557864 A 16.666666666666668,8.101264637332878 0.0 0,0 -41.928252,-73.062928" />
      <path d="M -33.242765,-75.505921 A 16.666666666666668,8.101264637332878 0.0 0,0 -29.055037,-79.797077" />
      <path d="M -52.771889,-57.210322 A 16.666666666666668,8.101264637332877 1.8197129144836345e-15 0,0 -45.99085,-55.735105" />
      <path d="M -50.677726,-48.247881 A 16.666666666666664,8.101264637332875 3.639425828967269e-15 0,0 -47.40087,-45.312086" />
      <path d="M -57.149918,-35.276554 A 16.666666666666664,8.101264637332873 7.278851657934538e-15 0,0 -56.728277,-34.322238" />
      <path d="M -59.192193,-6.651252 A 16.666666666666664,8.101264637332875 3.639425828967269e-15 0,0 -49.934645,-5.718962" />
      <path d="M -57.000692,4.394078 A 16.666666666666664,8.101264637332875 1.8197129144836345e-15 0,0 -46.997172,9.536332" />
      <path d="M -52.34405,18.986096 A 16.666666666666664,8.101264637332875 -1.8197129144836345e-15 0,0 -49.04131,22.673999" />
      <path d="M -53.563717,36.421537 A 16.666666666666664,8.101264637332877 -7.278851657934538e-15 0,0 -53.456218,37.57451" />
      <path d="M -53.456218,37.57451 A 16.666666666666664,8.101264637332877 -7.278851657934538e-15 0,0 -42.614996,44.242762" />
      <path d="M -49.641277,53.408338 A 16.66666666666666,8.101264637332877 -1.0918277486901809e-14 0,0 -44.305014,58.457785" />
      <path d="M -9.684527,41.643523 A 16.666666666666668,8.101264637332878 1.0918277486901807e-14 0,0 -7.516677,41.996333" />
      <path d="M -13.698312,27.562534 A 16.666666666666668,8.101264637332878 1.0918277486901807e-14 0,0 -4.797606,28.077036" />
      <path d="M -12.952303,9.952093 A 16.66666666666667,8.10126463733288 1.0918277486901807e-14 0,0 -11.069393,10.366166" />
      <path d="M -17.286798,-9.118583 A 16.66666666666667,8.10126463733288 5.459138743450904e-15 0,0 -14.635476,-8.879721" />
      <path d="M -21.594132,-23.453306 A 16.66666666666667,8.101264637332878 1.637741623035271e-14 0,0 -18.503483,-23.445277" />
      <path d="M -12.451909,-47.768096 A 16.66666666666667,8.101264637332878 9.098564572418173e-15 0,0 -11.361064,-47.27107" />
      <path d="M -22.472558,-78.813499 A 16.66666666666667,8.10126463733288 3.639425828967269e-15 0,0 -20.937789,-76.443397" />
      <path d="M -23.210057,-99.195647 A 16.666666666666668,8.101264637332878 0.0 0,0 2.336246,-104.698499" />
      <path d="M 16.298145,-65.218545 A 16.66666666666667,8.101264637332877 1.8197129144836345e-15 0,0 21.103228,-64.780468" />
      <path d="M 0.917812,-127.482324 A 16.666666666666668,8.101264637332878 0.0 0,0 -25.595832,-122.309809" />
      <path d="M -25.595832,-122.309809 A 16.666666666666668,8.101264637332878 0.0 0,0 7.31417,-119.735769" />
      <path d="M 7.31417,-119.735769 A 16.666666666666668,8.101264637332878 0.0 0,0 0.917812,-127.482324" />
      <path d="M 16.623997,-82.03672 A 16.666666666666668,8.10126463733288 0.0 0,0 25.02465,-75.414107" />
      <path d="M 48.661922,-79.349454 A 16.666666666666668,8.10126463733288 0.0 0,0 49.91288,-82.873197" />
      <path d="M 40.785259,-112.814532 A 16.666666666666668,8.10126463733288 0.0 0,0 14.082175,-105.936759" />
      <path d="M 14.082175,-105.936759 A 16.666666666666668,8.10126463733288 0.0 1,0 47.371057,-106.773236" />
      <path d="M 47.371057,-106.773236 A 16.666666666666668,8.10126463733288 0.0 0,0 40.785259,-112.814532" />
      <path d="M 23.454059,6.096443 A 16.666666666666675,8.10126463733288 0.0 0,0 26.882551,6.213531" />
      <path d="M 20.747143,56.298206 A 16.666666666666675,8.101264637332878 1.8197129144836345e-15 0,0 23.06696,57.621506" />
      <path d="M 50.476777,-78.768137 A 16.666666666666668,8.101264637332878 0.0 0,0 23.954907,-73.570523" />
      <path d="M 23.954907,-73.570523 A 16.66666690814227,8.101264754708343 0.0 0,0 56.881361,-71.046681" />
      <path d="M 56.881361,-71.046681 A 16.666666666666668,8.101264637332878 0.0 0,0 50.476777,-78.768137" />
      <path d="M 30.205106,-43.315033 A 16.666666666666668,8.101264637332878 0.0 0,0 50.048826,-49.985984" />
      <path d="M 34.405542,-32.835193 A 16.666666666666664,8.101264637332875 3.639425828967269e-15 0,0 64.830028,-33.72845" />
      <path d="M 64.830028,-33.72845 A 16.666666666666664,8.101264637332875 3.639425828967269e-15 0,0 64.016458,-40.275566" />
      <path d="M 32.11961,-11.738143 A 16.66666666666666,8.101264637332875 0.0 0,0 51.834559,-16.764027" />
      <path d="M 20.94823,-1.83491 A 16.66666666666666,8.101264637332871 7.278851657934538e-15 0,0 21.590103,-0.767496" />
      <path d="M 21.590103,-0.767496 A 16.66666666666666,8.101264637332871 7.278851657934538e-15 0,0 53.887537,-3.817598" />
      <path d="M 34.197911,15.86289 A 16.666666666666664,8.101264637332873 9.098564572418173e-15 0,0 66.118402,14.792485" />
      <path d="M 66.118402,14.792485 A 16.666666666666664,8.101264637332873 9.098564572418173e-15 0,0 65.475181,10.260488" />
      <path d="M 35.539708,35.860136 A 16.666666666666664,8.101264637332873 7.278851657934537e-15 0,0 59.136092,30.311542" />
      <path d="M 53.78112,-5.500417 A 16.66666666666667,8.101264637332878 1.8197129144836345e-15 0,0 85.092469,-9.022236" />
      <path d="M 85.092469,-9.022236 A 16.66666666666667,8.101264637332878 1.8197129144836345e-15 0,0 85.104691,-9.476992" />
      <path d="M 61.344994,25.401981 A 16.66666666666667,8.10126463733288 0.0 0,0 82.806142,17.97838" />
      <path d="M 28.416148,46.747001 A 16.66666666666666,8.101264637332873 1.8197129144836345e-15 0,0 61.357697,47.936185" />
      <path d="M 61.357697,47.936185 A 16.66666666666666,8.101264637332873 1.8197129144836345e-15 0,0 61.688756,45.769436" />
      <path d="M 53.691095,-19.187569 A 16.666666666666675,8.101264637332878 0.0 0,0 84.672059,-23.186551" />
      <path d="M 60.28446,34.47646 A 16.666666666666668,8.101264637332878 0.0 0,0 88.832411,28.222265" />
      <path d="M 88.832411,28.222265 A 16.666666666666668,8.101264637332878 0.0 0,0 88.327206,26.753004" />
      <path d="M 24.152887,71.529421 A 16.66666666666666,8.101264637332871 5.459138743450903e-15 0,0 52.736634,67.729243" />
      <path d="M 62.864162,-31.162189 A 16.666666666666675,8.10126463733288 -1.8197129144836345e-15 0,0 85.25355,-38.6221" />
      <path d="M 85.25355,-38.6221 A 16.666666666666675,8.10126463733288 -1.8197129144836345e-15 0,0 85.179706,-39.546427" />
      <path d="M 60.782238,49.257379 A 16.666666666666668,8.101264637332878 0.0 0,0 90.840173,46.61811" />
      <path d="M 90.840173,46.61811 A 16.666666666666668,8.101264637332878 0.0 0,0 91.246485,44.150309" />
      <path d="M 23.563781,85.212654 A 16.66666666666666,8.101264637332873 0.0 0,0 55.467086,81.384111" />
      <path d="M 55.180441,-48.584051 A 16.66666666666667,8.10126463733288 -1.8197129144836345e-15 0,0 81.885904,-53.875407" />
      <path d="M 53.554936,68.767759 A 16.66666666666667,8.101264637332882 1.8197129144836345e-15 0,0 81.831449,65.049312" />
      <path d="M 28.500107,104.668105 A 16.66666666666666,8.101264637332875 -1.8197129144836345e-15 1,0 61.516687,102.439748" />
      <path d="M 56.008295,-68.355531 A 16.666666666666668,8.101264637332878 0.0 0,0 86.885856,-71.343032" />
      <path d="M 86.885856,-71.343032 A 16.666666666666668,8.101264637332878 0.0 0,0 87.044624,-72.41524" />
      <path d="M 59.041317,83.717581 A 16.666666666666668,8.101264637332878 1.819712914483635e-15 1,0 91.371391,79.772352" />
      <path d="M 80.652706,-98.146741 A 16.666666666666668,8.101264637332878 0.0 0,0 53.927644,-91.731413" />
      <path d="M 53.927644,-91.731413 A 16.666667135327128,8.101264865137422 0.0 1,0 87.260482,-91.643" />
      <path d="M 87.260482,-91.643 A 16.666666666666668,8.101264637332878 0.0 0,0 80.652706,-98.146741" />
      <path d="M 20.300848,-59.389533 A 16.666666666666668,8.101264637332878 0.0 0,0 -6.224295,-51.67821" />
      <path d="M -6.224295,-51.67821 A 16.666666666666668,8.101264637332878 0.0 0,0 26.708706,-54.181786" />
      <path d="M 26.708706,-54.181786 A 16.666666666666668,8.101264637332878 0.0 0,0 20.300848,-59.389533" />
      <path d="M 0.154496,-31.853031 A 16.666666666666668,8.101264637332878 0.0 0,0 33.287439,-33.146851" />
      <path d="M 33.287439,-33.146851 A 16.666666666666668,8.101264637332878 0.0 0,0 33.087497,-34.356607" />
      <path d="M 0.148385,-14.903528 A 16.666666666666668,8.101264637332877 -5.459138743450904e-15 0,0 31.40116,-11.026188" />
      <path d="M 31.40116,-11.026188 A 16.666666666666668,8.101264637332877 -5.459138743450904e-15 0,0 33.48127,-14.987591" />
      <path d="M -13.740512,-4.823359 A 16.666666666666668,8.101264637332877 -1.2737990401385439e-14 0,0 -15.422982,0.85557" />
      <path d="M -15.422982,0.85557 A 16.666666666666668,8.101264637332877 -1.2737990401385439e-14 0,0 15.432154,3.015384" />
      <path d="M -7.815125,17.475248 A 16.666666666666668,8.101264637332877 -1.2737990401385439e-14 0,0 -7.427492,18.17344" />
      <path d="M -7.427492,18.17344 A 16.666666666666668,8.101264637332877 -1.2737990401385439e-14 0,0 24.72248,13.956134" />
      <path d="M 3.973279,35.57897 A 16.666666666666668,8.101264637332877 -1.2737990401385439e-14 0,0 34.852254,36.654682" />
      <path d="M 34.852254,36.654682 A 16.666666666666668,8.101264637332877 -1.2737990401385439e-14 0,0 35.735617,30.663472" />
      <path d="M -12.341429,46.834832 A 16.666666666666668,8.101264637332878 -7.278851657934538e-15 0,0 -13.912711,51.243648" />
      <path d="M -13.912711,51.243648 A 16.666666666666668,8.101264637332878 -7.278851657934538e-15 0,0 17.654183,53.901753" />
      <path d="M -8.762984,74.274326 A 16.66666666666667,8.101264637332878 -1.4557703315869076e-14 0,0 24.464891,73.648052" />
      <path d="M 24.464891,73.648052 A 16.66666666666667,8.101264637332878 -1.4557703315869076e-14 0,0 24.375192,72.523616" />
      <path d="M -9.368092,81.294372 A 16.66666666666667,8.101264637332878 -1.2737990401385439e-14 0,0 23.931713,81.992725" />
      <path d="M 23.931713,81.992725 A 16.66666666666667,8.101264637332878 -1.2737990401385439e-14 0,0 23.949482,81.792533" />
      <path d="M -12.002283,104.302584 A 16.66666666666667,8.101264637332877 -1.2737990401385439e-14 0,0 -11.762852,106.190978" />
      <path d="M -11.762852,106.190978 A 16.66666666666667,8.101264637332877 -1.2737990401385439e-14 0,0 21.279753,105.201129" />
      <path d="M -5.555864,122.904873 A 16.666666927672306,8.10126476420142 -1.6377416230352708e-14 0,0 27.247312,120.026631" />
      <path d="M -19.566599,-74.057324 A 16.666666666666668,8.101264637332877 3.639425828967269e-15 0,0 -46.290629,-67.497436" />
      <path d="M -46.290629,-67.497436 A 16.666666666666668,8.101264637332877 3.639425828967269e-15 1,0 -12.959854,-67.698143" />
      <path d="M -12.959854,-67.698143 A 16.666666666666668,8.101264637332877 3.639425828967269e-15 0,0 -19.566599,-74.057324" />
      <path d="M -45.731166,-45.545964 A 16.666666666666668,8.101264637332877 3.639425828967269e-15 0,0 -13.675799,-42.536711" />
      <path d="M -13.675799,-42.536711 A 16.666666666666668,8.101264637332877 3.639425828967269e-15 0,0 -12.40039,-45.746671" />
      <path d="M -56.22216,-34.997001 A 16.666666666666668,8.10126463733288 0.0 0,0 -57.340216,-30.772322" />
      <path d="M -57.340216,-30.772322 A 16.666666666666668,8.10126463733288 0.0 0,0 -25.442203,-28.777788" />
      <path d="M -52.340265,-13.283282 A 16.66666666666667,8.101264637332878 7.278851657934541e-15 0,0 -52.302944,-13.159733" />
      <path d="M -52.302944,-13.159733 A 16.66666666666667,8.101264637332878 7.278851657934541e-15 0,0 -19.324196,-15.513429" />
      <path d="M -45.342661,8.70823 A 16.66666666666667,8.101264637332878 7.278851657934541e-15 0,0 -12.649662,9.327869" />
      <path d="M -12.649662,9.327869 A 16.66666666666667,8.101264637332878 7.278851657934541e-15 0,0 -12.223236,7.845547" />
      <path d="M -50.028102,15.787903 A 16.66666666666667,8.101264637332877 3.639425828967269e-15 0,0 -50.267078,18.914128" />
      <path d="M -50.267078,18.914128 A 16.66666666666667,8.101264637332877 3.639425828967269e-15 0,0 -17.583531,19.504427" />
      <path d="M -44.469778,36.696523 A 16.66666666666667,8.101264637332877 1.8197129144836345e-15 0,0 -11.461024,34.461491" />
      <path d="M -11.461024,34.461491 A 16.66666666666667,8.101264637332877 1.8197129144836345e-15 0,0 -11.547255,34.160596" />
      <path d="M -39.965745,54.953168 A 16.666666666666668,8.101264637332875 -5.459138743450903e-15 0,0 -11.981787,59.879155" />
      <path d="M -53.974308,71.863218 A 16.666666666666668,8.101264637332877 -5.459138743450904e-15 0,0 -54.885656,75.007217" />
      <path d="M -54.885656,75.007217 A 16.666666666666668,8.101264637332877 -5.459138743450904e-15 0,0 -22.518301,77.223969" />
      <path d="M -52.88127,92.003761 A 16.666666666666668,8.101264637332877 -3.639425828967269e-15 0,0 -52.558691,93.191417" />
      <path d="M -52.558691,93.191417 A 16.666666666666668,8.101264637332877 -3.639425828967269e-15 0,0 -19.602567,91.076514" />
      <path d="M -43.981683,113.215735 A 16.66666677601091,8.101264690482477 -7.278851657934538e-15 0,0 -11.348138,109.913177" />
      <path d="M -59.434045,-88.725115 A 16.666666666666668,8.101264637332878 0.0 0,0 -86.151487,-82.01668" />
      <path d="M -86.151487,-82.01668 A 16.666666666666668,8.101264637332878 0.0 0,0 -52.83389,-82.514481" />
      <path d="M -52.83389,-82.514481 A 16.666666666666668,8.101264637332878 0.0 0,0 -59.434045,-88.725115" />
      <path d="M -85.13828,-65.994419 A 16.666666666666668,8.101264637332878 0.0 0,0 -51.836052,-65.815676" />
      <path d="M -51.836052,-65.815676 A 16.666666666666668,8.101264637332878 0.0 0,0 -51.820683,-66.492221" />
      <path d="M -86.695582,-52.209699 A 16.666666666666664,8.101264637332877 0.0 0,0 -53.492818,-50.864126" />
      <path d="M -53.492818,-50.864126 A 16.666666666666664,8.101264637332877 0.0 0,0 -53.408722,-51.354411" />
      <path d="M -91.439634,-32.121076 A 16.666666666666664,8.101264637332877 0.0 0,0 -91.546967,-31.203147" />
      <path d="M -91.546967,-31.203147 A 16.666666666666664,8.101264637332877 0.0 0,0 -58.320967,-30.285217" />
      <path d="M -91.546967,-13.724814 A 16.666666666666664,8.101264637332877 0.0 0,0 -58.254376,-13.158704" />
      <path d="M -58.254376,-13.158704 A 16.666666666666664,8.101264637332877 0.0 0,0 -58.213634,-13.724814" />
      <path d="M -93.898272,2.30734 A 16.666666666666664,8.101264637332877 1.8197129144836345e-15 0,0 -93.824199,3.82273" />
      <path d="M -93.824199,3.82273 A 16.666666666666664,8.101264637332877 1.8197129144836345e-15 0,0 -60.646423,3.43956" />
      <path d="M -89.815427,20.337485 A 16.666666666666664,8.101264637332877 0.0 0,0 -56.598655,19.270919" />
      <path d="M -56.598655,19.270919 A 16.666666666666664,8.101264637332877 0.0 0,0 -56.711724,18.438927" />
      <path d="M -89.347004,39.026609 A 16.666666666666664,8.101264637332877 -1.8197129144836345e-15 0,0 -89.337341,39.209043" />
      <path d="M -89.337341,39.209043 A 16.666666666666664,8.101264637332877 -1.8197129144836345e-15 0,0 -56.017164,38.792035" />
      <path d="M -88.302106,52.800948 A 16.666666666666668,8.101264637332878 -1.8197129144836345e-15 0,0 -88.079935,53.852786" />
      <path d="M -88.079935,53.852786 A 16.666666666666668,8.101264637332878 -1.8197129144836345e-15 0,0 -54.991594,52.201505" />
      <path d="M -80.128473,76.695033 A 16.66666666666667,8.10126463733288 1.8197129144836345e-15 0,0 -54.066213,81.955833" />
      <path d="M -88.126922,84.422189 A 16.666666859588794,8.10126473110767 -1.8197129144836345e-15 0,0 -56.761475,89.90688" />
      <path d="M 10.60933,-93.435928 A 16.666666666666668,8.101264637332878 0.0 0,0 -15.772193,-88.613348" />
      <path d="M -15.772193,-88.613348 A 16.666666921700017,8.101264761298438 0.0 0,0 16.873568,-85.339439" />
      <path d="M 16.873568,-85.339439 A 16.666666666666668,8.101264637332878 0.0 0,0 10.60933,-93.435928" />
      <path d="M -12.908324,-65.676277 A 16.666666666666668,8.101264637332878 0.0 0,0 10.904464,-71.276454" />
      <path d="M -10.093922,-50.901613 A 16.666666666666668,8.101264637332878 3.639425828967269e-15 0,0 -4.66651,-46.836639" />
      <path d="M -12.255773,-39.043901 A 16.666666666666664,8.101264637332877 3.639425828967269e-15 0,0 -0.021331,-30.803601" />
      <path d="M -18.581067,-23.246678 A 16.666666666666668,8.101264637332878 1.8197129144836345e-15 0,0 -18.640078,-20.383783" />
      <path d="M -18.640078,-20.383783 A 16.666666666666668,8.101264637332878 1.8197129144836345e-15 0,0 -3.684121,-13.665959" />
      <path d="M 20.545468,4.831278 A 16.666666666666668,8.101264637332878 1.8197129144836345e-15 0,0 22.337391,0.345652" />
      <path d="M 22.337391,0.345652 A 16.666666666666668,8.101264637332878 1.8197129144836345e-15 0,0 22.298596,0.167044" />
      <path d="M -7.819242,17.466256 A 16.666666666666668,8.101264637332878 1.8197129144836345e-15 0,0 -7.746023,17.76227" />
      <path d="M -7.746023,17.76227 A 16.666666666666668,8.101264637332878 1.8197129144836345e-15 0,0 -5.909668,20.490698" />
      <path d="M -2.552241,35.932237 A 16.666666666666664,8.101264637332877 1.0918277486901807e-14 0,0 -2.248196,36.712842" />
      <path d="M -12.381511,63.170404 A 16.666666666666664,8.101264637332877 1.4557703315869076e-14 0,0 -11.057413,64.01315" />
      <path d="M -18.76387,72.018856 A 16.66666666666666,8.101264637332873 1.2737990401385442e-14 0,0 -9.012555,75.676172" />
      <path d="M -14.130189,90.317298 A 16.66666666666666,8.101264637332873 9.098564572418173e-15 0,0 -10.829623,94.040148" />
      <path d="M -55.807498,-102.818167 L -59.994395,-88.922517" />
      <path d="M -22.826021,-100.470202 L -29.055037,-79.797077" />
      <path d="M -28.783359,-80.698732 L -27.966672,-75.65884" />
      <path d="M -53.283989,-52.50138 L -50.677726,-48.247881" />
      <path d="M -51.874596,-50.201209 L -55.840483,-40.857726" />
      <path d="M -60.096192,-0.37846 L -57.000692,4.394078" />
      <path d="M -57.366428,3.8302 L -52.34405,18.986096" />
      <path d="M -52.590866,18.241287 L -53.563717,36.421537" />
      <path d="M -53.456218,37.57451 L -49.641277,53.408338" />
      <path d="M -49.898143,52.34222 L -52.184141,59.852895" />
      <path d="M -22.581567,-79.161776 L -22.006296,-74.803025" />
      <path d="M -25.977389,-90.011305 L -22.472558,-78.813499" />
      <path d="M 2.750679,-105.950415 L 6.309974,-94.578601" />
      <path d="M -25.595832,-122.309809 L -30.192689,-108.423664" />
      <path d="M 7.31417,-119.735769 L 2.336246,-104.698499" />
      <path d="M 14.082175,-105.936759 L 15.74453,-90.306099" />
      <path d="M 16.393126,-84.207536 L 16.623997,-82.03672" />
      <path d="M 47.371057,-106.773236 L 49.91288,-82.873197" />
      <path d="M 23.954907,-73.570523 L 19.449455,-59.682856" />
      <path d="M 56.881361,-71.046681 L 50.048826,-49.985984" />
      <path d="M 33.190675,-33.97753 L 34.405542,-32.835193" />
      <path d="M 50.899822,-52.609106 L 64.016458,-40.275566" />
      <path d="M 64.830028,-33.72845 L 51.834559,-16.764027" />
      <path d="M 52.974717,-18.252401 L 53.887537,-3.817598" />
      <path d="M 21.590103,-0.767496 L 34.197911,15.86289" />
      <path d="M 53.804288,-5.134057 L 65.475181,10.260488" />
      <path d="M 32.514632,13.642553 L 29.286463,20.817563" />
      <path d="M 66.118402,14.792485 L 59.136092,30.311542" />
      <path d="M 85.092469,-9.022236 L 82.806142,17.97838" />
      <path d="M 28.013932,43.512487 L 28.416148,46.747001" />
      <path d="M 59.63003,29.213703 L 61.688756,45.769436" />
      <path d="M 84.677143,-23.321506 L 85.104691,-9.476992" />
      <path d="M 82.909315,16.75995 L 88.327206,26.753004" />
      <path d="M 28.280075,45.652738 L 21.729597,60.691951" />
      <path d="M 61.357697,47.936185 L 52.736634,67.729243" />
      <path d="M 85.25355,-38.6221 L 84.672059,-23.186551" />
      <path d="M 88.832411,28.222265 L 91.246485,44.150309" />
      <path d="M 53.22693,66.603576 L 55.467086,81.384111" />
      <path d="M 82.156074,-54.819262 L 85.179706,-39.546427" />
      <path d="M 90.840173,46.61811 L 81.831449,65.049312" />
      <path d="M 23.386274,86.766088 L 28.500107,104.668105" />
      <path d="M 55.427624,81.123738 L 61.516687,102.439748" />
      <path d="M 86.885856,-71.343032 L 81.885904,-53.875407" />
      <path d="M 54.483173,74.89226 L 59.041317,83.717581" />
      <path d="M 82.77263,63.123724 L 91.371391,79.772352" />
      <path d="M 53.927644,-91.731413 L 53.764074,-77.16118" />
      <path d="M 87.260482,-91.643 L 87.044624,-72.41524" />
      <path d="M -6.224295,-51.67821 L 0.154496,-31.853031" />
      <path d="M 26.708706,-54.181786 L 33.087497,-34.356607" />
      <path d="M -0.03895,-32.454259 L 0.148385,-14.903528" />
      <path d="M 33.287439,-33.146851 L 33.48127,-14.987591" />
      <path d="M 0.125836,-17.01606 L -13.740512,-4.823359" />
      <path d="M 31.40116,-11.026188 L 15.432154,3.015384" />
      <path d="M -15.422982,0.85557 L -7.815125,17.475248" />
      <path d="M 18.485298,0.33075 L 24.72248,13.956134" />
      <path d="M -7.427492,18.17344 L 3.973279,35.57897" />
      <path d="M 24.56075,13.602829 L 35.735617,30.663472" />
      <path d="M 1.955,32.497669 L -12.341429,46.834832" />
      <path d="M 34.852254,36.654682 L 17.654183,53.901753" />
      <path d="M -13.912711,51.243648 L -8.762984,74.274326" />
      <path d="M 19.742912,51.807073 L 24.375192,72.523616" />
      <path d="M -8.888359,73.713626 L -9.368092,81.294372" />
      <path d="M 24.464891,73.648052 L 23.949482,81.792533" />
      <path d="M -9.361755,81.194223 L -12.002283,104.302584" />
      <path d="M 23.931713,81.992725 L 21.279753,105.201129" />
      <path d="M -11.762852,106.190978 L -5.555864,122.904873" />
      <path d="M 21.388426,104.250091 L 27.247312,120.026631" />
      <path d="M -46.290629,-67.497436 L -45.731166,-45.545964" />
      <path d="M -12.959854,-67.698143 L -12.40039,-45.746671" />
      <path d="M -45.773698,-47.214803 L -56.22216,-34.997001" />
      <path d="M -13.675799,-42.536711 L -25.442203,-28.777788" />
      <path d="M -57.340216,-30.772322 L -52.340265,-13.283282" />
      <path d="M -23.699082,-30.816088 L -19.324196,-15.513429" />
      <path d="M -52.302944,-13.159733 L -45.342661,8.70823" />
      <path d="M -19.341877,-15.575273 L -15.307335,-2.899466" />
      <path d="M -45.839255,7.148021 L -50.028102,15.787903" />
      <path d="M -12.649662,9.327869 L -17.583531,19.504427" />
      <path d="M -50.267078,18.914128 L -44.469778,36.696523" />
      <path d="M -16.831233,17.952743 L -11.547255,34.160596" />
      <path d="M -44.518697,36.546469 L -39.965745,54.953168" />
      <path d="M -11.461024,34.461491 L -9.183732,43.668138" />
      <path d="M -40.428302,53.083141 L -53.974308,71.863218" />
      <path d="M -11.514598,61.968522 L -22.518301,77.223969" />
      <path d="M -54.885656,75.007217 L -52.88127,92.003761" />
      <path d="M -21.416349,75.696232 L -19.602567,91.076514" />
      <path d="M -52.558691,93.191417 L -43.981683,113.215735" />
      <path d="M -19.673282,90.476874 L -11.348138,109.913177" />
      <path d="M -86.151487,-82.01668 L -85.13828,-65.994419" />
      <path d="M -52.83389,-82.514481 L -51.820683,-66.492221" />
      <path d="M -85.159682,-66.332848 L -86.695582,-52.209699" />
      <path d="M -51.836052,-65.815676 L -53.408722,-51.354411" />
      <path d="M -86.668855,-52.455463 L -91.439634,-32.121076" />
      <path d="M -53.492818,-50.864126 L -58.320967,-30.285217" />
      <line x1="-58.213634" y1="-30.742699" x2="-58.213634" y2="-13.724814" />
      <line x1="-91.546967" y1="-31.203147" x2="-91.546967" y2="-13.724814" />
      <path d="M -91.546967,-14.008216 L -93.898272,2.30734" />
      <path d="M -58.254376,-13.158704 L -60.646423,3.43956" />
      <path d="M -93.824199,3.82273 L -89.815427,20.337485" />
      <path d="M -60.536985,2.680174 L -56.711724,18.438927" />
      <path d="M -89.916061,19.922905 L -89.347004,39.026609" />
      <path d="M -56.598655,19.270919 L -56.017164,38.792035" />
      <path d="M -89.337341,39.209043 L -88.302106,52.800948" />
      <path d="M -56.019882,38.700791 L -54.991594,52.201505" />
      <path d="M -88.079935,53.852786 L -80.128473,76.695033" />
      <path d="M -55.031919,51.672054 L -49.946945,66.279713" />
      <path d="M -80.857673,74.600254 L -88.126922,84.422189" />
      <path d="M -53.627866,85.672866 L -56.761475,89.90688" />
      <path d="M -15.772193,-88.613348 L -21.670649,-74.716805" />
      <path d="M 16.873568,-85.339439 L 10.904464,-71.276454" />
      <path d="M -12.645118,-55.348961 L -10.093922,-50.901613" />
      <path d="M 11.720373,-73.198703 L 19.458199,-59.70981" />
      <path d="M -10.827223,-52.179933 L -12.255773,-39.043901" />
      <path d="M -12.196366,-39.590167 L -18.581067,-23.246678" />
      <path d="M -18.640078,-20.383783 L -13.34462,-5.171467" />
      <path d="M 22.337391,0.345652 L 25.059466,14.364217" />
      <path d="M -7.746023,17.76227 L -2.552241,35.932237" />
      <path d="M -3.001125,34.361858 L -6.403097,40.879581" />
      <path d="M 25.072259,46.462541 L 20.504609,55.213545" />
      <path d="M -19.602707,73.181813 L -14.130189,90.317298" />
    </g>
    <g fill="none" stroke="rgb(99,99,99)" stroke-width="0.15521464189127535" id="Hidden" stroke-dasharray="0.003942 0.467615">
      <path d="M -35.487133,-87.430594 A 16.666666666666668,8.101264637332878 0.0 0,0 -62.036515,-82.145042" />
      <path d="M -62.036515,-82.145042 A 16.666666666666668,8.101264637332878 0.0 0,0 -62.160981,-80.334926" />
      <path d="M -62.160981,-80.334926 A 16.666666666666668,8.101264637332878 0.0 0,0 -52.267496,-73.557864" />
      <path d="M -41.928252,-73.062928 A 16.666666666666668,8.101264637332878 0.0 0,0 -33.242765,-75.505921" />
      <path d="M -29.055037,-79.797077 A 16.666666666666668,8.101264637332878 0.0 0,0 -28.93057,-81.607193" />
      <path d="M -28.93057,-81.607193 A 16.666666666666668,8.101264637332878 0.0 0,0 -35.487133,-87.430594" />
      <path d="M -32.685398,-70.140694 A 16.666666666666668,8.101264637332877 1.8197129144836345e-15 0,0 -59.359246,-63.045026" />
      <path d="M -59.359246,-63.045026 A 16.666666666666668,8.101264637332877 1.8197129144836345e-15 0,0 -58.717298,-61.368704" />
      <path d="M -58.717298,-61.368704 A 16.666666666666668,8.101264637332877 1.8197129144836345e-15 0,0 -52.771889,-57.210322" />
      <path d="M -45.99085,-55.735105 A 16.666666666666668,8.101264637332877 1.8197129144836345e-15 0,0 -26.128835,-64.317293" />
      <path d="M -26.128835,-64.317293 A 16.666666666666668,8.101264637332877 1.8197129144836345e-15 0,0 -26.770783,-65.993616" />
      <path d="M -26.770783,-65.993616 A 16.666666666666668,8.101264637332877 1.8197129144836345e-15 0,0 -32.685398,-70.140694" />
      <path d="M -24.645826,-57.019871 A 16.666666666666664,8.101264637332875 3.639425828967269e-15 0,0 -51.027349,-52.197291" />
      <path d="M -51.027349,-52.197291 A 16.666666666666664,8.101264637332875 3.639425828967269e-15 0,0 -50.677726,-48.247881" />
      <path d="M -47.40087,-45.312086 A 16.666666666666664,8.101264637332875 3.639425828967269e-15 0,0 -18.381588,-48.923383" />
      <path d="M -18.381588,-48.923383 A 16.666666666666664,8.101264637332875 3.639425828967269e-15 0,0 -18.731211,-52.872793" />
      <path d="M -18.731211,-52.872793 A 16.666666666666664,8.101264637332875 3.639425828967269e-15 0,0 -24.645826,-57.019871" />
      <path d="M -30.614929,-42.956886 A 16.666666666666664,8.101264637332873 7.278851657934538e-15 0,0 -56.923431,-38.297793" />
      <path d="M -56.923431,-38.297793 A 16.666666666666664,8.101264637332873 7.278851657934538e-15 0,0 -56.996453,-38.134305" />
      <path d="M -56.996453,-38.134305 A 16.666666666666664,8.101264637332873 7.278851657934538e-15 0,0 -57.149918,-35.276554" />
      <path d="M -56.728277,-34.322238 A 16.666666666666664,8.101264637332873 7.278851657934538e-15 0,0 -24.423713,-34.696909" />
      <path d="M -24.423713,-34.696909 A 16.666666666666664,8.101264637332873 7.278851657934538e-15 0,0 -24.350692,-34.860397" />
      <path d="M -24.350692,-34.860397 A 16.666666666666664,8.101264637332873 7.278851657934538e-15 0,0 -30.614929,-42.956886" />
      <path d="M -41.262406,-20.251684 A 16.666666666666664,8.101264637332875 3.639425828967269e-15 0,0 -67.570907,-15.592591" />
      <path d="M -67.570907,-15.592591 A 16.666666666666664,8.101264637332875 3.639425828967269e-15 0,0 -67.216453,-11.35624" />
      <path d="M -67.216453,-11.35624 A 16.666666666666664,8.101264637332875 3.639425828967269e-15 0,0 -59.192193,-6.651252" />
      <path d="M -49.934645,-5.718962 A 16.666666666666664,8.101264637332875 3.639425828967269e-15 0,0 -35.07119,-11.991708" />
      <path d="M -35.07119,-11.991708 A 16.666666666666664,8.101264637332875 3.639425828967269e-15 0,0 -35.425644,-16.228059" />
      <path d="M -35.425644,-16.228059 A 16.666666666666664,8.101264637332875 3.639425828967269e-15 0,0 -41.262406,-20.251684" />
      <path d="M -31.046645,-4.501366 A 16.666666666666664,8.101264637332875 1.8197129144836345e-15 0,0 -57.55986,3.246485" />
      <path d="M -57.55986,3.246485 A 16.666666666666664,8.101264637332875 1.8197129144836345e-15 0,0 -57.000692,4.394078" />
      <path d="M -46.997172,9.536332 A 16.666666666666664,8.101264637332875 1.8197129144836345e-15 0,0 -24.650716,0.669853" />
      <path d="M -24.650716,0.669853 A 16.666666666666664,8.101264637332875 1.8197129144836345e-15 0,0 -25.209883,-0.47774" />
      <path d="M -25.209883,-0.47774 A 16.666666666666664,8.101264637332875 1.8197129144836345e-15 0,0 -31.046645,-4.501366" />
      <path d="M -25.830836,11.238246 A 16.666666666666664,8.101264637332875 -1.8197129144836345e-15 0,0 -52.55051,17.487133" />
      <path d="M -52.55051,17.487133 A 16.666666666666664,8.101264637332875 -1.8197129144836345e-15 0,0 -52.34405,18.986096" />
      <path d="M -49.04131,22.673999 A 16.666666666666664,8.101264637332875 -1.8197129144836345e-15 0,0 -19.228447,17.908428" />
      <path d="M -19.228447,17.908428 A 16.666666666666664,8.101264637332875 -1.8197129144836345e-15 0,0 -19.434907,16.409464" />
      <path d="M -19.434907,16.409464 A 16.666666666666664,8.101264637332875 -1.8197129144836345e-15 0,0 -25.830836,11.238246" />
      <path d="M -26.844042,30.17265 A 16.666666666666664,8.101264637332877 -7.278851657934538e-15 0,0 -53.563717,36.421537" />
      <path d="M -42.614996,44.242762 A 16.666666666666664,8.101264637332877 -7.278851657934538e-15 0,0 -20.241654,36.842832" />
      <path d="M -20.241654,36.842832 A 16.666666666666664,8.101264637332877 -7.278851657934538e-15 0,0 -20.349152,35.689859" />
      <path d="M -20.349152,35.689859 A 16.666666666666664,8.101264637332877 -7.278851657934538e-15 0,0 -26.844042,30.17265" />
      <path d="M -23.029101,46.006477 A 16.66666666666666,8.101264637332877 -1.0918277486901809e-14 0,0 -49.574952,51.280374" />
      <path d="M -49.574952,51.280374 A 16.66666666666666,8.101264637332877 -1.0918277486901809e-14 0,0 -49.641277,53.408338" />
      <path d="M -44.305014,58.457785 A 16.66666666666666,8.101264637332877 -1.0918277486901809e-14 0,0 -16.600534,53.651651" />
      <path d="M -16.600534,53.651651 A 16.66666666666666,8.101264637332877 -1.0918277486901809e-14 0,0 -16.53421,51.523687" />
      <path d="M -16.53421,51.523687 A 16.66666666666666,8.101264637332877 -1.0918277486901809e-14 0,0 -23.029101,46.006477" />
      <path d="M -34.358523,60.264985 C -33.301051,59.800166 -32.174765,59.389559 -30.880933,59.188865 C -30.283676,59.100098 -29.644861,59.058843 -28.964104,59.130636 C -28.373499,59.191999 -27.742947,59.354573 -27.178267,59.638614" />
      <path d="M -34.358523,60.264985 A 16.666666666666664,8.101264637332877 -1.0918277486901809e-14 0,0 -54.359046,66.998571" />
      <path d="M -54.359046,66.998571 A 16.66666671857823,8.101264662565837 -1.0918277486901809e-14 0,0 -21.384628,69.369848" />
      <path d="M -21.384628,69.369848 A 16.666666666666664,8.101264637332877 -1.0918277486901809e-14 0,0 -24.270773,63.501988" />
      <path d="M -27.178267,59.638614 C -26.591348,59.930176 -26.106704,60.331018 -25.736078,60.745823 C -25.11993,61.439576 -24.758246,62.16772 -24.485907,62.87175 C -24.405789,63.082918 -24.334078,63.292997 -24.270773,63.501988" />
      <path d="M 6.73714,27.696373 A 16.666666666666668,8.101264637332878 1.0918277486901807e-14 0,0 -18.81983,31.176155" />
      <path d="M -18.81983,31.176155 A 16.666666666666668,8.101264637332878 1.0918277486901807e-14 0,0 -19.829211,35.272123" />
      <path d="M -19.829211,35.272123 A 16.666666666666668,8.101264637332878 1.0918277486901807e-14 0,0 -9.684527,41.643523" />
      <path d="M -7.516677,41.996333 A 16.666666666666668,8.101264637332878 1.0918277486901807e-14 0,0 12.176824,37.135661" />
      <path d="M 12.176824,37.135661 A 16.666666666666668,8.101264637332878 1.0918277486901807e-14 0,0 13.186205,33.039693" />
      <path d="M 13.186205,33.039693 A 16.666666666666668,8.101264637332878 1.0918277486901807e-14 0,0 6.73714,27.696373" />
      <path d="M -10.698816,49.123228 A 16.666666666666664,8.101264637332875 7.278851657934538e-15 0,0 -36.255786,52.60301" />
      <path d="M -36.255786,52.60301 A 16.666666666666664,8.101264637332875 7.278851657934538e-15 0,0 -34.358523,60.264985" />
      <path d="M -24.270773,63.501988 A 16.666666666666664,8.101264637332875 7.278851657934538e-15 0,0 -5.259132,58.562516" />
      <path d="M -5.259132,58.562516 A 16.666666666666664,8.101264637332875 7.278851657934538e-15 0,0 -10.698816,49.123228" />
      <path d="M 2.70634,13.611974 A 16.666666666666668,8.101264637332878 1.0918277486901807e-14 0,0 -23.987195,19.571502" />
      <path d="M -23.987195,19.571502 A 16.666666666666668,8.101264637332878 1.0918277486901807e-14 0,0 -23.86001,21.187723" />
      <path d="M -23.86001,21.187723 A 16.666666666666668,8.101264637332878 1.0918277486901807e-14 0,0 -13.698312,27.562534" />
      <path d="M -4.797606,28.077036 A 16.666666666666668,8.101264637332878 1.0918277486901807e-14 0,0 9.28259,20.571514" />
      <path d="M 9.28259,20.571514 A 16.666666666666668,8.101264637332878 1.0918277486901807e-14 0,0 9.155405,18.955293" />
      <path d="M 9.155405,18.955293 A 16.666666666666668,8.101264637332878 1.0918277486901807e-14 0,0 2.70634,13.611974" />
      <path d="M 4.904557,-3.667219 A 16.66666666666667,8.10126463733288 1.0918277486901807e-14 0,0 -21.788978,2.29231" />
      <path d="M -21.788978,2.29231 A 16.66666666666667,8.10126463733288 1.0918277486901807e-14 0,0 -21.522843,4.317197" />
      <path d="M -21.522843,4.317197 A 16.66666666666667,8.10126463733288 1.0918277486901807e-14 0,0 -12.952303,9.952093" />
      <path d="M -11.069393,10.366166 A 16.66666666666667,8.10126463733288 1.0918277486901807e-14 0,0 11.480806,3.292322" />
      <path d="M 11.480806,3.292322 A 16.66666666666667,8.10126463733288 1.0918277486901807e-14 0,0 11.214671,1.267434" />
      <path d="M 11.214671,1.267434 A 16.66666666666667,8.10126463733288 1.0918277486901807e-14 0,0 4.904557,-3.667219" />
      <path d="M -2.875102,-23.398182 A 16.66666666666667,8.10126463733288 5.459138743450904e-15 0,0 -29.302502,-15.413765" />
      <path d="M -29.302502,-15.413765 A 16.66666666666667,8.10126463733288 5.459138743450904e-15 0,0 -29.160959,-15.09058" />
      <path d="M -29.160959,-15.09058 A 16.66666666666667,8.10126463733288 5.459138743450904e-15 0,0 -17.286798,-9.118583" />
      <path d="M -14.635476,-8.879721 A 16.66666666666667,8.10126463733288 5.459138743450904e-15 0,0 3.435012,-18.463528" />
      <path d="M 3.435012,-18.463528 A 16.66666666666667,8.10126463733288 5.459138743450904e-15 0,0 3.293469,-18.786714" />
      <path d="M 3.293469,-18.786714 A 16.66666666666667,8.10126463733288 5.459138743450904e-15 0,0 -2.875102,-23.398182" />
      <path d="M -9.901467,-37.975077 A 16.66666666666667,8.101264637332878 1.637741623035271e-14 0,0 -35.263962,-34.724007" />
      <path d="M -35.263962,-34.724007 A 16.66666666666667,8.101264637332878 1.637741623035271e-14 0,0 -36.187324,-29.667475" />
      <path d="M -36.187324,-29.667475 A 16.66666666666667,8.101264637332878 1.637741623035271e-14 0,0 -21.594132,-23.453306" />
      <path d="M -18.503483,-23.445277 A 16.66666666666667,8.101264637332878 1.637741623035271e-14 0,0 -4.656258,-28.307077" />
      <path d="M -4.656258,-28.307077 A 16.66666666666667,8.101264637332878 1.637741623035271e-14 0,0 -3.732896,-33.363609" />
      <path d="M -3.732896,-33.363609 A 16.66666666666667,8.101264637332878 1.637741623035271e-14 0,0 -9.901467,-37.975077" />
      <path d="M 9.538875,-59.88372 A 16.66666666666667,8.101264637332878 9.098564572418173e-15 0,0 -15.82362,-56.632651" />
      <path d="M -15.82362,-56.632651 A 16.66666666666667,8.101264637332878 9.098564572418173e-15 0,0 -17.027296,-52.307343" />
      <path d="M -17.027296,-52.307343 A 16.66666666666667,8.101264637332878 9.098564572418173e-15 0,0 -12.451909,-47.768096" />
      <path d="M -11.361064,-47.27107 A 16.66666666666667,8.101264637332878 9.098564572418173e-15 0,0 14.784084,-50.21572" />
      <path d="M 14.784084,-50.21572 A 16.66666666666667,8.101264637332878 9.098564572418173e-15 0,0 15.98776,-54.541028" />
      <path d="M 15.98776,-54.541028 A 16.66666666666667,8.101264637332878 9.098564572418173e-15 0,0 9.538875,-59.88372" />
      <path d="M 5.895736,-72.606264 A 16.66666666666667,8.10126463733288 5.459138743450904e-15 0,0 -20.795383,-65.628079" />
      <path d="M -20.795383,-65.628079 A 16.66666666666667,8.10126463733288 5.459138743450904e-15 0,0 -20.670435,-65.029887" />
      <path d="M -20.670435,-65.029887 A 16.66666666666667,8.10126463733288 5.459138743450904e-15 0,0 12.469569,-66.66538" />
      <path d="M 12.469569,-66.66538 A 16.66666666666667,8.10126463733288 5.459138743450904e-15 0,0 12.344621,-67.263572" />
      <path d="M 12.344621,-67.263572 A 16.66666666666667,8.10126463733288 5.459138743450904e-15 0,0 5.895736,-72.606264" />
      <path d="M 10.494356,-78.855048 A 16.66666666666667,8.10126463733288 3.639425828967269e-15 0,0 10.636986,-80.55064" />
      <path d="M 10.636986,-80.55064 A 16.66666666666667,8.10126463733288 3.639425828967269e-15 0,0 10.481578,-81.25048" />
      <path d="M 10.481578,-81.25048 A 16.66666666666667,8.10126463733288 3.639425828967269e-15 0,0 4.063153,-86.491524" />
      <path d="M 10.494356,-78.855048 C 10.482105,-77.967207 10.435197,-77.055069 10.281758,-76.08919 C 10.19737,-75.574665 10.084207,-75.041522 9.887706,-74.49139 C 9.77863,-74.189393 9.640678,-73.878786 9.457724,-73.592542 C 9.252206,-73.266087 8.983672,-72.997109 8.729902,-72.850076 C 8.4344,-72.675543 8.163369,-72.626633 7.91811,-72.622101 C 7.514235,-72.619839 7.166533,-72.737376 6.843206,-72.888165 C 6.244746,-73.176365 5.73074,-73.595878 5.250074,-74.052761" />
      <path d="M 4.063153,-86.491524 A 16.66666666666667,8.10126463733288 3.639425828967269e-15 0,0 -22.627966,-79.513339" />
      <path d="M -22.627966,-79.513339 A 16.66666666666667,8.10126463733288 3.639425828967269e-15 0,0 -22.472558,-78.813499" />
      <path d="M -20.937789,-76.443397 A 16.66666666666667,8.10126463733288 3.639425828967269e-15 0,0 5.250074,-74.052761" />
      <path d="M -4.060112,-112.445054 A 16.666666666666668,8.101264637332878 0.0 0,0 -30.573756,-107.27254" />
      <path d="M -30.573756,-107.27254 A 16.666666666666668,8.101264637332878 0.0 0,0 -30.595823,-104.767029" />
      <path d="M -30.595823,-104.767029 A 16.666666666666668,8.101264637332878 0.0 0,0 -23.210057,-99.195647" />
      <path d="M 2.336246,-104.698499 A 16.666666666666668,8.101264637332878 0.0 0,0 2.358313,-107.20401" />
      <path d="M 2.358313,-107.20401 A 16.666666666666668,8.101264637332878 0.0 0,0 -4.060112,-112.445054" />
      <path d="M 5.250074,-74.052761 C 5.57061,-74.662507 5.957654,-75.269026 6.406008,-75.84351 C 6.891766,-76.467937 7.456109,-77.052771 8.018587,-77.518672" />
      <path d="M 8.018587,-77.518672 C 8.60125,-78.003659 9.162977,-78.349079 9.618154,-78.559871 C 9.966844,-78.722008 10.25896,-78.812459 10.494356,-78.855048" />
      <path d="M 5.250074,-74.052761 A 16.66666666666667,8.101264637332877 1.8197129144836345e-15 0,0 5.53923,-70.973566" />
      <path d="M 5.53923,-70.973566 A 16.66666666666667,8.101264637332877 1.8197129144836345e-15 0,0 16.298145,-65.218545" />
      <path d="M 21.103228,-64.780468 A 16.66666666666667,8.101264637332877 1.8197129144836345e-15 0,0 36.125829,-68.785168" />
      <path d="M 36.125829,-68.785168 A 16.66666666666667,8.101264637332877 1.8197129144836345e-15 0,0 37.94061,-74.778073" />
      <path d="M 37.94061,-74.778073 A 16.66666666666667,8.101264637332877 1.8197129144836345e-15 0,0 31.798563,-79.335354" />
      <path d="M 31.798563,-79.335354 A 16.66666666666667,8.101264637332877 1.8197129144836345e-15 0,0 10.494356,-78.855048" />
      <path d="M 40.203768,-62.42232 A 16.66666666666667,8.101264637332878 -9.098564572418174e-15 0,0 13.555968,-55.182386" />
      <path d="M 13.555968,-55.182386 A 16.66666666666667,8.101264637332878 -9.098564572418174e-15 0,0 13.944435,-54.060531" />
      <path d="M 13.944435,-54.060531 A 16.66666666666667,8.101264637332878 -9.098564572418174e-15 0,0 46.734282,-56.743184" />
      <path d="M 46.734282,-56.743184 A 16.66666666666667,8.101264637332878 -9.098564572418174e-15 0,0 46.345815,-57.865039" />
      <path d="M 46.345815,-57.865039 A 16.66666666666667,8.101264637332878 -9.098564572418174e-15 0,0 40.203768,-62.42232" />
      <path d="M 43.327081,-88.914493 A 16.666666666666668,8.10126463733288 0.0 0,0 18.882529,-86.54561" />
      <path d="M 18.882529,-86.54561 A 16.666666666666668,8.10126463733288 0.0 0,0 16.623997,-82.03672" />
      <path d="M 25.02465,-75.414107 A 16.666666666666668,8.10126463733288 0.0 0,0 47.654347,-78.364307" />
      <path d="M 47.654347,-78.364307 A 16.666666666666668,8.10126463733288 0.0 0,0 48.661922,-79.349454" />
      <path d="M 49.91288,-82.873197 A 16.666666666666668,8.10126463733288 0.0 0,0 43.327081,-88.914493" />
      <path d="M 45.137637,-37.642213 A 16.666666666666675,8.101264637332878 -1.0918277486901807e-14 0,0 18.811987,-32.946153" />
      <path d="M 18.811987,-32.946153 A 16.666666666666675,8.101264637332878 -1.0918277486901807e-14 0,0 18.489837,-30.402279" />
      <path d="M 18.489837,-30.402279 A 16.666666666666675,8.101264637332878 -1.0918277486901807e-14 0,0 51.346001,-29.419203" />
      <path d="M 51.346001,-29.419203 A 16.666666666666675,8.101264637332878 -1.0918277486901807e-14 0,0 51.668151,-31.963078" />
      <path d="M 51.668151,-31.963078 A 16.666666666666675,8.101264637332878 -1.0918277486901807e-14 0,0 45.137637,-37.642213" />
      <path d="M 41.626663,-29.990227 A 16.666666666666675,8.10126463733288 5.459138743450904e-15 0,0 15.301013,-25.294167" />
      <path d="M 15.301013,-25.294167 A 16.666666666666675,8.10126463733288 5.459138743450904e-15 0,0 15.015442,-24.476973" />
      <path d="M 15.015442,-24.476973 A 16.666666666666675,8.10126463733288 5.459138743450904e-15 0,0 47.835027,-21.767218" />
      <path d="M 47.835027,-21.767218 A 16.666666666666675,8.10126463733288 5.459138743450904e-15 0,0 48.120598,-22.584412" />
      <path d="M 48.120598,-22.584412 A 16.666666666666675,8.10126463733288 5.459138743450904e-15 0,0 41.626663,-29.990227" />
      <path d="M 36.388826,-8.342818 A 16.666666666666675,8.10126463733288 0.0 0,0 9.777605,-2.829564" />
      <path d="M 9.777605,-2.829564 A 16.666666666666675,8.10126463733288 0.0 0,0 9.730842,-1.155846" />
      <path d="M 9.730842,-1.155846 A 16.666666666666675,8.10126463733288 0.0 0,0 23.454059,6.096443" />
      <path d="M 26.882551,6.213531 A 16.666666666666675,8.10126463733288 0.0 0,0 42.882761,-0.937003" />
      <path d="M 42.882761,-0.937003 A 16.666666666666675,8.10126463733288 0.0 0,0 42.929524,-2.610721" />
      <path d="M 42.929524,-2.610721 A 16.666666666666675,8.10126463733288 0.0 0,0 36.388826,-8.342818" />
      <path d="M 40.353543,13.032649 A 16.666666666666675,8.101264637332877 -3.639425828967269e-15 0,0 13.628544,19.442775" />
      <path d="M 13.628544,19.442775 A 16.666666666666675,8.101264637332877 -3.639425828967269e-15 0,0 13.69556,20.219621" />
      <path d="M 13.69556,20.219621 A 16.666666666666675,8.101264637332877 -3.639425828967269e-15 0,0 46.961257,19.541592" />
      <path d="M 46.961257,19.541592 A 16.666666666666675,8.101264637332877 -3.639425828967269e-15 0,0 46.894241,18.764746" />
      <path d="M 46.894241,18.764746 A 16.666666666666675,8.101264637332877 -3.639425828967269e-15 0,0 40.353543,13.032649" />
      <path d="M 40.203768,24.969341 A 16.666666666666675,8.101264637332878 3.639425828967269e-15 0,0 13.478768,31.379467" />
      <path d="M 13.478768,31.379467 A 16.666666666666675,8.101264637332878 3.639425828967269e-15 0,0 13.569078,32.272528" />
      <path d="M 13.569078,32.272528 A 16.666666666666675,8.101264637332878 3.639425828967269e-15 0,0 46.811482,31.478285" />
      <path d="M 46.811482,31.478285 A 16.666666666666675,8.101264637332878 3.639425828967269e-15 0,0 46.721172,30.585225" />
      <path d="M 46.721172,30.585225 A 16.666666666666675,8.101264637332878 3.639425828967269e-15 0,0 40.203768,24.969341" />
      <path d="M 44.578173,45.276308 A 16.666666666666675,8.101264637332878 1.8197129144836345e-15 0,0 18.815651,49.022254" />
      <path d="M 18.815651,49.022254 A 16.666666666666675,8.101264637332878 1.8197129144836345e-15 0,0 17.943483,52.579495" />
      <path d="M 17.943483,52.579495 A 16.666666666666675,8.101264637332878 1.8197129144836345e-15 0,0 20.747143,56.298206" />
      <path d="M 23.06696,57.621506 A 16.666666666666675,8.101264637332878 1.8197129144836345e-15 0,0 50.22341,54.449433" />
      <path d="M 50.22341,54.449433 A 16.666666666666675,8.101264637332878 1.8197129144836345e-15 0,0 51.095578,50.892192" />
      <path d="M 51.095578,50.892192 A 16.666666666666675,8.101264637332878 1.8197129144836345e-15 0,0 44.578173,45.276308" />
      <path d="M 33.802949,60.009515 A 16.666666666666675,8.101264637332878 0.0 0,0 8.040426,63.75546" />
      <path d="M 8.040426,63.75546 A 16.66666679628249,8.101264700336001 0.0 0,0 39.448186,69.182639" />
      <path d="M 39.448186,69.182639 A 16.666666666666675,8.101264637332878 0.0 0,0 33.802949,60.009515" />
      <path d="M 43.644242,-57.70744 A 16.666666666666668,8.101264637332878 0.0 0,0 17.122373,-52.509826" />
      <path d="M 17.122373,-52.509826 A 16.666666666666668,8.101264637332878 0.0 0,0 18.780142,-47.527719" />
      <path d="M 18.780142,-47.527719 A 16.666666666666668,8.101264637332878 0.0 0,0 30.205106,-43.315033" />
      <path d="M 50.048826,-49.985984 A 16.666666666666668,8.101264637332878 0.0 0,0 48.391057,-54.968091" />
      <path d="M 48.391057,-54.968091 A 16.666666666666668,8.101264637332878 0.0 0,0 43.644242,-57.70744" />
      <path d="M 59.269643,-43.014914 A 16.666666666666664,8.101264637332875 3.639425828967269e-15 0,0 33.591972,-39.382309" />
      <path d="M 33.591972,-39.382309 A 16.666666666666664,8.101264637332875 3.639425828967269e-15 0,0 34.405542,-32.835193" />
      <path d="M 64.016458,-40.275566 A 16.666666666666664,8.101264637332875 3.639425828967269e-15 0,0 59.269643,-43.014914" />
      <path d="M 46.274175,-26.050492 A 16.66666666666666,8.101264637332875 0.0 0,0 20.596504,-22.417886" />
      <path d="M 20.596504,-22.417886 A 16.66666666666666,8.101264637332875 0.0 0,0 19.556733,-19.342056" />
      <path d="M 19.556733,-19.342056 A 16.66666666666666,8.101264637332875 0.0 0,0 32.11961,-11.738143" />
      <path d="M 51.834559,-16.764027 A 16.66666666666666,8.101264637332875 0.0 0,0 52.87433,-19.839858" />
      <path d="M 52.87433,-19.839858 A 16.66666666666666,8.101264637332875 0.0 0,0 46.274175,-26.050492" />
      <path d="M 47.287381,-10.028232 A 16.66666666666666,8.101264637332871 7.278851657934538e-15 0,0 20.56994,-3.319796" />
      <path d="M 20.56994,-3.319796 A 16.66666666666666,8.101264637332871 7.278851657934538e-15 0,0 20.94823,-1.83491" />
      <path d="M 53.887537,-3.817598 A 16.66666666666666,8.101264637332871 7.278851657934538e-15 0,0 52.867373,-6.369898" />
      <path d="M 52.867373,-6.369898 A 16.66666666666666,8.101264637332871 7.278851657934538e-15 0,0 47.287381,-10.028232" />
      <path d="M 59.895189,6.602154 A 16.666666666666664,8.101264637332873 9.098564572418173e-15 0,0 33.55469,11.330893" />
      <path d="M 33.55469,11.330893 A 16.666666666666664,8.101264637332873 9.098564572418173e-15 0,0 34.197911,15.86289" />
      <path d="M 65.475181,10.260488 A 16.666666666666664,8.101264637332873 9.098564572418173e-15 0,0 59.895189,6.602154" />
      <path d="M 51.76673,21.735093 C 52.184833,21.52166 52.674473,21.348933 53.274899,21.316577" />
      <path d="M 51.76673,21.735093 A 16.666666666666664,8.101264637332873 7.278851657934537e-15 0,0 26.57238,26.849951" />
      <path d="M 26.57238,26.849951 A 16.666666666666664,8.101264637332873 7.278851657934537e-15 0,0 26.217932,29.069529" />
      <path d="M 26.217932,29.069529 A 16.666666666666664,8.101264637332873 7.278851657934537e-15 0,0 35.539708,35.860136" />
      <path d="M 59.136092,30.311542 A 16.666666666666664,8.101264637332873 7.278851657934537e-15 0,0 59.49054,28.091965" />
      <path d="M 59.49054,28.091965 A 16.666666666666664,8.101264637332873 7.278851657934537e-15 0,0 57.241081,24.490873" />
      <path d="M 53.274899,21.316577 C 53.712496,21.293221 54.225315,21.361 54.728778,21.575934 C 55.220617,21.782578 55.666482,22.116595 56.014797,22.483536 C 56.60447,23.106331 56.971911,23.804258 57.241081,24.490873" />
      <path d="M 78.498544,-15.814932 A 16.66666666666667,8.101264637332878 1.8197129144836345e-15 0,0 51.787334,-9.688558" />
      <path d="M 51.787334,-9.688558 A 16.66666666666667,8.101264637332878 1.8197129144836345e-15 0,0 51.775112,-9.233802" />
      <path d="M 51.775112,-9.233802 A 16.66666666666667,8.101264637332878 1.8197129144836345e-15 0,0 53.78112,-5.500417" />
      <path d="M 85.104691,-9.476992 A 16.66666666666667,8.101264637332878 1.8197129144836345e-15 0,0 78.498544,-15.814932" />
      <path d="M 76.212218,11.185684 A 16.66666666666667,8.10126463733288 0.0 0,0 49.501008,17.312058" />
      <path d="M 49.501008,17.312058 A 16.66666666666667,8.10126463733288 0.0 0,0 50.037158,19.709689" />
      <path d="M 50.037158,19.709689 A 16.66666666666667,8.10126463733288 0.0 0,0 51.76673,21.735093" />
      <path d="M 57.241081,24.490873 A 16.66666666666667,8.10126463733288 0.0 0,0 61.344994,25.401981" />
      <path d="M 82.806142,17.97838 A 16.66666666666667,8.10126463733288 0.0 0,0 82.269993,15.580749" />
      <path d="M 82.269993,15.580749 A 16.66666666666667,8.10126463733288 0.0 0,0 76.212218,11.185684" />
      <path d="M 57.241081,24.490873 C 56.949168,24.614773 56.586838,24.700779 56.045169,24.630015 C 55.899162,24.610774 55.73862,24.576129 55.563545,24.526079 C 55.145118,24.408108 54.61959,24.162233 54.122881,23.836486 C 53.725449,23.578251 53.354923,23.286031 53.021286,22.992994" />
      <path d="M 53.021286,22.992994 C 52.546755,22.575403 52.137377,22.152081 51.76673,21.735093" />
      <path d="M 55.111095,39.798684 A 16.66666666666666,8.101264637332873 1.8197129144836345e-15 0,0 28.747208,44.580252" />
      <path d="M 28.747208,44.580252 A 16.66666666666666,8.101264637332873 1.8197129144836345e-15 0,0 28.416148,46.747001" />
      <path d="M 61.688756,45.769436 A 16.66666666666666,8.101264637332873 1.8197129144836345e-15 0,0 55.111095,39.798684" />
      <path d="M 78.066829,-29.794408 A 16.666666666666675,8.101264637332878 0.0 0,0 51.344313,-23.483195" />
      <path d="M 51.344313,-23.483195 A 16.666666666666675,8.101264637332878 0.0 0,0 51.343397,-23.213278" />
      <path d="M 51.343397,-23.213278 A 16.666666666666675,8.101264637332878 0.0 0,0 53.691095,-19.187569" />
      <path d="M 84.672059,-23.186551 A 16.666666666666675,8.101264637332878 0.0 0,0 84.672975,-23.456468" />
      <path d="M 84.672975,-23.456468 A 16.666666666666675,8.101264637332878 0.0 0,0 78.066829,-29.794408" />
      <path d="M 82.269431,22.35794 A 16.666666666666668,8.101264637332878 0.0 0,0 55.589166,29.412684" />
      <path d="M 55.589166,29.412684 A 16.666666666666668,8.101264637332878 0.0 0,0 56.094371,30.881945" />
      <path d="M 56.094371,30.881945 A 16.666666666666668,8.101264637332878 0.0 0,0 60.28446,34.47646" />
      <path d="M 88.327206,26.753004 A 16.666666666666668,8.101264637332878 0.0 0,0 82.269431,22.35794" />
      <path d="M 46.490032,59.591741 A 16.66666666666666,8.101264637332871 5.459138743450903e-15 0,0 20.126145,64.373309" />
      <path d="M 20.126145,64.373309 A 16.66666666666666,8.101264637332871 5.459138743450903e-15 0,0 19.809767,66.646485" />
      <path d="M 19.809767,66.646485 A 16.66666666666666,8.101264637332871 5.459138743450903e-15 0,0 24.152887,71.529421" />
      <path d="M 52.736634,67.729243 A 16.66666666666666,8.101264637332871 5.459138743450903e-15 0,0 53.053012,65.456067" />
      <path d="M 53.053012,65.456067 A 16.66666666666666,8.101264637332871 5.459138743450903e-15 0,0 46.490032,59.591741" />
      <path d="M 78.64832,-45.229956 A 16.666666666666675,8.10126463733288 -1.8197129144836345e-15 0,0 51.925804,-38.918744" />
      <path d="M 51.925804,-38.918744 A 16.666666666666675,8.10126463733288 -1.8197129144836345e-15 0,0 51.999648,-37.994417" />
      <path d="M 51.999648,-37.994417 A 16.666666666666675,8.10126463733288 -1.8197129144836345e-15 0,0 62.864162,-31.162189" />
      <path d="M 85.179706,-39.546427 A 16.666666666666675,8.10126463733288 -1.8197129144836345e-15 0,0 78.64832,-45.229956" />
      <path d="M 84.683506,38.285984 A 16.666666666666668,8.101264637332878 0.0 0,0 58.409553,42.872927" />
      <path d="M 58.409553,42.872927 A 16.666666666666668,8.101264637332878 0.0 0,0 58.00324,45.340728" />
      <path d="M 58.00324,45.340728 A 16.666666666666668,8.101264637332878 0.0 0,0 60.782238,49.257379" />
      <path d="M 91.246485,44.150309 A 16.666666666666668,8.101264637332878 0.0 0,0 84.683506,38.285984" />
      <path d="M 48.904107,75.519785 A 16.66666666666666,8.101264637332873 0.0 0,0 22.223841,82.574529" />
      <path d="M 22.223841,82.574529 A 16.66666666666666,8.101264637332873 0.0 0,0 22.337174,83.093499" />
      <path d="M 22.337174,83.093499 A 16.66666666666666,8.101264637332873 0.0 0,0 23.563781,85.212654" />
      <path d="M 55.467086,81.384111 A 16.66666666666666,8.101264637332873 0.0 0,0 55.353754,80.865141" />
      <path d="M 55.353754,80.865141 A 16.66666666666666,8.101264637332873 0.0 0,0 48.904107,75.519785" />
      <path d="M 75.436897,-61.451356 A 16.66666666666667,8.10126463733288 -1.8197129144836345e-15 0,0 48.870603,-56.108236" />
      <path d="M 48.870603,-56.108236 A 16.66666666666667,8.10126463733288 -1.8197129144836345e-15 0,0 48.788225,-54.215816" />
      <path d="M 48.788225,-54.215816 A 16.66666666666667,8.10126463733288 -1.8197129144836345e-15 0,0 55.180441,-48.584051" />
      <path d="M 81.885904,-53.875407 A 16.66666666666667,8.10126463733288 -1.8197129144836345e-15 0,0 81.968283,-55.767826" />
      <path d="M 81.968283,-55.767826 A 16.66666666666667,8.10126463733288 -1.8197129144836345e-15 0,0 75.436897,-61.451356" />
      <path d="M 75.674782,56.717186 A 16.66666666666667,8.101264637332882 1.8197129144836345e-15 0,0 49.400829,61.304129" />
      <path d="M 49.400829,61.304129 A 16.66666666666667,8.101264637332882 1.8197129144836345e-15 0,0 49.451102,65.149335" />
      <path d="M 49.451102,65.149335 A 16.66666666666667,8.101264637332882 1.8197129144836345e-15 0,0 53.554936,68.767759" />
      <path d="M 81.831449,65.049312 A 16.66666666666667,8.101264637332882 1.8197129144836345e-15 0,0 81.781176,61.204105" />
      <path d="M 81.781176,61.204105 A 16.66666666666667,8.101264637332882 1.8197129144836345e-15 0,0 75.674782,56.717186" />
      <path d="M 55.06704,97.094392 A 16.66666666666666,8.101264637332875 -1.8197129144836345e-15 0,0 28.500107,104.668105" />
      <path d="M 61.516687,102.439748 A 16.66666666666666,8.101264637332875 -1.8197129144836345e-15 0,0 55.06704,97.094392" />
      <path d="M 80.436848,-78.918981 A 16.666666666666668,8.101264637332878 0.0 0,0 53.870554,-73.575861" />
      <path d="M 53.870554,-73.575861 A 16.666666666666668,8.101264637332878 0.0 0,0 53.711787,-72.503653" />
      <path d="M 53.711787,-72.503653 A 16.666666666666668,8.101264637332878 0.0 0,0 56.008295,-68.355531" />
      <path d="M 87.044624,-72.41524 A 16.666666666666668,8.101264637332878 0.0 0,0 80.436848,-78.918981" />
      <path d="M 85.264997,75.285432 A 16.666666666666668,8.101264637332878 1.819712914483635e-15 0,0 59.041317,83.717581" />
      <path d="M 91.371391,79.772352 A 16.666666666666668,8.101264637332878 1.819712914483635e-15 0,0 85.264997,75.285432" />
      <path d="M 26.67964,-39.564354 A 16.666666666666668,8.101264637332878 0.0 0,0 -0.045445,-33.062788" />
      <path d="M -0.045445,-33.062788 A 16.666666666666668,8.101264637332878 0.0 0,0 0.154496,-31.853031" />
      <path d="M 33.087497,-34.356607 A 16.666666666666668,8.101264637332878 0.0 0,0 26.67964,-39.564354" />
      <path d="M 26.87347,-21.405094 A 16.666666666666668,8.101264637332877 -5.459138743450904e-15 0,0 2.228494,-18.864931" />
      <path d="M 2.228494,-18.864931 A 16.666666666666668,8.101264637332877 -5.459138743450904e-15 0,0 0.148385,-14.903528" />
      <path d="M 33.48127,-14.987591 A 16.666666666666668,8.101264637332877 -5.459138743450904e-15 0,0 26.87347,-21.405094" />
      <path d="M 10.904464,-7.363522 A 16.666666666666668,8.101264637332877 -1.2737990401385439e-14 0,0 -13.740512,-4.823359" />
      <path d="M 15.432154,3.015384 A 16.666666666666668,8.101264637332877 -1.2737990401385439e-14 0,0 17.114624,-2.663545" />
      <path d="M 17.114624,-2.663545 A 16.666666666666668,8.101264637332877 -1.2737990401385439e-14 0,0 10.904464,-7.363522" />
      <path d="M 18.51232,9.256156 A 16.666666666666668,8.101264637332877 -1.2737990401385439e-14 0,0 -7.815125,17.475248" />
      <path d="M 24.72248,13.956134 A 16.666666666666668,8.101264637332877 -1.2737990401385439e-14 0,0 24.334846,13.257942" />
      <path d="M 24.334846,13.257942 A 16.666666666666668,8.101264637332877 -1.2737990401385439e-14 0,0 18.51232,9.256156" />
      <path d="M 29.913091,26.661686 A 16.666666666666668,8.101264637332877 -1.2737990401385439e-14 0,0 4.856642,29.587761" />
      <path d="M 4.856642,29.587761 A 16.666666666666668,8.101264637332877 -1.2737990401385439e-14 0,0 3.973279,35.57897" />
      <path d="M 35.735617,30.663472 A 16.666666666666668,8.101264637332877 -1.2737990401385439e-14 0,0 29.913091,26.661686" />
      <path d="M 12.71502,43.908758 A 16.666666666666668,8.101264637332878 -7.278851657934538e-15 0,0 -12.341429,46.834832" />
      <path d="M 17.654183,53.901753 A 16.666666666666668,8.101264637332878 -7.278851657934538e-15 0,0 19.225465,49.492938" />
      <path d="M 19.225465,49.492938 A 16.666666666666668,8.101264637332878 -7.278851657934538e-15 0,0 12.71502,43.908758" />
      <path d="M 17.864747,66.939437 A 16.66666666666667,8.101264637332878 -1.4557703315869076e-14 0,0 -8.852684,73.149891" />
      <path d="M -8.852684,73.149891 A 16.66666666666667,8.101264637332878 -1.4557703315869076e-14 0,0 -8.762984,74.274326" />
      <path d="M 24.375192,72.523616 A 16.66666666666667,8.101264637332878 -1.4557703315869076e-14 0,0 17.864747,66.939437" />
      <path d="M 17.349338,75.083918 A 16.66666666666667,8.101264637332878 -1.2737990401385439e-14 0,0 -9.350323,81.09418" />
      <path d="M -9.350323,81.09418 A 16.66666666666667,8.101264637332878 -1.2737990401385439e-14 0,0 -9.368092,81.294372" />
      <path d="M 23.949482,81.792533 A 16.66666666666667,8.101264637332878 -1.2737990401385439e-14 0,0 17.349338,75.083918" />
      <path d="M 14.697378,98.292322 A 16.66666666666667,8.101264637332877 -1.2737990401385439e-14 0,0 -12.002283,104.302584" />
      <path d="M 21.279753,105.201129 A 16.66666666666667,8.101264637332877 -1.2737990401385439e-14 0,0 21.040323,103.312736" />
      <path d="M 21.040323,103.312736 A 16.66666666666667,8.101264637332877 -1.2737990401385439e-14 0,0 14.697378,98.292322" />
      <path d="M 20.904367,115.006217 A 16.66666666666667,8.101264637332877 -1.6377416230352708e-14 0,0 -5.555864,122.904873" />
      <path d="M 27.247312,120.026631 A 16.66666666666667,8.101264637332877 -1.6377416230352708e-14 0,0 20.904367,115.006217" />
      <path d="M -19.007135,-52.105852 A 16.666666666666668,8.101264637332877 3.639425828967269e-15 0,0 -44.455757,-48.755924" />
      <path d="M -44.455757,-48.755924 A 16.666666666666668,8.101264637332877 3.639425828967269e-15 0,0 -45.731166,-45.545964" />
      <path d="M -12.40039,-45.746671 A 16.666666666666668,8.101264637332877 3.639425828967269e-15 0,0 -19.007135,-52.105852" />
      <path d="M -30.773539,-38.346929 A 16.666666666666668,8.10126463733288 0.0 0,0 -56.22216,-34.997001" />
      <path d="M -25.442203,-28.777788 A 16.666666666666668,8.10126463733288 0.0 0,0 -24.324147,-33.002468" />
      <path d="M -24.324147,-33.002468 A 16.666666666666668,8.10126463733288 0.0 0,0 -30.773539,-38.346929" />
      <path d="M -25.773587,-20.85789 A 16.66666666666667,8.101264637332878 7.278851657934541e-15 0,0 -52.340265,-13.283282" />
      <path d="M -19.324196,-15.513429 A 16.66666666666667,8.101264637332878 7.278851657934541e-15 0,0 -19.361516,-15.636978" />
      <path d="M -19.361516,-15.636978 A 16.66666666666667,8.101264637332878 7.278851657934541e-15 0,0 -25.773587,-20.85789" />
      <path d="M -18.813305,1.010072 A 16.66666666666667,8.101264637332878 7.278851657934541e-15 0,0 -45.094233,5.611345" />
      <path d="M -45.094233,5.611345 A 16.66666666666667,8.101264637332878 7.278851657934541e-15 0,0 -45.342661,8.70823" />
      <path d="M -12.223236,7.845547 A 16.66666666666667,8.101264637332878 7.278851657934541e-15 0,0 -12.401234,6.230984" />
      <path d="M -12.401234,6.230984 A 16.66666666666667,8.101264637332878 7.278851657934541e-15 0,0 -18.813305,1.010072" />
      <path d="M -23.747174,11.18663 A 16.66666666666667,8.101264637332877 3.639425828967269e-15 0,0 -50.028102,15.787903" />
      <path d="M -17.583531,19.504427 A 16.66666666666667,8.101264637332877 3.639425828967269e-15 0,0 -17.344555,16.378201" />
      <path d="M -17.344555,16.378201 A 16.66666666666667,8.101264637332877 3.639425828967269e-15 0,0 -23.747174,11.18663" />
      <path d="M -17.949873,28.969025 A 16.66666666666667,8.101264637332877 1.8197129144836345e-15 0,0 -44.556008,36.395629" />
      <path d="M -44.556008,36.395629 A 16.66666666666667,8.101264637332877 1.8197129144836345e-15 0,0 -44.469778,36.696523" />
      <path d="M -11.547255,34.160596 A 16.66666666666667,8.101264637332877 1.8197129144836345e-15 0,0 -17.949873,28.969025" />
      <path d="M -13.35961,47.526564 A 16.666666666666668,8.101264637332875 -5.459138743450903e-15 0,0 -39.146257,51.305723" />
      <path d="M -39.146257,51.305723 A 16.666666666666668,8.101264637332875 -5.459138743450903e-15 0,0 -39.965745,54.953168" />
      <path d="M -11.981787,59.879155 A 16.666666666666668,8.101264637332875 -5.459138743450903e-15 0,0 -7.690249,56.666475" />
      <path d="M -7.690249,56.666475 A 16.666666666666668,8.101264637332875 -5.459138743450903e-15 0,0 -6.870761,53.01903" />
      <path d="M -6.870761,53.01903 A 16.666666666666668,8.101264637332875 -5.459138743450903e-15 0,0 -13.35961,47.526564" />
      <path d="M -28.187662,68.084059 A 16.666666666666668,8.101264637332877 -5.459138743450904e-15 0,0 -53.974308,71.863218" />
      <path d="M -22.518301,77.223969 A 16.666666666666668,8.101264637332877 -5.459138743450904e-15 0,0 -21.606953,74.07997" />
      <path d="M -21.606953,74.07997 A 16.666666666666668,8.101264637332877 -5.459138743450904e-15 0,0 -28.187662,68.084059" />
      <path d="M -26.183275,85.080603 A 16.666666666666668,8.101264637332877 -3.639425828967269e-15 0,0 -52.88127,92.003761" />
      <path d="M -19.602567,91.076514 A 16.666666666666668,8.101264637332877 -3.639425828967269e-15 0,0 -19.925146,89.888859" />
      <path d="M -19.925146,89.888859 A 16.666666666666668,8.101264637332877 -3.639425828967269e-15 0,0 -26.183275,85.080603" />
      <path d="M -17.606267,105.104921 A 16.666666666666668,8.101264637332878 -7.278851657934538e-15 0,0 -43.981683,113.215735" />
      <path d="M -11.348138,109.913177 A 16.666666666666668,8.101264637332878 -7.278851657934538e-15 0,0 -17.606267,105.104921" />
      <path d="M -58.420839,-72.702855 A 16.666666666666668,8.101264637332878 0.0 0,0 -85.122911,-66.670964" />
      <path d="M -85.122911,-66.670964 A 16.666666666666668,8.101264637332878 0.0 0,0 -85.13828,-65.994419" />
      <path d="M -51.820683,-66.492221 A 16.666666666666668,8.101264637332878 0.0 0,0 -58.420839,-72.702855" />
      <path d="M -59.993509,-58.24159 A 16.666666666666664,8.101264637332877 0.0 0,0 -86.611486,-52.699985" />
      <path d="M -86.611486,-52.699985 A 16.666666666666664,8.101264637332877 0.0 0,0 -86.695582,-52.209699" />
      <path d="M -53.408722,-51.354411 A 16.666666666666664,8.101264637332877 0.0 0,0 -59.993509,-58.24159" />
      <path d="M -64.821658,-37.662681 A 16.666666666666664,8.101264637332877 0.0 0,0 -91.439634,-32.121076" />
      <path d="M -58.320967,-30.285217 A 16.666666666666664,8.101264637332877 0.0 0,0 -58.213634,-31.203147" />
      <path d="M -58.213634,-31.203147 A 16.666666666666664,8.101264637332877 0.0 0,0 -64.821658,-37.662681" />
      <path d="M -64.821658,-20.184349 A 16.666666666666664,8.101264637332877 0.0 0,0 -91.506225,-14.290924" />
      <path d="M -91.506225,-14.290924 A 16.666666666666664,8.101264637332877 0.0 0,0 -91.546967,-13.724814" />
      <path d="M -58.213634,-13.724814 A 16.666666666666664,8.101264637332877 0.0 0,0 -64.821658,-20.184349" />
      <path d="M -67.213704,-3.586084 A 16.666666666666664,8.101264637332877 1.8197129144836345e-15 0,0 -93.898272,2.30734" />
      <path d="M -60.646423,3.43956 A 16.666666666666664,8.101264637332877 1.8197129144836345e-15 0,0 -60.720496,1.924171" />
      <path d="M -60.720496,1.924171 A 16.666666666666664,8.101264637332877 1.8197129144836345e-15 0,0 -67.213704,-3.586084" />
      <path d="M -63.204932,12.928671 A 16.666666666666664,8.101264637332877 0.0 0,0 -89.928495,19.505493" />
      <path d="M -89.928495,19.505493 A 16.666666666666664,8.101264637332877 0.0 0,0 -89.815427,20.337485" />
      <path d="M -56.711724,18.438927 A 16.666666666666664,8.101264637332877 0.0 0,0 -63.204932,12.928671" />
      <path d="M -62.623441,32.449787 A 16.666666666666664,8.101264637332877 -1.8197129144836345e-15 0,0 -89.347004,39.026609" />
      <path d="M -56.017164,38.792035 A 16.666666666666664,8.101264637332877 -1.8197129144836345e-15 0,0 -56.026828,38.6096" />
      <path d="M -56.026828,38.6096 A 16.666666666666664,8.101264637332877 -1.8197129144836345e-15 0,0 -62.623441,32.449787" />
      <path d="M -61.588207,46.041691 A 16.666666666666668,8.101264637332878 -1.8197129144836345e-15 0,0 -88.302106,52.800948" />
      <path d="M -54.991594,52.201505 A 16.666666666666668,8.101264637332878 -1.8197129144836345e-15 0,0 -55.213764,51.149666" />
      <path d="M -55.213764,51.149666 A 16.666666666666668,8.101264637332878 -1.8197129144836345e-15 0,0 -61.588207,46.041691" />
      <path d="M -53.636745,68.883938 A 16.66666666666667,8.10126463733288 1.8197129144836345e-15 0,0 -79.378111,72.601127" />
      <path d="M -79.378111,72.601127 A 16.66666666666667,8.10126463733288 1.8197129144836345e-15 0,0 -80.128473,76.695033" />
      <path d="M -54.066213,81.955833 A 16.66666666666667,8.10126463733288 1.8197129144836345e-15 0,0 -48.012665,78.085818" />
      <path d="M -48.012665,78.085818 A 16.66666666666667,8.10126463733288 1.8197129144836345e-15 0,0 -47.262303,73.991912" />
      <path d="M -47.262303,73.991912 A 16.66666666666667,8.10126463733288 1.8197129144836345e-15 0,0 -53.636745,68.883938" />
      <path d="M -62.385556,80.705 A 16.666666666666668,8.101264637332878 -1.8197129144836345e-15 0,0 -88.126922,84.422189" />
      <path d="M -56.761475,89.90688 A 16.666666666666668,8.101264637332878 -1.8197129144836345e-15 0,0 -62.385556,80.705" />
      <path d="M 4.640227,-79.372943 A 16.666666666666668,8.101264637332878 0.0 0,0 -21.741296,-74.550362" />
      <path d="M -21.741296,-74.550362 A 16.666666666666668,8.101264637332878 0.0 0,0 -21.472665,-70.737498" />
      <path d="M -21.472665,-70.737498 A 16.666666666666668,8.101264637332878 0.0 0,0 -12.908324,-65.676277" />
      <path d="M 10.904464,-71.276454 A 16.666666666666668,8.101264637332878 0.0 0,0 10.635833,-75.089317" />
      <path d="M 10.635833,-75.089317 A 16.666666666666668,8.101264637332878 0.0 0,0 4.640227,-79.372943" />
      <path d="M 16.01897,-59.537057 A 16.666666666666668,8.101264637332878 3.639425828967269e-15 0,0 -10.683103,-53.505166" />
      <path d="M -10.683103,-53.505166 A 16.666666666666668,8.101264637332878 3.639425828967269e-15 0,0 -10.093922,-50.901613" />
      <path d="M -4.66651,-46.836639 A 16.666666666666668,8.101264637332878 3.639425828967269e-15 0,0 22.603757,-52.649878" />
      <path d="M 22.603757,-52.649878 A 16.666666666666668,8.101264637332878 3.639425828967269e-15 0,0 22.014576,-55.253431" />
      <path d="M 22.014576,-55.253431 A 16.666666666666668,8.101264637332878 3.639425828967269e-15 0,0 16.01897,-59.537057" />
      <path d="M 14.4463,-45.075792 A 16.666666666666664,8.101264637332877 3.639425828967269e-15 0,0 -11.986417,-40.127592" />
      <path d="M -11.986417,-40.127592 A 16.666666666666664,8.101264637332877 3.639425828967269e-15 0,0 -12.255773,-39.043901" />
      <path d="M -0.021331,-30.803601 A 16.666666666666664,8.101264637332877 3.639425828967269e-15 0,0 20.761731,-37.104923" />
      <path d="M 20.761731,-37.104923 A 16.666666666666664,8.101264637332877 3.639425828967269e-15 0,0 21.031086,-38.188613" />
      <path d="M 21.031086,-38.188613 A 16.666666666666664,8.101264637332877 3.639425828967269e-15 0,0 14.4463,-45.075792" />
      <path d="M 7.85165,-28.194879 A 16.666666666666668,8.101264637332878 1.8197129144836345e-15 0,0 -18.581067,-23.246678" />
      <path d="M -3.684121,-13.665959 A 16.666666666666668,8.101264637332878 1.8197129144836345e-15 0,0 14.167081,-20.224009" />
      <path d="M 14.167081,-20.224009 A 16.666666666666668,8.101264637332878 1.8197129144836345e-15 0,0 14.226093,-23.086904" />
      <path d="M 14.226093,-23.086904 A 16.666666666666668,8.101264637332878 1.8197129144836345e-15 0,0 7.85165,-28.194879" />
      <path d="M 15.803112,-5.352632 A 16.666666666666668,8.101264637332878 1.8197129144836345e-15 0,0 -10.848453,1.868153" />
      <path d="M -10.848453,1.868153 A 16.666666666666668,8.101264637332878 1.8197129144836345e-15 0,0 -10.688616,2.458463" />
      <path d="M -10.688616,2.458463 A 16.666666666666668,8.101264637332878 1.8197129144836345e-15 0,0 20.545468,4.831278" />
      <path d="M 22.298596,0.167044 A 16.666666666666668,8.101264637332878 1.8197129144836345e-15 0,0 22.177555,-0.244658" />
      <path d="M 22.177555,-0.244658 A 16.666666666666668,8.101264637332878 1.8197129144836345e-15 0,0 15.803112,-5.352632" />
      <path d="M 18.820705,10.187839 A 16.666666666666668,8.101264637332878 1.8197129144836345e-15 0,0 -7.83086,17.408624" />
      <path d="M -7.83086,17.408624 A 16.666666666666668,8.101264637332878 1.8197129144836345e-15 0,0 -7.819242,17.466256" />
      <path d="M -5.909668,20.490698 A 16.666666666666668,8.101264637332878 1.8197129144836345e-15 0,0 25.354984,15.886124" />
      <path d="M 25.354984,15.886124 A 16.666666666666668,8.101264637332878 1.8197129144836345e-15 0,0 25.270147,15.532478" />
      <path d="M 25.270147,15.532478 A 16.666666666666668,8.101264637332878 1.8197129144836345e-15 0,0 18.820705,10.187839" />
      <path d="M 24.014487,28.357807 A 16.666666666666664,8.101264637332877 1.0918277486901807e-14 0,0 -2.198994,32.825083" />
      <path d="M -2.198994,32.825083 A 16.666666666666664,8.101264637332877 1.0918277486901807e-14 0,0 -2.552241,35.932237" />
      <path d="M -2.248196,36.712842 A 16.666666666666664,8.101264637332877 1.0918277486901807e-14 0,0 30.110682,36.8096" />
      <path d="M 30.110682,36.8096 A 16.666666666666664,8.101264637332877 1.0918277486901807e-14 0,0 30.463929,33.702445" />
      <path d="M 30.463929,33.702445 A 16.666666666666664,8.101264637332877 1.0918277486901807e-14 0,0 24.014487,28.357807" />
      <path d="M 11.556455,52.225725 A 16.666666666666664,8.101264637332877 1.4557703315869076e-14 0,0 -14.408064,56.265554" />
      <path d="M -14.408064,56.265554 A 16.666666666666664,8.101264637332877 1.4557703315869076e-14 0,0 -14.657026,56.693001" />
      <path d="M -14.657026,56.693001 A 16.666666666666664,8.101264637332877 1.4557703315869076e-14 0,0 -12.381511,63.170404" />
      <path d="M -11.057413,64.01315 A 16.666666666666664,8.101264637332877 1.4557703315869076e-14 0,0 17.403688,61.104965" />
      <path d="M 17.403688,61.104965 A 16.666666666666664,8.101264637332877 1.4557703315869076e-14 0,0 17.65265,60.677518" />
      <path d="M 17.65265,60.677518 A 16.666666666666664,8.101264637332877 1.4557703315869076e-14 0,0 11.556455,52.225725" />
      <path d="M 5.631406,61.427999 A 16.66666666666666,8.101264637332873 1.2737990401385442e-14 0,0 -20.333113,65.467828" />
      <path d="M -20.333113,65.467828 A 16.66666666666666,8.101264637332873 1.2737990401385442e-14 0,0 -20.896641,69.130264" />
      <path d="M -20.896641,69.130264 A 16.66666666666666,8.101264637332873 1.2737990401385442e-14 0,0 -18.76387,72.018856" />
      <path d="M -9.012555,75.676172 A 16.66666666666666,8.101264637332873 1.2737990401385442e-14 0,0 11.478639,70.307239" />
      <path d="M 11.478639,70.307239 A 16.66666666666666,8.101264637332873 1.2737990401385442e-14 0,0 12.042167,66.644803" />
      <path d="M 12.042167,66.644803 A 16.66666666666666,8.101264637332873 1.2737990401385442e-14 0,0 5.631406,61.427999" />
      <path d="M 12.397858,82.615033 A 16.66666666666666,8.101264637332873 9.098564572418173e-15 0,0 -14.130189,90.317298" />
      <path d="M -10.829623,94.040148 A 16.66666666666666,8.101264637332873 9.098564572418173e-15 0,0 18.80862,87.831838" />
      <path d="M 18.80862,87.831838 A 16.66666666666666,8.101264637332873 9.098564572418173e-15 0,0 12.397858,82.615033" />
      <path d="M -59.994395,-88.922517 L -62.036515,-82.145042" />
      <path d="M -62.160981,-80.334926 L -59.359246,-63.045026" />
      <path d="M -28.93057,-81.607193 L -28.783359,-80.698732" />
      <path d="M -27.966672,-75.65884 L -26.128835,-64.317293" />
      <path d="M -58.717298,-61.368704 L -53.283989,-52.50138" />
      <path d="M -26.770783,-65.993616 L -18.731211,-52.872793" />
      <path d="M -51.027349,-52.197291 L -51.874596,-50.201209" />
      <path d="M -55.840483,-40.857726 L -56.996453,-38.134305" />
      <path d="M -18.381588,-48.923383 L -24.350692,-34.860397" />
      <path d="M -56.923431,-38.297793 L -67.570907,-15.592591" />
      <path d="M -24.423713,-34.696909 L -35.07119,-11.991708" />
      <path d="M -67.216453,-11.35624 L -60.096192,-0.37846" />
      <path d="M -35.425644,-16.228059 L -25.209883,-0.47774" />
      <path d="M -57.55986,3.246485 L -57.366428,3.8302" />
      <path d="M -24.650716,0.669853 L -19.434907,16.409464" />
      <path d="M -52.55051,17.487133 L -52.590866,18.241287" />
      <path d="M -19.228447,17.908428 L -20.241654,36.842832" />
      <path d="M -20.349152,35.689859 L -16.53421,51.523687" />
      <path d="M -49.574952,51.280374 L -49.898143,52.34222" />
      <path d="M -52.184141,59.852895 L -54.359046,66.998571" />
      <path d="M -16.600534,53.651651 L -21.384628,69.369848" />
      <path d="M -18.81983,31.176155 L -36.255786,52.60301" />
      <path d="M 12.176824,37.135661 L -5.259132,58.562516" />
      <path d="M -23.86001,21.187723 L -19.829211,35.272123" />
      <path d="M 9.155405,18.955293 L 13.186205,33.039693" />
      <path d="M -21.788978,2.29231 L -23.987195,19.571502" />
      <path d="M 11.480806,3.292322 L 9.28259,20.571514" />
      <path d="M -29.302502,-15.413765 L -21.522843,4.317197" />
      <path d="M 3.435012,-18.463528 L 11.214671,1.267434" />
      <path d="M -36.187324,-29.667475 L -29.160959,-15.09058" />
      <path d="M -3.732896,-33.363609 L 3.293469,-18.786714" />
      <path d="M -15.82362,-56.632651 L -35.263962,-34.724007" />
      <path d="M 14.784084,-50.21572 L -4.656258,-28.307077" />
      <path d="M -20.670435,-65.029887 L -17.027296,-52.307343" />
      <path d="M 12.344621,-67.263572 L 15.98776,-54.541028" />
      <path d="M 10.636986,-80.55064 L 12.469569,-66.66538" />
      <path d="M -22.627966,-79.513339 L -22.581567,-79.161776" />
      <path d="M -22.006296,-74.803025 L -20.795383,-65.628079" />
      <path d="M -30.595823,-104.767029 L -25.977389,-90.011305" />
      <path d="M 2.358313,-107.20401 L 2.750679,-105.950415" />
      <path d="M 6.309974,-94.578601 L 10.481578,-81.25048" />
      <path d="M 5.53923,-70.973566 L 13.944435,-54.060531" />
      <path d="M 37.94061,-74.778073 L 46.345815,-57.865039" />
      <path d="M -30.192689,-108.423664 L -30.573756,-107.27254" />
      <path d="M 18.882529,-86.54561 L 8.018587,-77.518672" />
      <path d="M 47.654347,-78.364307 L 36.125829,-68.785168" />
      <path d="M 13.555968,-55.182386 L 18.489837,-30.402279" />
      <path d="M 46.734282,-56.743184 L 51.668151,-31.963078" />
      <path d="M 15.74453,-90.306099 L 16.393126,-84.207536" />
      <path d="M 18.811987,-32.946153 L 15.301013,-25.294167" />
      <path d="M 51.346001,-29.419203 L 47.835027,-21.767218" />
      <path d="M 15.015442,-24.476973 L 9.777605,-2.829564" />
      <path d="M 48.120598,-22.584412 L 42.882761,-0.937003" />
      <path d="M 9.730842,-1.155846 L 13.69556,20.219621" />
      <path d="M 42.929524,-2.610721 L 46.894241,18.764746" />
      <path d="M 13.628544,19.442775 L 13.478768,31.379467" />
      <path d="M 46.961257,19.541592 L 46.811482,31.478285" />
      <path d="M 13.569078,32.272528 L 17.943483,52.579495" />
      <path d="M 46.721172,30.585225 L 51.095578,50.892192" />
      <path d="M 18.815651,49.022254 L 8.040426,63.75546" />
      <path d="M 50.22341,54.449433 L 39.448186,69.182639" />
      <path d="M 19.449455,-59.682856 L 17.122373,-52.509826" />
      <path d="M 18.780142,-47.527719 L 33.190675,-33.97753" />
      <path d="M 48.391057,-54.968091 L 50.899822,-52.609106" />
      <path d="M 33.591972,-39.382309 L 20.596504,-22.417886" />
      <path d="M 19.556733,-19.342056 L 20.56994,-3.319796" />
      <path d="M 52.87433,-19.839858 L 52.974717,-18.252401" />
      <path d="M 52.867373,-6.369898 L 53.804288,-5.134057" />
      <path d="M 33.55469,11.330893 L 32.514632,13.642553" />
      <path d="M 29.286463,20.817563 L 26.57238,26.849951" />
      <path d="M 51.787334,-9.688558 L 49.501008,17.312058" />
      <path d="M 26.217932,29.069529 L 28.013932,43.512487" />
      <path d="M 59.49054,28.091965 L 59.63003,29.213703" />
      <path d="M 51.343397,-23.213278 L 51.775112,-9.233802" />
      <path d="M 84.672975,-23.456468 L 84.677143,-23.321506" />
      <path d="M 82.269993,15.580749 L 82.909315,16.75995" />
      <path d="M 50.037158,19.709689 L 56.094371,30.881945" />
      <path d="M 28.747208,44.580252 L 28.280075,45.652738" />
      <path d="M 21.729597,60.691951 L 20.126145,64.373309" />
      <path d="M 51.925804,-38.918744 L 51.344313,-23.483195" />
      <path d="M 55.589166,29.412684 L 58.00324,45.340728" />
      <path d="M 19.809767,66.646485 L 22.223841,82.574529" />
      <path d="M 53.053012,65.456067 L 53.22693,66.603576" />
      <path d="M 48.788225,-54.215816 L 51.999648,-37.994417" />
      <path d="M 81.968283,-55.767826 L 82.156074,-54.819262" />
      <path d="M 58.409553,42.872927 L 49.400829,61.304129" />
      <path d="M 22.337174,83.093499 L 23.386274,86.766088" />
      <path d="M 55.353754,80.865141 L 55.427624,81.123738" />
      <path d="M 53.870554,-73.575861 L 48.870603,-56.108236" />
      <path d="M 49.451102,65.149335 L 54.483173,74.89226" />
      <path d="M 81.781176,61.204105 L 82.77263,63.123724" />
      <path d="M 53.764074,-77.16118 L 53.711787,-72.503653" />
      <path d="M -0.045445,-33.062788 L -0.03895,-32.454259" />
      <path d="M 2.228494,-18.864931 L 0.125836,-17.01606" />
      <path d="M 17.114624,-2.663545 L 18.485298,0.33075" />
      <path d="M 24.334846,13.257942 L 24.56075,13.602829" />
      <path d="M 4.856642,29.587761 L 1.955,32.497669" />
      <path d="M 19.225465,49.492938 L 19.742912,51.807073" />
      <path d="M -8.852684,73.149891 L -8.888359,73.713626" />
      <path d="M -9.350323,81.09418 L -9.361755,81.194223" />
      <path d="M 21.040323,103.312736 L 21.388426,104.250091" />
      <path d="M -44.455757,-48.755924 L -45.773698,-47.214803" />
      <path d="M -24.324147,-33.002468 L -23.699082,-30.816088" />
      <path d="M -19.361516,-15.636978 L -19.341877,-15.575273" />
      <path d="M -15.307335,-2.899466 L -12.401234,6.230984" />
      <path d="M -45.094233,5.611345 L -45.839255,7.148021" />
      <path d="M -17.344555,16.378201 L -16.831233,17.952743" />
      <path d="M -44.556008,36.395629 L -44.518697,36.546469" />
      <path d="M -9.183732,43.668138 L -6.870761,53.01903" />
      <path d="M -39.146257,51.305723 L -40.428302,53.083141" />
      <path d="M -7.690249,56.666475 L -11.514598,61.968522" />
      <path d="M -21.606953,74.07997 L -21.416349,75.696232" />
      <path d="M -19.925146,89.888859 L -19.673282,90.476874" />
      <path d="M -85.122911,-66.670964 L -85.159682,-66.332848" />
      <path d="M -86.611486,-52.699985 L -86.668855,-52.455463" />
      <line x1="-58.213634" y1="-31.203147" x2="-58.213634" y2="-30.742699" />
      <path d="M -91.506225,-14.290924 L -91.546967,-14.008216" />
      <path d="M -60.720496,1.924171 L -60.536985,2.680174" />
      <path d="M -89.928495,19.505493 L -89.916061,19.922905" />
      <path d="M -56.026828,38.6096 L -56.019882,38.700791" />
      <path d="M -55.213764,51.149666 L -55.031919,51.672054" />
      <path d="M -49.946945,66.279713 L -47.262303,73.991912" />
      <path d="M -79.378111,72.601127 L -80.857673,74.600254" />
      <path d="M -48.012665,78.085818 L -53.627866,85.672866" />
      <path d="M -21.670649,-74.716805 L -21.741296,-74.550362" />
      <path d="M -21.472665,-70.737498 L -12.645118,-55.348961" />
      <path d="M 10.635833,-75.089317 L 11.720373,-73.198703" />
      <path d="M 19.458199,-59.70981 L 22.014576,-55.253431" />
      <path d="M -10.683103,-53.505166 L -10.827223,-52.179933" />
      <path d="M 22.603757,-52.649878 L 21.031086,-38.188613" />
      <path d="M -11.986417,-40.127592 L -12.196366,-39.590167" />
      <path d="M 20.761731,-37.104923 L 14.167081,-20.224009" />
      <path d="M -13.34462,-5.171467 L -10.688616,2.458463" />
      <path d="M 14.226093,-23.086904 L 22.177555,-0.244658" />
      <path d="M -10.848453,1.868153 L -7.83086,17.408624" />
      <path d="M 25.059466,14.364217 L 25.354984,15.886124" />
      <path d="M 25.270147,15.532478 L 30.463929,33.702445" />
      <path d="M -2.198994,32.825083 L -3.001125,34.361858" />
      <path d="M -6.403097,40.879581 L -14.657026,56.693001" />
      <path d="M 30.110682,36.8096 L 25.072259,46.462541" />
      <path d="M 20.504609,55.213545 L 17.65265,60.677518" />
      <path d="M -14.408064,56.265554 L -20.333113,65.467828" />
      <path d="M 17.403688,61.104965 L 11.478639,70.307239" />
      <path d="M -20.896641,69.130264 L -19.602707,73.181813" />
      <path d="M 12.042167,66.644803 L 18.80862,87.831838" />
      <line x1="-29.258117" y1="-108.103719" x2="-35.487133" y2="-87.430594" />
      <line x1="-35.487133" y1="-87.430594" x2="-32.685398" y2="-70.140694" />
      <line x1="-32.685398" y1="-70.140694" x2="-24.645826" y2="-57.019871" />
      <line x1="-24.645826" y1="-57.019871" x2="-30.614929" y2="-42.956886" />
      <line x1="-30.614929" y1="-42.956886" x2="-41.262406" y2="-20.251684" />
      <line x1="-41.262406" y1="-20.251684" x2="-31.046645" y2="-4.501366" />
      <line x1="-31.046645" y1="-4.501366" x2="-25.830836" y2="11.238246" />
      <line x1="-25.830836" y1="11.238246" x2="-26.844042" y2="30.17265" />
      <line x1="-26.844042" y1="30.17265" x2="-23.029101" y2="46.006477" />
      <line x1="-23.029101" y1="46.006477" x2="-27.178267" y2="59.638614" />
      <line x1="6.73714" y1="27.696373" x2="-10.698816" y2="49.123228" />
      <line x1="2.70634" y1="13.611974" x2="6.73714" y2="27.696373" />
      <line x1="4.904557" y1="-3.667219" x2="2.70634" y2="13.611974" />
      <line x1="-2.875102" y1="-23.398182" x2="4.904557" y2="-3.667219" />
      <line x1="-9.901467" y1="-37.975077" x2="-2.875102" y2="-23.398182" />
      <line x1="9.538875" y1="-59.88372" x2="-9.901467" y2="-37.975077" />
      <line x1="5.895736" y1="-72.606264" x2="9.538875" y2="-59.88372" />
      <line x1="4.063153" y1="-86.491524" x2="5.895736" y2="-72.606264" />
      <line x1="-4.060112" y1="-112.445054" x2="4.063153" y2="-86.491524" />
      <line x1="31.798563" y1="-79.335354" x2="40.203768" y2="-62.42232" />
      <line x1="0.917812" y1="-127.482324" x2="-4.060112" y2="-112.445054" />
      <line x1="43.327081" y1="-88.914493" x2="31.798563" y2="-79.335354" />
      <line x1="40.203768" y1="-62.42232" x2="45.137637" y2="-37.642213" />
      <line x1="40.785259" y1="-112.814532" x2="43.327081" y2="-88.914493" />
      <line x1="45.137637" y1="-37.642213" x2="41.626663" y2="-29.990227" />
      <line x1="41.626663" y1="-29.990227" x2="36.388826" y2="-8.342818" />
      <line x1="36.388826" y1="-8.342818" x2="40.353543" y2="13.032649" />
      <line x1="40.353543" y1="13.032649" x2="40.203768" y2="24.969341" />
      <line x1="40.203768" y1="24.969341" x2="44.578173" y2="45.276308" />
      <line x1="44.578173" y1="45.276308" x2="33.802949" y2="60.009515" />
      <line x1="50.476777" y1="-78.768137" x2="43.644242" y2="-57.70744" />
      <line x1="43.644242" y1="-57.70744" x2="59.269643" y2="-43.014914" />
      <line x1="59.269643" y1="-43.014914" x2="46.274175" y2="-26.050492" />
      <line x1="46.274175" y1="-26.050492" x2="47.287381" y2="-10.028232" />
      <line x1="47.287381" y1="-10.028232" x2="59.895189" y2="6.602154" />
      <line x1="59.895189" y1="6.602154" x2="53.274899" y2="21.316577" />
      <line x1="78.498544" y1="-15.814932" x2="76.212218" y2="11.185684" />
      <line x1="53.021286" y1="22.992994" x2="55.111095" y2="39.798684" />
      <line x1="78.066829" y1="-29.794408" x2="78.498544" y2="-15.814932" />
      <line x1="76.212218" y1="11.185684" x2="82.269431" y2="22.35794" />
      <line x1="55.111095" y1="39.798684" x2="46.490032" y2="59.591741" />
      <line x1="78.64832" y1="-45.229956" x2="78.066829" y2="-29.794408" />
      <line x1="82.269431" y1="22.35794" x2="84.683506" y2="38.285984" />
      <line x1="46.490032" y1="59.591741" x2="48.904107" y2="75.519785" />
      <line x1="75.436897" y1="-61.451356" x2="78.64832" y2="-45.229956" />
      <line x1="84.683506" y1="38.285984" x2="75.674782" y2="56.717186" />
      <line x1="48.904107" y1="75.519785" x2="55.06704" y2="97.094392" />
      <line x1="80.436848" y1="-78.918981" x2="75.436897" y2="-61.451356" />
      <line x1="75.674782" y1="56.717186" x2="85.264997" y2="75.285432" />
      <line x1="80.652706" y1="-98.146741" x2="80.436848" y2="-78.918981" />
      <line x1="20.300848" y1="-59.389533" x2="26.67964" y2="-39.564354" />
      <line x1="26.67964" y1="-39.564354" x2="26.87347" y2="-21.405094" />
      <line x1="26.87347" y1="-21.405094" x2="10.904464" y2="-7.363522" />
      <line x1="10.904464" y1="-7.363522" x2="18.51232" y2="9.256156" />
      <line x1="18.51232" y1="9.256156" x2="29.913091" y2="26.661686" />
      <line x1="29.913091" y1="26.661686" x2="12.71502" y2="43.908758" />
      <line x1="12.71502" y1="43.908758" x2="17.864747" y2="66.939437" />
      <line x1="17.864747" y1="66.939437" x2="17.349338" y2="75.083918" />
      <line x1="17.349338" y1="75.083918" x2="14.697378" y2="98.292322" />
      <line x1="14.697378" y1="98.292322" x2="20.904367" y2="115.006217" />
      <line x1="-19.566599" y1="-74.057324" x2="-19.007135" y2="-52.105852" />
      <line x1="-19.007135" y1="-52.105852" x2="-30.773539" y2="-38.346929" />
      <line x1="-30.773539" y1="-38.346929" x2="-25.773587" y2="-20.85789" />
      <line x1="-25.773587" y1="-20.85789" x2="-18.813305" y2="1.010072" />
      <line x1="-18.813305" y1="1.010072" x2="-23.747174" y2="11.18663" />
      <line x1="-23.747174" y1="11.18663" x2="-17.949873" y2="28.969025" />
      <line x1="-17.949873" y1="28.969025" x2="-13.35961" y2="47.526564" />
      <line x1="-13.35961" y1="47.526564" x2="-28.187662" y2="68.084059" />
      <line x1="-28.187662" y1="68.084059" x2="-26.183275" y2="85.080603" />
      <line x1="-26.183275" y1="85.080603" x2="-17.606267" y2="105.104921" />
      <line x1="-59.434045" y1="-88.725115" x2="-58.420839" y2="-72.702855" />
      <line x1="-58.420839" y1="-72.702855" x2="-59.993509" y2="-58.24159" />
      <line x1="-59.993509" y1="-58.24159" x2="-64.821658" y2="-37.662681" />
      <line x1="-64.821658" y1="-37.662681" x2="-64.821658" y2="-20.184349" />
      <line x1="-64.821658" y1="-20.184349" x2="-67.213704" y2="-3.586084" />
      <line x1="-67.213704" y1="-3.586084" x2="-63.204932" y2="12.928671" />
      <line x1="-63.204932" y1="12.928671" x2="-62.623441" y2="32.449787" />
      <line x1="-62.623441" y1="32.449787" x2="-61.588207" y2="46.041691" />
      <line x1="-61.588207" y1="46.041691" x2="-53.636745" y2="68.883938" />
      <line x1="-53.636745" y1="68.883938" x2="-62.385556" y2="80.705" />
      <line x1="10.60933" y1="-93.435928" x2="4.640227" y2="-79.372943" />
      <line x1="4.640227" y1="-79.372943" x2="16.01897" y2="-59.537057" />
      <line x1="16.01897" y1="-59.537057" x2="14.4463" y2="-45.075792" />
      <line x1="14.4463" y1="-45.075792" x2="7.85165" y2="-28.194879" />
      <line x1="7.85165" y1="-28.194879" x2="15.803112" y2="-5.352632" />
      <line x1="15.803112" y1="-5.352632" x2="18.820705" y2="10.187839" />
      <line x1="18.820705" y1="10.187839" x2="24.014487" y2="28.357807" />
      <line x1="24.014487" y1="28.357807" x2="11.556455" y2="52.225725" />
      <line x1="11.556455" y1="52.225725" x2="5.631406" y2="61.427999" />
      <line x1="5.631406" y1="61.427999" x2="12.397858" y2="82.615033" />
    </g>
  </g>
</svg>