solid 
 facet normal -1.000000e+00  0.000000e+00  0.000000e+00
   outer loop
     vertex -5.000000e+00  5.000000e+00 -2.071068e+00
     vertex -5.000000e+00  3.000000e+01  5.000000e+00
     vertex -5.000000e+00  3.000000e+01 -5.000000e+00
   endloop
 endfacet
 facet normal -1.000000e+00  0.000000e+00  0.000000e+00
   outer loop
     vertex -5.000000e+00  5.000000e+00  5.000000e+00
     vertex -5.000000e+00  3.000000e+01  5.000000e+00
     vertex -5.000000e+00  5.000000e+00 -2.071068e+00
   endloop
 endfacet
 facet normal -1.000000e+00  0.000000e+00  0.000000e+00
   outer loop
     vertex -5.000000e+00 -3.000000e+01  5.000000e+00
     vertex -5.000000e+00 -5.000000e+00  5.000000e+00
     vertex -5.000000e+00 -5.000000e+00 -2.071068e+00
   endloop
 endfacet
 facet normal -1.000000e+00  0.000000e+00  0.000000e+00
   outer loop
     vertex -5.000000e+00 -3.000000e+01  5.000000e+00
     vertex -5.000000e+00 -5.000000e+00 -2.071068e+00
     vertex -5.000000e+00 -3.000000e+01 -5.000000e+00
   endloop
 endfacet
 facet normal -1.000000e+00  0.000000e+00  0.000000e+00
   outer loop
     vertex -5.000000e+00 -3.000000e+01 -5.000000e+00
     vertex -5.000000e+00  5.000000e+00 -2.071068e+00
     vertex -5.000000e+00  3.000000e+01 -5.000000e+00
   endloop
 endfacet
 facet normal -1.000000e+00  0.000000e+00  0.000000e+00
   outer loop
     vertex -5.000000e+00 -3.000000e+01 -5.000000e+00
     vertex -5.000000e+00 -5.000000e+00 -2.071068e+00
     vertex -5.000000e+00  5.000000e+00 -2.071068e+00
   endloop
 endfacet
 facet normal  0.000000e+00  0.000000e+00  1.000000e+00
   outer loop
     vertex  2.071068e+00 -5.000000e+00  5.000000e+00
     vertex -5.000000e+00 -5.000000e+00  5.000000e+00
     vertex -5.000000e+00 -3.000000e+01  5.000000e+00
   endloop
 endfacet
 facet normal  0.000000e+00  0.000000e+00  1.000000e+00
   outer loop
     vertex  2.071068e+00 -5.000000e+00  5.000000e+00
     vertex -5.000000e+00 -3.000000e+01  5.000000e+00
     vertex  5.000000e+00 -3.000000e+01  5.000000e+00
   endloop
 endfacet
 facet normal  0.000000e+00  0.000000e+00  1.000000e+00
   outer loop
     vertex -5.000000e+00  3.000000e+01  5.000000e+00
     vertex -5.000000e+00  5.000000e+00  5.000000e+00
     vertex  2.071068e+00  5.000000e+00  5.000000e+00
   endloop
 endfacet
 facet normal  0.000000e+00  0.000000e+00  1.000000e+00
   outer loop
     vertex  5.000000e+00  3.000000e+01  5.000000e+00
     vertex -5.000000e+00  3.000000e+01  5.000000e+00
     vertex  2.071068e+00  5.000000e+00  5.000000e+00
   endloop
 endfacet
 facet normal  0.000000e+00 -0.000000e+00  1.000000e+00
   outer loop
     vertex  5.000000e+00 -3.000000e+01  5.000000e+00
     vertex  5.000000e+00  3.000000e+01  5.000000e+00
     vertex  2.071068e+00 -5.000000e+00  5.000000e+00
   endloop
 endfacet
 facet normal  0.000000e+00  0.000000e+00  1.000000e+00
   outer loop
     vertex  2.071068e+00 -5.000000e+00  5.000000e+00
     vertex  5.000000e+00  3.000000e+01  5.000000e+00
     vertex  2.071068e+00  5.000000e+00  5.000000e+00
   endloop
 endfacet
 facet normal -1.077776e-15 -1.000000e+00 -6.280370e-16
   outer loop
     vertex -5.000000e+00 -5.000000e+00  5.000000e+00
     vertex -2.474874e+01 -5.000000e+00  1.767767e+01
     vertex -5.000000e+00 -5.000000e+00 -2.071068e+00
   endloop
 endfacet
 facet normal -4.108589e-16 -1.000000e+00  4.108589e-16
   outer loop
     vertex -5.000000e+00 -5.000000e+00  5.000000e+00
     vertex -1.767767e+01 -5.000000e+00  2.474874e+01
     vertex -2.474874e+01 -5.000000e+00  1.767767e+01
   endloop
 endfacet
 facet normal  6.280370e-16 -1.000000e+00  1.077776e-15
   outer loop
     vertex  2.071068e+00 -5.000000e+00  5.000000e+00
     vertex -1.767767e+01 -5.000000e+00  2.474874e+01
     vertex -5.000000e+00 -5.000000e+00  5.000000e+00
   endloop
 endfacet
 facet normal -7.071068e-01 -0.000000e+00 -7.071068e-01
   outer loop
     vertex -2.474874e+01  5.000000e+00  1.767767e+01
     vertex -5.000000e+00 -5.000000e+00 -2.071068e+00
     vertex -2.474874e+01 -5.000000e+00  1.767767e+01
   endloop
 endfacet
 facet normal -7.071068e-01  2.035288e-16 -7.071068e-01
   outer loop
     vertex -2.474874e+01  5.000000e+00  1.767767e+01
     vertex -5.000000e+00  5.000000e+00 -2.071068e+00
     vertex -5.000000e+00 -5.000000e+00 -2.071068e+00
   endloop
 endfacet
 facet normal  5.753467e-16  1.000000e+00  1.256074e-16
   outer loop
     vertex -5.000000e+00  5.000000e+00  5.000000e+00
     vertex -5.000000e+00  5.000000e+00 -2.071068e+00
     vertex -2.474874e+01  5.000000e+00  1.767767e+01
   endloop
 endfacet
 facet normal  3.012965e-16  1.000000e+00 -3.012965e-16
   outer loop
     vertex -5.000000e+00  5.000000e+00  5.000000e+00
     vertex -2.474874e+01  5.000000e+00  1.767767e+01
     vertex -1.767767e+01  5.000000e+00  2.474874e+01
   endloop
 endfacet
 facet normal -1.256074e-16  1.000000e+00 -5.753467e-16
   outer loop
     vertex  2.071068e+00  5.000000e+00  5.000000e+00
     vertex -5.000000e+00  5.000000e+00  5.000000e+00
     vertex -1.767767e+01  5.000000e+00  2.474874e+01
   endloop
 endfacet
 facet normal  0.000000e+00  1.000000e+00  0.000000e+00
   outer loop
     vertex  5.000000e+00  3.000000e+01  5.000000e+00
     vertex  5.000000e+00  3.000000e+01 -5.000000e+00
     vertex -5.000000e+00  3.000000e+01 -5.000000e+00
   endloop
 endfacet
 facet normal  0.000000e+00  1.000000e+00  0.000000e+00
   outer loop
     vertex  5.000000e+00  3.000000e+01  5.000000e+00
     vertex -5.000000e+00  3.000000e+01 -5.000000e+00
     vertex -5.000000e+00  3.000000e+01  5.000000e+00
   endloop
 endfacet
 facet normal  0.000000e+00 -0.000000e+00 -1.000000e+00
   outer loop
     vertex -2.071068e+00 -5.000000e+00 -5.000000e+00
     vertex  5.000000e+00 -3.000000e+01 -5.000000e+00
     vertex -5.000000e+00 -3.000000e+01 -5.000000e+00
   endloop
 endfacet
 facet normal -0.000000e+00 -0.000000e+00 -1.000000e+00
   outer loop
     vertex  5.000000e+00 -5.000000e+00 -5.000000e+00
     vertex  5.000000e+00 -3.000000e+01 -5.000000e+00
     vertex -2.071068e+00 -5.000000e+00 -5.000000e+00
   endloop
 endfacet
 facet normal  0.000000e+00 -0.000000e+00 -1.000000e+00
   outer loop
     vertex  5.000000e+00  3.000000e+01 -5.000000e+00
     vertex  5.000000e+00  5.000000e+00 -5.000000e+00
     vertex -2.071068e+00  5.000000e+00 -5.000000e+00
   endloop
 endfacet
 facet normal -0.000000e+00  0.000000e+00 -1.000000e+00
   outer loop
     vertex  5.000000e+00  3.000000e+01 -5.000000e+00
     vertex -2.071068e+00  5.000000e+00 -5.000000e+00
     vertex -5.000000e+00  3.000000e+01 -5.000000e+00
   endloop
 endfacet
 facet normal  0.000000e+00  0.000000e+00 -1.000000e+00
   outer loop
     vertex -5.000000e+00  3.000000e+01 -5.000000e+00
     vertex -2.071068e+00 -5.000000e+00 -5.000000e+00
     vertex -5.000000e+00 -3.000000e+01 -5.000000e+00
   endloop
 endfacet
 facet normal  0.000000e+00  0.000000e+00 -1.000000e+00
   outer loop
     vertex -5.000000e+00  3.000000e+01 -5.000000e+00
     vertex -2.071068e+00  5.000000e+00 -5.000000e+00
     vertex -2.071068e+00 -5.000000e+00 -5.000000e+00
   endloop
 endfacet
 facet normal  0.000000e+00 -1.000000e+00 -0.000000e+00
   outer loop
     vertex  5.000000e+00 -3.000000e+01  5.000000e+00
     vertex -5.000000e+00 -3.000000e+01 -5.000000e+00
     vertex  5.000000e+00 -3.000000e+01 -5.000000e+00
   endloop
 endfacet
 facet normal -0.000000e+00 -1.000000e+00  0.000000e+00
   outer loop
     vertex  5.000000e+00 -3.000000e+01  5.000000e+00
     vertex -5.000000e+00 -3.000000e+01  5.000000e+00
     vertex -5.000000e+00 -3.000000e+01 -5.000000e+00
   endloop
 endfacet
 facet normal  7.071068e-01  0.000000e+00  7.071068e-01
   outer loop
     vertex -1.767767e+01  5.000000e+00  2.474874e+01
     vertex -1.767767e+01 -5.000000e+00  2.474874e+01
     vertex  2.071068e+00 -5.000000e+00  5.000000e+00
   endloop
 endfacet
 facet normal  7.071068e-01 -4.070576e-16  7.071068e-01
   outer loop
     vertex -1.767767e+01  5.000000e+00  2.474874e+01
     vertex  2.071068e+00 -5.000000e+00  5.000000e+00
     vertex  2.071068e+00  5.000000e+00  5.000000e+00
   endloop
 endfacet
 facet normal  1.000000e+00  0.000000e+00  0.000000e+00
   outer loop
     vertex  5.000000e+00  5.000000e+00  2.071068e+00
     vertex  5.000000e+00  5.000000e+00 -5.000000e+00
     vertex  5.000000e+00  3.000000e+01 -5.000000e+00
   endloop
 endfacet
 facet normal  1.000000e+00 -0.000000e+00  0.000000e+00
   outer loop
     vertex  5.000000e+00  5.000000e+00  2.071068e+00
     vertex  5.000000e+00  3.000000e+01 -5.000000e+00
     vertex  5.000000e+00  3.000000e+01  5.000000e+00
   endloop
 endfacet
 facet normal  1.000000e+00  0.000000e+00  0.000000e+00
   outer loop
     vertex  5.000000e+00 -3.000000e+01 -5.000000e+00
     vertex  5.000000e+00 -5.000000e+00 -5.000000e+00
     vertex  5.000000e+00 -5.000000e+00  2.071068e+00
   endloop
 endfacet
 facet normal  1.000000e+00  0.000000e+00  0.000000e+00
   outer loop
     vertex  5.000000e+00 -3.000000e+01  5.000000e+00
     vertex  5.000000e+00 -3.000000e+01 -5.000000e+00
     vertex  5.000000e+00 -5.000000e+00  2.071068e+00
   endloop
 endfacet
 facet normal  1.000000e+00  0.000000e+00  0.000000e+00
   outer loop
     vertex  5.000000e+00  3.000000e+01  5.000000e+00
     vertex  5.000000e+00 -3.000000e+01  5.000000e+00
     vertex  5.000000e+00  5.000000e+00  2.071068e+00
   endloop
 endfacet
 facet normal  1.000000e+00  0.000000e+00  0.000000e+00
   outer loop
     vertex  5.000000e+00  5.000000e+00  2.071068e+00
     vertex  5.000000e+00 -3.000000e+01  5.000000e+00
     vertex  5.000000e+00 -5.000000e+00  2.071068e+00
   endloop
 endfacet
 facet normal -7.071068e-01  0.000000e+00  7.071068e-01
   outer loop
     vertex -1.767767e+01  5.000000e+00  2.474874e+01
     vertex -2.474874e+01  5.000000e+00  1.767767e+01
     vertex -2.474874e+01 -5.000000e+00  1.767767e+01
   endloop
 endfacet
 facet normal -7.071068e-01  0.000000e+00  7.071068e-01
   outer loop
     vertex -1.767767e+01  5.000000e+00  2.474874e+01
     vertex -2.474874e+01 -5.000000e+00  1.767767e+01
     vertex -1.767767e+01 -5.000000e+00  2.474874e+01
   endloop
 endfacet
 facet normal -1.256074e-16  1.000000e+00 -5.753467e-16
   outer loop
     vertex  1.767767e+01  5.000000e+00 -2.474874e+01
     vertex -2.071068e+00  5.000000e+00 -5.000000e+00
     vertex  5.000000e+00  5.000000e+00 -5.000000e+00
   endloop
 endfacet
 facet normal  5.753467e-16  1.000000e+00  1.256074e-16
   outer loop
     vertex  2.474874e+01  5.000000e+00 -1.767767e+01
     vertex  5.000000e+00  5.000000e+00 -5.000000e+00
     vertex  5.000000e+00  5.000000e+00  2.071068e+00
   endloop
 endfacet
 facet normal  3.012965e-16  1.000000e+00 -3.012965e-16
   outer loop
     vertex  2.474874e+01  5.000000e+00 -1.767767e+01
     vertex  1.767767e+01  5.000000e+00 -2.474874e+01
     vertex  5.000000e+00  5.000000e+00 -5.000000e+00
   endloop
 endfacet
 facet normal -7.071068e-01  0.000000e+00 -7.071068e-01
   outer loop
     vertex -2.071068e+00 -5.000000e+00 -5.000000e+00
     vertex  1.767767e+01  5.000000e+00 -2.474874e+01
     vertex  1.767767e+01 -5.000000e+00 -2.474874e+01
   endloop
 endfacet
 facet normal -7.071068e-01  2.512148e-16 -7.071068e-01
   outer loop
     vertex -2.071068e+00  5.000000e+00 -5.000000e+00
     vertex  1.767767e+01  5.000000e+00 -2.474874e+01
     vertex -2.071068e+00 -5.000000e+00 -5.000000e+00
   endloop
 endfacet
 facet normal -3.768222e-16 -1.000000e+00  7.291715e-17
   outer loop
     vertex  1.767767e+01 -5.000000e+00 -2.474874e+01
     vertex  5.000000e+00 -5.000000e+00 -5.000000e+00
     vertex -2.071068e+00 -5.000000e+00 -5.000000e+00
   endloop
 endfacet
 facet normal -7.291715e-17 -1.000000e+00  3.768222e-16
   outer loop
     vertex  2.474874e+01 -5.000000e+00 -1.767767e+01
     vertex  5.000000e+00 -5.000000e+00  2.071068e+00
     vertex  5.000000e+00 -5.000000e+00 -5.000000e+00
   endloop
 endfacet
 facet normal -1.917341e-16 -1.000000e+00  1.917341e-16
   outer loop
     vertex  2.474874e+01 -5.000000e+00 -1.767767e+01
     vertex  5.000000e+00 -5.000000e+00 -5.000000e+00
     vertex  1.767767e+01 -5.000000e+00 -2.474874e+01
   endloop
 endfacet
 facet normal  7.071068e-01  0.000000e+00  7.071068e-01
   outer loop
     vertex  5.000000e+00 -5.000000e+00  2.071068e+00
     vertex  2.474874e+01 -5.000000e+00 -1.767767e+01
     vertex  2.474874e+01  5.000000e+00 -1.767767e+01
   endloop
 endfacet
 facet normal  7.071068e-01 -2.512148e-16  7.071068e-01
   outer loop
     vertex  5.000000e+00  5.000000e+00  2.071068e+00
     vertex  5.000000e+00 -5.000000e+00  2.071068e+00
     vertex  2.474874e+01  5.000000e+00 -1.767767e+01
   endloop
 endfacet
 facet normal  7.071068e-01 -2.131628e-16 -7.071068e-01
   outer loop
     vertex  2.474874e+01  5.000000e+00 -1.767767e+01
     vertex  1.767767e+01 -5.000000e+00 -2.474874e+01
     vertex  1.767767e+01  5.000000e+00 -2.474874e+01
   endloop
 endfacet
 facet normal  7.071068e-01 -5.024296e-16 -7.071068e-01
   outer loop
     vertex  2.474874e+01  5.000000e+00 -1.767767e+01
     vertex  2.474874e+01 -5.000000e+00 -1.767767e+01
     vertex  1.767767e+01 -5.000000e+00 -2.474874e+01
   endloop
 endfacet
endsolid
